<svg width="50" height="50" viewBox="0 0 50 50" fill="none" xmlns="http://www.w3.org/2000/svg">
<path d="M8.33333 41.6667H20.8333C20.8333 42.7717 21.2723 43.8315 22.0537 44.6129C22.8351 45.3943 23.8949 45.8333 25 45.8333C26.1051 45.8333 27.1649 45.3943 27.9463 44.6129C28.7277 43.8315 29.1667 42.7717 29.1667 41.6667H41.6667C42.2192 41.6667 42.7491 41.4472 43.1398 41.0565C43.5305 40.6658 43.75 40.1359 43.75 39.5833C43.75 39.0308 43.5305 38.5009 43.1398 38.1102C42.7491 37.7195 42.2192 37.5 41.6667 37.5V22.9167C41.6667 18.4964 39.9107 14.2572 36.7851 11.1316C33.6595 8.00595 29.4203 6.25 25 6.25C20.5797 6.25 16.3405 8.00595 13.2149 11.1316C10.0893 14.2572 8.33333 18.4964 8.33333 22.9167V37.5C7.7808 37.5 7.25089 37.7195 6.86019 38.1102C6.46949 38.5009 6.25 39.0308 6.25 39.5833C6.25 40.1359 6.46949 40.6658 6.86019 41.0565C7.25089 41.4472 7.7808 41.6667 8.33333 41.6667ZM12.5 22.9167C12.5 19.6015 13.817 16.422 16.1612 14.0778C18.5054 11.7336 21.6848 10.4167 25 10.4167C28.3152 10.4167 31.4946 11.7336 33.8388 14.0778C36.183 16.422 37.5 19.6015 37.5 22.9167V37.5H12.5V22.9167Z" fill="#0D45DF"/>
</svg>
