<svg width="50" height="50" viewBox="0 0 50 50" fill="none" xmlns="http://www.w3.org/2000/svg">
<path d="M14.5832 43.7501C16.8844 43.7501 18.7498 41.8846 18.7498 39.5834C18.7498 37.2822 16.8844 35.4167 14.5832 35.4167C12.282 35.4167 10.4165 37.2822 10.4165 39.5834C10.4165 41.8846 12.282 43.7501 14.5832 43.7501Z" fill="#0D45DF"/>
<path d="M35.4167 43.7501C37.7179 43.7501 39.5833 41.8846 39.5833 39.5834C39.5833 37.2822 37.7179 35.4167 35.4167 35.4167C33.1155 35.4167 31.25 37.2822 31.25 39.5834C31.25 41.8846 33.1155 43.7501 35.4167 43.7501Z" fill="#0D45DF"/>
<path d="M45.8335 12.5H10.4168C10.4168 10.8424 9.75835 9.25269 8.58625 8.08058C7.41414 6.90848 5.82443 6.25 4.16683 6.25C3.6143 6.25 3.08439 6.46949 2.69369 6.86019C2.30299 7.25089 2.0835 7.7808 2.0835 8.33333C2.0835 8.88587 2.30299 9.41577 2.69369 9.80647C3.08439 10.1972 3.6143 10.4167 4.16683 10.4167C4.71936 10.4167 5.24927 10.6362 5.63997 11.0269C6.03067 11.4176 6.25016 11.9475 6.25016 12.5V27.0833C6.25016 28.7409 6.90864 30.3306 8.08075 31.5028C9.25285 32.6749 10.8426 33.3333 12.5002 33.3333H36.771C38.6245 33.3412 40.4278 32.7309 41.8955 31.599C43.3633 30.467 44.4118 28.878 44.8752 27.0833L47.9168 15.0833C47.9949 14.7758 48.0016 14.4546 47.9366 14.1441C47.8717 13.8336 47.7366 13.542 47.5418 13.2917C47.3392 13.0349 47.079 12.8294 46.7822 12.6918C46.4854 12.5543 46.1604 12.4886 45.8335 12.5ZM40.8335 26C40.6054 26.9245 40.0675 27.7429 39.3094 28.3191C38.5512 28.8953 37.6186 29.1944 36.6668 29.1667H12.5002C11.9476 29.1667 11.4177 28.9472 11.027 28.5565C10.6363 28.1658 10.4168 27.6359 10.4168 27.0833V16.6667H43.1668L40.8335 26Z" fill="#0D45DF"/>
</svg>
