<svg width="50" height="50" viewBox="0 0 50 50" fill="none" xmlns="http://www.w3.org/2000/svg">
<path d="M12.5 43.7501H37.5C39.1576 43.7501 40.7473 43.0916 41.9194 41.9195C43.0915 40.7474 43.75 39.1577 43.75 37.5001V12.5001C43.75 10.8425 43.0915 9.25277 41.9194 8.08066C40.7473 6.90856 39.1576 6.25008 37.5 6.25008H35.4167C35.4167 5.69755 35.1972 5.16764 34.8065 4.77694C34.4158 4.38624 33.8859 4.16675 33.3333 4.16675C32.7808 4.16675 32.2509 4.38624 31.8602 4.77694C31.4695 5.16764 31.25 5.69755 31.25 6.25008H18.75C18.75 5.69755 18.5305 5.16764 18.1398 4.77694C17.7491 4.38624 17.2192 4.16675 16.6667 4.16675C16.1141 4.16675 15.5842 4.38624 15.1935 4.77694C14.8028 5.16764 14.5833 5.69755 14.5833 6.25008H12.5C10.8424 6.25008 9.25269 6.90856 8.08058 8.08066C6.90848 9.25277 6.25 10.8425 6.25 12.5001V37.5001C6.25 39.1577 6.90848 40.7474 8.08058 41.9195C9.25269 43.0916 10.8424 43.7501 12.5 43.7501ZM10.4167 12.5001C10.4167 11.9475 10.6362 11.4176 11.0269 11.0269C11.4176 10.6362 11.9475 10.4167 12.5 10.4167H14.5833V12.5001C14.5833 13.0526 14.8028 13.5825 15.1935 13.9732C15.5842 14.3639 16.1141 14.5834 16.6667 14.5834C17.2192 14.5834 17.7491 14.3639 18.1398 13.9732C18.5305 13.5825 18.75 13.0526 18.75 12.5001V10.4167H31.25V12.5001C31.25 13.0526 31.4695 13.5825 31.8602 13.9732C32.2509 14.3639 32.7808 14.5834 33.3333 14.5834C33.8859 14.5834 34.4158 14.3639 34.8065 13.9732C35.1972 13.5825 35.4167 13.0526 35.4167 12.5001V10.4167H37.5C38.0525 10.4167 38.5824 10.6362 38.9731 11.0269C39.3638 11.4176 39.5833 11.9475 39.5833 12.5001V18.7501H10.4167V12.5001ZM10.4167 22.9167H39.5833V37.5001C39.5833 38.0526 39.3638 38.5825 38.9731 38.9732C38.5824 39.3639 38.0525 39.5834 37.5 39.5834H12.5C11.9475 39.5834 11.4176 39.3639 11.0269 38.9732C10.6362 38.5825 10.4167 38.0526 10.4167 37.5001V22.9167Z" fill="#0D45DF"/>
</svg>
