<svg width="50" height="50" viewBox="0 0 50 50" fill="none" xmlns="http://www.w3.org/2000/svg">
<path d="M25.0003 24.9996C26.1509 24.9996 27.0837 24.0668 27.0837 22.9162C27.0837 21.7656 26.1509 20.8329 25.0003 20.8329C23.8497 20.8329 22.917 21.7656 22.917 22.9162C22.917 24.0668 23.8497 24.9996 25.0003 24.9996Z" fill="#0D45DF"/>
<path d="M16.6663 24.9996C17.8169 24.9996 18.7497 24.0668 18.7497 22.9162C18.7497 21.7656 17.8169 20.8329 16.6663 20.8329C15.5157 20.8329 14.583 21.7656 14.583 22.9162C14.583 24.0668 15.5157 24.9996 16.6663 24.9996Z" fill="#0D45DF"/>
<path d="M33.3333 24.9996C34.4839 24.9996 35.4167 24.0668 35.4167 22.9162C35.4167 21.7656 34.4839 20.8329 33.3333 20.8329C32.1827 20.8329 31.25 21.7656 31.25 22.9162C31.25 24.0668 32.1827 24.9996 33.3333 24.9996Z" fill="#0D45DF"/>
<path d="M6.35416 45.5625C6.7902 45.7424 7.25747 45.8344 7.72916 45.8333C8.19434 45.8357 8.65527 45.7447 9.08468 45.5658C9.51409 45.3868 9.90325 45.1236 10.2292 44.7917L15.4375 39.5833H35.4167C38.1793 39.5833 40.8288 38.4859 42.7823 36.5324C44.7359 34.5789 45.8333 31.9293 45.8333 29.1667V16.6667C45.8333 13.904 44.7359 11.2545 42.7823 9.30097C40.8288 7.34747 38.1793 6.25 35.4167 6.25H14.5833C11.8207 6.25 9.17113 7.34747 7.21763 9.30097C5.26413 11.2545 4.16666 13.904 4.16666 16.6667V42.2708C4.16005 42.9754 4.365 43.6657 4.75497 44.2526C5.14495 44.8394 5.70203 45.2957 6.35416 45.5625ZM8.33332 16.6667C8.33332 15.0091 8.99181 13.4194 10.1639 12.2473C11.336 11.0751 12.9257 10.4167 14.5833 10.4167H35.4167C37.0743 10.4167 38.664 11.0751 39.8361 12.2473C41.0082 13.4194 41.6667 15.0091 41.6667 16.6667V29.1667C41.6667 30.8243 41.0082 32.414 39.8361 33.5861C38.664 34.7582 37.0743 35.4167 35.4167 35.4167H14.5833C14.3091 35.4151 14.0373 35.4676 13.7835 35.5713C13.5297 35.675 13.2988 35.8278 13.1042 36.0208L8.33332 40.8125V16.6667Z" fill="#0D45DF"/>
</svg>
