<svg width="50" height="50" viewBox="0 0 50 50" fill="none" xmlns="http://www.w3.org/2000/svg">
<path d="M25 18.75H29.1667C29.7192 18.75 30.2491 18.5305 30.6398 18.1398C31.0305 17.7491 31.25 17.2192 31.25 16.6667C31.25 16.1141 31.0305 15.5842 30.6398 15.1935C30.2491 14.8028 29.7192 14.5833 29.1667 14.5833H27.0833C27.0833 14.0308 26.8638 13.5009 26.4731 13.1102C26.0824 12.7195 25.5525 12.5 25 12.5C24.4475 12.5 23.9176 12.7195 23.5269 13.1102C23.1362 13.5009 22.9167 14.0308 22.9167 14.5833V14.9583C21.5388 15.4583 20.3805 16.4266 19.6442 17.694C18.9079 18.9614 18.6405 20.4473 18.8888 21.8919C19.137 23.3365 19.885 24.6479 21.0021 25.5968C22.1192 26.5458 23.5343 27.072 25 27.0833C25.5525 27.0833 26.0824 27.3028 26.4731 27.6935C26.8638 28.0842 27.0833 28.6141 27.0833 29.1667C27.0833 29.7192 26.8638 30.2491 26.4731 30.6398C26.0824 31.0305 25.5525 31.25 25 31.25H20.8333C20.2808 31.25 19.7509 31.4695 19.3602 31.8602C18.9695 32.2509 18.75 32.7808 18.75 33.3333C18.75 33.8859 18.9695 34.4158 19.3602 34.8065C19.7509 35.1972 20.2808 35.4167 20.8333 35.4167H22.9167C22.9167 35.9692 23.1362 36.4991 23.5269 36.8898C23.9176 37.2805 24.4475 37.5 25 37.5C25.5525 37.5 26.0824 37.2805 26.4731 36.8898C26.8638 36.4991 27.0833 35.9692 27.0833 35.4167V35.0417C28.4612 34.5417 29.6195 33.5734 30.3558 32.306C31.0921 31.0386 31.3595 29.5527 31.1112 28.1081C30.863 26.6635 30.115 25.3521 28.9979 24.4032C27.8808 23.4542 26.4657 22.928 25 22.9167C24.4475 22.9167 23.9176 22.6972 23.5269 22.3065C23.1362 21.9158 22.9167 21.3859 22.9167 20.8333C22.9167 20.2808 23.1362 19.7509 23.5269 19.3602C23.9176 18.9695 24.4475 18.75 25 18.75Z" fill="#0D45DF"/>
<path d="M24.9998 4.16675C20.8794 4.16675 16.8515 5.3886 13.4255 7.6778C9.99944 9.96699 7.32918 13.2207 5.75236 17.0275C4.17553 20.8343 3.76296 25.0232 4.56682 29.0645C5.37068 33.1057 7.35486 36.8179 10.2685 39.7315C13.182 42.6451 16.8942 44.6292 20.9355 45.4331C24.9767 46.237 29.1656 45.8244 32.9724 44.2476C36.7792 42.6707 40.0329 40.0005 42.3221 36.5745C44.6113 33.1484 45.8332 29.1205 45.8332 25.0001C45.8332 22.2642 45.2943 19.5551 44.2473 17.0275C43.2004 14.4999 41.6658 12.2032 39.7312 10.2687C37.7967 8.33414 35.5 6.79956 32.9724 5.75259C30.4448 4.70562 27.7357 4.16675 24.9998 4.16675ZM24.9998 41.6667C21.7035 41.6667 18.4812 40.6893 15.7403 38.8579C12.9995 37.0266 10.8633 34.4236 9.60185 31.3781C8.34039 28.3327 8.01034 24.9816 8.65343 21.7486C9.29651 18.5156 10.8839 15.5458 13.2147 13.215C15.5456 10.8841 18.5153 9.29675 21.7483 8.65366C24.9814 8.01057 28.3325 8.34063 31.3779 9.60209C34.4233 10.8635 37.0263 12.9998 38.8577 15.7406C40.689 18.4814 41.6665 21.7037 41.6665 25.0001C41.6665 29.4204 39.9106 33.6596 36.785 36.7852C33.6594 39.9108 29.4201 41.6667 24.9998 41.6667Z" fill="#0D45DF"/>
</svg>
