<svg width="50" height="50" viewBox="0 0 50 50" fill="none" xmlns="http://www.w3.org/2000/svg">
<path d="M43.7498 39.5833H6.24984C5.6973 39.5833 5.1674 39.8027 4.7767 40.1934C4.386 40.5841 4.1665 41.1141 4.1665 41.6666C4.1665 42.2191 4.386 42.749 4.7767 43.1397C5.1674 43.5304 5.6973 43.7499 6.24984 43.7499H43.7498C44.3024 43.7499 44.8323 43.5304 45.223 43.1397C45.6137 42.749 45.8332 42.2191 45.8332 41.6666C45.8332 41.1141 45.6137 40.5841 45.223 40.1934C44.8323 39.8027 44.3024 39.5833 43.7498 39.5833Z" fill="#0D45DF"/>
<path d="M25.0002 4.16675C24.4477 4.16675 23.9178 4.38624 23.5271 4.77694C23.1364 5.16764 22.9169 5.69755 22.9169 6.25008V28.3126L16.0627 21.4376C15.6704 21.0453 15.1384 20.8249 14.5836 20.8249C14.0288 20.8249 13.4967 21.0453 13.1044 21.4376C12.7121 21.8299 12.4917 22.362 12.4917 22.9167C12.4917 23.4715 12.7121 24.0036 13.1044 24.3959L23.5211 34.8126C23.7147 35.0078 23.9451 35.1628 24.199 35.2686C24.4529 35.3744 24.7252 35.4288 25.0002 35.4288C25.2752 35.4288 25.5476 35.3744 25.8014 35.2686C26.0553 35.1628 26.2857 35.0078 26.4794 34.8126L36.896 24.3959C37.0903 24.2017 37.2444 23.9711 37.3495 23.7173C37.4546 23.4635 37.5087 23.1915 37.5087 22.9167C37.5087 22.642 37.4546 22.37 37.3495 22.1162C37.2444 21.8624 37.0903 21.6318 36.896 21.4376C36.7018 21.2433 36.4712 21.0893 36.2174 20.9841C35.9636 20.879 35.6916 20.8249 35.4169 20.8249C35.1422 20.8249 34.8702 20.879 34.6164 20.9841C34.3626 21.0893 34.132 21.2433 33.9377 21.4376L27.0836 28.3126V6.25008C27.0836 5.69755 26.8641 5.16764 26.4734 4.77694C26.0827 4.38624 25.5528 4.16675 25.0002 4.16675Z" fill="#0D45DF"/>
</svg>
