<svg width="50" height="50" viewBox="0 0 50 50" fill="none" xmlns="http://www.w3.org/2000/svg">
<path d="M14.5835 25.0005V33.3338C14.5835 33.8863 14.803 34.4162 15.1937 34.8069C15.5844 35.1976 16.1143 35.4171 16.6669 35.4171H25.0002C25.2744 35.4187 25.5462 35.3662 25.8 35.2625C26.0538 35.1588 26.2847 35.006 26.4794 34.8129L41.6669 19.6463C42.9977 18.2974 43.7438 16.4787 43.7438 14.5838C43.7438 12.6889 42.9977 10.8702 41.6669 9.52128L40.4794 8.33378C39.1105 7.0416 37.2993 6.32178 35.4169 6.32178C33.5344 6.32178 31.7232 7.0416 30.3544 8.33378L15.1877 23.5213C14.9946 23.716 14.8419 23.9468 14.7382 24.2006C14.6345 24.4545 14.5819 24.7263 14.5835 25.0005ZM18.7502 25.8546L33.3335 11.2713C33.8976 10.741 34.6427 10.4458 35.4169 10.4458C36.1911 10.4458 36.9361 10.741 37.5002 11.2713L38.6669 12.4379C39.2165 12.992 39.5249 13.7409 39.5249 14.5213C39.5249 15.3017 39.2165 16.0505 38.6669 16.6046L24.0835 31.188H18.7502V25.8546Z" fill="#0D45DF"/>
<path d="M41.6667 25C41.1141 25 40.5842 25.2195 40.1935 25.6102C39.8028 26.0009 39.5833 26.5308 39.5833 27.0833V37.5C39.5833 38.0525 39.3638 38.5824 38.9731 38.9731C38.5824 39.3638 38.0525 39.5833 37.5 39.5833H12.5C11.9475 39.5833 11.4176 39.3638 11.0269 38.9731C10.6362 38.5824 10.4167 38.0525 10.4167 37.5V12.5C10.4167 11.9475 10.6362 11.4176 11.0269 11.0269C11.4176 10.6362 11.9475 10.4167 12.5 10.4167H22.9167C23.4692 10.4167 23.9991 10.1972 24.3898 9.80647C24.7805 9.41577 25 8.88587 25 8.33333C25 7.7808 24.7805 7.25089 24.3898 6.86019C23.9991 6.46949 23.4692 6.25 22.9167 6.25H12.5C10.8424 6.25 9.25269 6.90848 8.08058 8.08058C6.90848 9.25269 6.25 10.8424 6.25 12.5V37.5C6.25 39.1576 6.90848 40.7473 8.08058 41.9194C9.25269 43.0915 10.8424 43.75 12.5 43.75H37.5C39.1576 43.75 40.7473 43.0915 41.9194 41.9194C43.0915 40.7473 43.75 39.1576 43.75 37.5V27.0833C43.75 26.5308 43.5305 26.0009 43.1398 25.6102C42.7491 25.2195 42.2192 25 41.6667 25Z" fill="#0D45DF"/>
</svg>
