<svg width="50" height="50" viewBox="0 0 50 50" fill="none" xmlns="http://www.w3.org/2000/svg">
<path d="M8.93705 41.0624C9.13072 41.2577 9.36114 41.4127 9.61501 41.5184C9.86889 41.6242 10.1412 41.6786 10.4162 41.6786C10.6912 41.6786 10.9635 41.6242 11.2174 41.5184C11.4713 41.4127 11.7017 41.2577 11.8954 41.0624L24.9995 27.9374L38.1037 41.0624C38.2974 41.2577 38.5278 41.4127 38.7817 41.5184C39.0356 41.6242 39.3079 41.6786 39.5829 41.6786C39.8579 41.6786 40.1302 41.6242 40.3841 41.5184C40.638 41.4127 40.8684 41.2577 41.062 41.0624C41.2573 40.8687 41.4123 40.6383 41.5181 40.3844C41.6238 40.1306 41.6783 39.8583 41.6783 39.5832C41.6783 39.3082 41.6238 39.0359 41.5181 38.782C41.4123 38.5282 41.2573 38.2977 41.062 38.1041L27.937 24.9999L41.062 11.8957C41.4543 11.5034 41.6747 10.9714 41.6747 10.4166C41.6747 9.86177 41.4543 9.3297 41.062 8.9374C40.6698 8.5451 40.1377 8.32471 39.5829 8.32471C39.0281 8.32471 38.496 8.5451 38.1037 8.9374L24.9995 22.0624L11.8954 8.9374C11.5031 8.5451 10.971 8.32471 10.4162 8.32471C9.86142 8.32471 9.32935 8.5451 8.93705 8.9374C8.54475 9.3297 8.32436 9.86177 8.32436 10.4166C8.32436 10.9714 8.54475 11.5034 8.93705 11.8957L22.062 24.9999L8.93705 38.1041C8.74178 38.2977 8.58679 38.5282 8.48102 38.782C8.37526 39.0359 8.3208 39.3082 8.3208 39.5832C8.3208 39.8583 8.37526 40.1306 8.48102 40.3844C8.58679 40.6383 8.74178 40.8687 8.93705 41.0624Z" fill="#0D45DF"/>
</svg>
