<svg width="50" height="50" viewBox="0 0 50 50" fill="none" xmlns="http://www.w3.org/2000/svg">
<path d="M6.25 18.75C6.25 19.3025 6.46949 19.8324 6.86019 20.2231C7.25089 20.6138 7.7808 20.8333 8.33333 20.8333C8.88587 20.8333 9.41577 20.6138 9.80647 20.2231C10.1972 19.8324 10.4167 19.3025 10.4167 18.75V12.5C10.4167 11.9475 10.6362 11.4176 11.0269 11.0269C11.4176 10.6362 11.9475 10.4167 12.5 10.4167H18.75C19.3025 10.4167 19.8324 10.1972 20.2231 9.80647C20.6138 9.41577 20.8333 8.88587 20.8333 8.33333C20.8333 7.7808 20.6138 7.25089 20.2231 6.86019C19.8324 6.46949 19.3025 6.25 18.75 6.25H12.5C10.8424 6.25 9.25269 6.90848 8.08058 8.08058C6.90848 9.25269 6.25 10.8424 6.25 12.5V18.75Z" fill="#0D45DF"/>
<path d="M43.7498 12.5C43.7498 10.8424 43.0914 9.25269 41.9193 8.08058C40.7472 6.90848 39.1574 6.25 37.4998 6.25H31.2498C30.6973 6.25 30.1674 6.46949 29.7767 6.86019C29.386 7.25089 29.1665 7.7808 29.1665 8.33333C29.1665 8.88587 29.386 9.41577 29.7767 9.80647C30.1674 10.1972 30.6973 10.4167 31.2498 10.4167H37.4998C38.0524 10.4167 38.5823 10.6362 38.973 11.0269C39.3637 11.4176 39.5832 11.9475 39.5832 12.5V18.75C39.5832 19.3025 39.8027 19.8324 40.1934 20.2231C40.5841 20.6138 41.114 20.8333 41.6665 20.8333C42.219 20.8333 42.7489 20.6138 43.1396 20.2231C43.5303 19.8324 43.7498 19.3025 43.7498 18.75V12.5Z" fill="#0D45DF"/>
<path d="M6.25 37.5C6.25 39.1576 6.90848 40.7473 8.08058 41.9194C9.25269 43.0915 10.8424 43.75 12.5 43.75H18.75C19.3025 43.75 19.8324 43.5305 20.2231 43.1398C20.6138 42.7491 20.8333 42.2192 20.8333 41.6666C20.8333 41.1141 20.6138 40.5842 20.2231 40.1935C19.8324 39.8028 19.3025 39.5833 18.75 39.5833H12.5C11.9475 39.5833 11.4176 39.3638 11.0269 38.9731C10.6362 38.5824 10.4167 38.0525 10.4167 37.5V31.25C10.4167 30.6974 10.1972 30.1675 9.80647 29.7768C9.41577 29.3861 8.88587 29.1666 8.33333 29.1666C7.7808 29.1666 7.25089 29.3861 6.86019 29.7768C6.46949 30.1675 6.25 30.6974 6.25 31.25V37.5Z" fill="#0D45DF"/>
<path d="M41.6665 29.1666C41.114 29.1666 40.5841 29.3861 40.1934 29.7768C39.8027 30.1675 39.5832 30.6974 39.5832 31.25V37.5C39.5832 38.0525 39.3637 38.5824 38.973 38.9731C38.5823 39.3638 38.0524 39.5833 37.4998 39.5833H31.2498C30.6973 39.5833 30.1674 39.8028 29.7767 40.1935C29.386 40.5842 29.1665 41.1141 29.1665 41.6666C29.1665 42.2192 29.386 42.7491 29.7767 43.1398C30.1674 43.5305 30.6973 43.75 31.2498 43.75H37.4998C39.1574 43.75 40.7472 43.0915 41.9193 41.9194C43.0914 40.7473 43.7498 39.1576 43.7498 37.5V31.25C43.7498 30.6974 43.5303 30.1675 43.1396 29.7768C42.7489 29.3861 42.219 29.1666 41.6665 29.1666Z" fill="#0D45DF"/>
</svg>
