<svg width="50" height="50" viewBox="0 0 50 50" fill="none" xmlns="http://www.w3.org/2000/svg">
<path d="M22.3123 27.6879C22.1187 27.4926 21.8882 27.3376 21.6344 27.2319C21.3805 27.1261 21.1082 27.0717 20.8332 27.0717C20.5581 27.0717 20.2858 27.1261 20.032 27.2319C19.7781 27.3376 19.5477 27.4926 19.354 27.6879L8.33317 38.7296V29.1671C8.33317 28.6145 8.11368 28.0846 7.72298 27.6939C7.33228 27.3032 6.80237 27.0837 6.24984 27.0837C5.6973 27.0837 5.1674 27.3032 4.7767 27.6939C4.386 28.0846 4.1665 28.6145 4.1665 29.1671V43.7504C4.1665 44.3029 4.386 44.8328 4.7767 45.2235C5.1674 45.6142 5.6973 45.8337 6.24984 45.8337H20.8332C21.3857 45.8337 21.9156 45.6142 22.3063 45.2235C22.697 44.8328 22.9165 44.3029 22.9165 43.7504C22.9165 43.1979 22.697 42.668 22.3063 42.2773C21.9156 41.8866 21.3857 41.6671 20.8332 41.6671H11.2707L22.3123 30.6462C22.5076 30.4526 22.6626 30.2221 22.7684 29.9683C22.8741 29.7144 22.9286 29.4421 22.9286 29.1671C22.9286 28.892 22.8741 28.6197 22.7684 28.3659C22.6626 28.112 22.5076 27.8816 22.3123 27.6879Z" fill="#0D45DF"/>
<path d="M43.75 4.16663H29.1667C28.6142 4.16663 28.0843 4.38612 27.6936 4.77682C27.3029 5.16752 27.0834 5.69742 27.0834 6.24996C27.0834 6.80249 27.3029 7.3324 27.6936 7.7231C28.0843 8.1138 28.6142 8.33329 29.1667 8.33329H38.7292L27.6875 19.3541C27.4923 19.5478 27.3373 19.7782 27.2315 20.0321C27.1257 20.286 27.0713 20.5583 27.0713 20.8333C27.0713 21.1083 27.1257 21.3806 27.2315 21.6345C27.3373 21.8884 27.4923 22.1188 27.6875 22.3125C27.8812 22.5077 28.1116 22.6627 28.3655 22.7685C28.6194 22.8742 28.8917 22.9287 29.1667 22.9287C29.4417 22.9287 29.714 22.8742 29.9679 22.7685C30.2218 22.6627 30.4522 22.5077 30.6459 22.3125L41.6667 11.2708V20.8333C41.6667 21.3858 41.8862 21.9157 42.2769 22.3064C42.6676 22.6971 43.1975 22.9166 43.75 22.9166C44.3026 22.9166 44.8325 22.6971 45.2232 22.3064C45.6139 21.9157 45.8334 21.3858 45.8334 20.8333V6.24996C45.8334 5.69742 45.6139 5.16752 45.2232 4.77682C44.8325 4.38612 44.3026 4.16663 43.75 4.16663Z" fill="#0D45DF"/>
</svg>
