<svg width="50" height="50" viewBox="0 0 50 50" fill="none" xmlns="http://www.w3.org/2000/svg">
<path d="M26.3543 4.66663C25.9769 4.34391 25.4967 4.16659 25.0002 4.16663H10.4168C9.8643 4.16663 9.33439 4.38612 8.94369 4.77682C8.55299 5.16752 8.3335 5.69743 8.3335 6.24996V43.75C8.3335 44.3025 8.55299 44.8324 8.94369 45.2231C9.33439 45.6138 9.8643 45.8333 10.4168 45.8333H39.5835C40.136 45.8333 40.6659 45.6138 41.0566 45.2231C41.4473 44.8324 41.6668 44.3025 41.6668 43.75V18.75C41.6668 18.449 41.6017 18.1517 41.4758 17.8784C41.3499 17.605 41.1663 17.3622 40.9377 17.1666L26.3543 4.66663ZM27.0835 10.7708L33.9585 16.6666H27.0835V10.7708ZM37.5002 41.6666H12.5002V8.33329H22.9168V18.75C22.9168 19.3025 23.1363 19.8324 23.527 20.2231C23.9177 20.6138 24.4476 20.8333 25.0002 20.8333H37.5002V41.6666Z" fill="#0D45DF"/>
</svg>
