<svg width="50" height="50" viewBox="0 0 50 50" fill="none" xmlns="http://www.w3.org/2000/svg">
<path d="M6.25 16.6661V41.6661C6.25 42.2186 6.46949 42.7485 6.86019 43.1392C7.25089 43.5299 7.7808 43.7494 8.33333 43.7494H18.75C19.3025 43.7494 19.8324 43.5299 20.2231 43.1392C20.6138 42.7485 20.8333 42.2186 20.8333 41.6661V27.0828H29.1667V41.6661C29.1667 42.2186 29.3862 42.7485 29.7769 43.1392C30.1676 43.5299 30.6975 43.7494 31.25 43.7494H41.6667C42.2192 43.7494 42.7491 43.5299 43.1398 43.1392C43.5305 42.7485 43.75 42.2186 43.75 41.6661V16.6661C43.75 16.3427 43.6747 16.0237 43.5301 15.7344C43.3854 15.4451 43.1754 15.1935 42.9167 14.9994L26.25 2.49943C25.8894 2.22897 25.4508 2.08276 25 2.08276C24.5492 2.08276 24.1106 2.22897 23.75 2.49943L7.08333 14.9994C6.82459 15.1935 6.61458 15.4451 6.46994 15.7344C6.3253 16.0237 6.25 16.3427 6.25 16.6661ZM10.4167 17.7078L25 6.77026L39.5833 17.7078V39.5828H33.3333V24.9994C33.3333 24.4469 33.1138 23.917 32.7231 23.5263C32.3324 23.1356 31.8025 22.9161 31.25 22.9161H18.75C18.1975 22.9161 17.6676 23.1356 17.2769 23.5263C16.8862 23.917 16.6667 24.4469 16.6667 24.9994V39.5828H10.4167V17.7078Z" fill="#0D45DF"/>
</svg>
