<svg width="50" height="50" viewBox="0 0 50 50" fill="none" xmlns="http://www.w3.org/2000/svg">
<path d="M8.33333 22.9167H20.8333C21.3859 22.9167 21.9158 22.6972 22.3065 22.3065C22.6972 21.9158 22.9167 21.3859 22.9167 20.8333V8.33333C22.9167 7.7808 22.6972 7.25089 22.3065 6.86019C21.9158 6.46949 21.3859 6.25 20.8333 6.25H8.33333C7.7808 6.25 7.25089 6.46949 6.86019 6.86019C6.46949 7.25089 6.25 7.7808 6.25 8.33333V20.8333C6.25 21.3859 6.46949 21.9158 6.86019 22.3065C7.25089 22.6972 7.7808 22.9167 8.33333 22.9167ZM10.4167 10.4167H18.75V18.75H10.4167V10.4167Z" fill="#0D45DF"/>
<path d="M29.1668 22.9167H41.6668C42.2194 22.9167 42.7493 22.6972 43.14 22.3065C43.5307 21.9158 43.7502 21.3859 43.7502 20.8333V8.33333C43.7502 7.7808 43.5307 7.25089 43.14 6.86019C42.7493 6.46949 42.2194 6.25 41.6668 6.25H29.1668C28.6143 6.25 28.0844 6.46949 27.6937 6.86019C27.303 7.25089 27.0835 7.7808 27.0835 8.33333V20.8333C27.0835 21.3859 27.303 21.9158 27.6937 22.3065C28.0844 22.6972 28.6143 22.9167 29.1668 22.9167ZM31.2502 10.4167H39.5835V18.75H31.2502V10.4167Z" fill="#0D45DF"/>
<path d="M8.33333 43.75H20.8333C21.3859 43.75 21.9158 43.5305 22.3065 43.1398C22.6972 42.7491 22.9167 42.2192 22.9167 41.6667V29.1667C22.9167 28.6142 22.6972 28.0843 22.3065 27.6936C21.9158 27.3029 21.3859 27.0834 20.8333 27.0834H8.33333C7.7808 27.0834 7.25089 27.3029 6.86019 27.6936C6.46949 28.0843 6.25 28.6142 6.25 29.1667V41.6667C6.25 42.2192 6.46949 42.7491 6.86019 43.1398C7.25089 43.5305 7.7808 43.75 8.33333 43.75ZM10.4167 31.25H18.75V39.5834H10.4167V31.25Z" fill="#0D45DF"/>
<path d="M29.1668 43.75H41.6668C42.2194 43.75 42.7493 43.5305 43.14 43.1398C43.5307 42.7491 43.7502 42.2192 43.7502 41.6667V29.1667C43.7502 28.6142 43.5307 28.0843 43.14 27.6936C42.7493 27.3029 42.2194 27.0834 41.6668 27.0834H29.1668C28.6143 27.0834 28.0844 27.3029 27.6937 27.6936C27.303 28.0843 27.0835 28.6142 27.0835 29.1667V41.6667C27.0835 42.2192 27.303 42.7491 27.6937 43.1398C28.0844 43.5305 28.6143 43.75 29.1668 43.75ZM31.2502 31.25H39.5835V39.5834H31.2502V31.25Z" fill="#0D45DF"/>
</svg>
