<svg width="50" height="50" viewBox="0 0 50 50" fill="none" xmlns="http://www.w3.org/2000/svg">
<path d="M29.1665 6.24955C28.8923 6.24796 28.6205 6.30051 28.3667 6.40419C28.1129 6.50787 27.882 6.66063 27.6873 6.85371L24.1457 10.4162H6.24984C5.6973 10.4162 5.1674 10.6357 4.7767 11.0264C4.386 11.4171 4.1665 11.947 4.1665 12.4995V41.6662C4.1665 42.2188 4.386 42.7487 4.7767 43.1394C5.1674 43.5301 5.6973 43.7495 6.24984 43.7495H43.7498C44.3024 43.7495 44.8323 43.5301 45.223 43.1394C45.6137 42.7487 45.8332 42.2188 45.8332 41.6662V8.33288C45.8332 7.78035 45.6137 7.25044 45.223 6.85974C44.8323 6.46904 44.3024 6.24955 43.7498 6.24955H29.1665ZM41.6665 39.5829H8.33317V14.5829H24.9998C25.274 14.5845 25.5458 14.5319 25.7996 14.4282C26.0535 14.3246 26.2843 14.1718 26.479 13.9787L30.0207 10.4162H41.6665V39.5829Z" fill="#0D45DF"/>
</svg>
