<svg width="50" height="50" viewBox="0 0 50 50" fill="none" xmlns="http://www.w3.org/2000/svg">
<path d="M24.9998 14.5833C23.7498 14.5833 22.9165 15.4166 22.9165 16.6666C22.9165 17.9166 23.7498 18.7499 24.9998 18.7499C26.2498 18.7499 27.0832 17.9166 27.0832 16.6666C27.0832 15.4166 26.2498 14.5833 24.9998 14.5833Z" fill="#0D45DF"/>
<path d="M24.9998 4.16663C13.5415 4.16663 4.1665 13.5416 4.1665 25C4.1665 36.4583 13.5415 45.8333 24.9998 45.8333C36.4582 45.8333 45.8332 36.4583 45.8332 25C45.8332 13.5416 36.4582 4.16663 24.9998 4.16663ZM24.9998 41.6666C15.8332 41.6666 8.33317 34.1666 8.33317 25C8.33317 15.8333 15.8332 8.33329 24.9998 8.33329C34.1665 8.33329 41.6665 15.8333 41.6665 25C41.6665 34.1666 34.1665 41.6666 24.9998 41.6666Z" fill="#0D45DF"/>
<path d="M24.9998 20.8333C23.7498 20.8333 22.9165 21.6666 22.9165 22.9166V33.3332C22.9165 34.5832 23.7498 35.4166 24.9998 35.4166C26.2498 35.4166 27.0832 34.5832 27.0832 33.3332V22.9166C27.0832 21.6666 26.2498 20.8333 24.9998 20.8333Z" fill="#0D45DF"/>
</svg>
