<svg width="50" height="50" viewBox="0 0 50 50" fill="none" xmlns="http://www.w3.org/2000/svg">
<path d="M25.0002 14.5833C27.3013 14.5833 29.1668 12.7179 29.1668 10.4167C29.1668 8.11548 27.3013 6.25 25.0002 6.25C22.699 6.25 20.8335 8.11548 20.8335 10.4167C20.8335 12.7179 22.699 14.5833 25.0002 14.5833Z" fill="#0D45DF"/>
<path d="M25.0002 29.1667C27.3013 29.1667 29.1668 27.3012 29.1668 25C29.1668 22.6989 27.3013 20.8334 25.0002 20.8334C22.699 20.8334 20.8335 22.6989 20.8335 25C20.8335 27.3012 22.699 29.1667 25.0002 29.1667Z" fill="#0D45DF"/>
<path d="M25.0002 43.75C27.3013 43.75 29.1668 41.8845 29.1668 39.5833C29.1668 37.2821 27.3013 35.4166 25.0002 35.4166C22.699 35.4166 20.8335 37.2821 20.8335 39.5833C20.8335 41.8845 22.699 43.75 25.0002 43.75Z" fill="#0D45DF"/>
</svg>
