<svg width="50" height="50" viewBox="0 0 50 50" fill="none" xmlns="http://www.w3.org/2000/svg">
<path d="M25.0002 39.5833H27.2293C27.7819 39.5446 28.2964 39.288 28.6598 38.8699C29.0231 38.4519 29.2055 37.9066 29.1668 37.3541C29.1282 36.8016 28.8716 36.287 28.4535 35.9237C28.0355 35.5603 27.4902 35.3779 26.9377 35.4166C26.3127 35.4166 25.6668 35.4166 25.0002 35.4166C12.1043 35.4166 7.50017 27.4166 6.41684 24.9999C7.25834 23.2217 8.40803 21.6065 9.81267 20.2291C10.205 19.8368 10.4254 19.3047 10.4254 18.7499C10.4254 18.1951 10.205 17.6631 9.81267 17.2708C9.42037 16.8785 8.8883 16.6581 8.33351 16.6581C7.77871 16.6581 7.24664 16.8785 6.85434 17.2708C4.81616 19.2679 3.2255 21.6752 2.18767 24.3333C2.04161 24.7657 2.04161 25.2342 2.18767 25.6666C2.37517 26.2291 7.04184 39.5833 25.0002 39.5833Z" fill="#0D45DF"/>
<path d="M47.9169 24.3337C47.6252 23.7712 42.9586 10.417 25.0002 10.417C21.6118 10.3827 18.2451 10.9615 15.0627 12.1253L9.81272 6.85451C9.42042 6.46221 8.88835 6.24182 8.33356 6.24182C7.77876 6.24182 7.24669 6.46221 6.85439 6.85451C6.46209 7.24681 6.2417 7.77888 6.2417 8.33368C6.2417 8.88847 6.46209 9.42055 6.85439 9.81285L40.1877 43.1462C40.3814 43.3414 40.6118 43.4964 40.8657 43.6022C41.1196 43.708 41.3919 43.7624 41.6669 43.7624C41.9419 43.7624 42.2142 43.708 42.4681 43.6022C42.722 43.4964 42.9524 43.3414 43.1461 43.1462C43.3413 42.9525 43.4963 42.7221 43.6021 42.4682C43.7079 42.2143 43.7623 41.942 43.7623 41.667C43.7623 41.392 43.7079 41.1197 43.6021 40.8658C43.4963 40.6119 43.3413 40.3815 43.1461 40.1879L38.9794 36.0212C43.0054 33.6226 46.1256 29.9604 47.8544 25.6045C48.0072 25.1978 48.0291 24.7534 47.9169 24.3337ZM29.1669 26.0628L24.0836 20.9795C24.383 20.8984 24.6903 20.8495 25.0002 20.8337C26.1053 20.8337 27.1651 21.2727 27.9465 22.0541C28.7279 22.8355 29.1669 23.8953 29.1669 25.0003C29.1622 25.3592 29.1133 25.716 29.0211 26.0628H29.1669ZM36.0211 32.917L32.1669 29.167C33.0475 27.5838 33.3882 25.7567 33.1374 23.9625C32.8866 22.1683 32.0579 20.5047 30.7769 19.2237C29.4959 17.9427 27.8323 17.114 26.038 16.8632C24.2438 16.6123 22.4168 16.953 20.8336 17.8337L18.3752 15.417C20.538 14.8529 22.7651 14.5727 25.0002 14.5837C37.8961 14.5837 42.5002 22.5837 43.5836 25.0003C41.9365 28.4024 39.2322 31.1798 35.8752 32.917H36.0211Z" fill="#0D45DF"/>
<path d="M22.2292 33.2086C22.4497 33.2887 22.6821 33.331 22.9167 33.3336C23.3474 33.3319 23.7669 33.1968 24.1176 32.9468C24.4683 32.6969 24.7329 32.3444 24.875 31.9378C25.0552 31.4183 25.0227 30.8487 24.7847 30.3531C24.5466 29.8575 24.1223 29.4761 23.6042 29.292C22.3009 28.7373 21.2631 27.6994 20.7084 26.3961C20.6367 26.1164 20.5076 25.8546 20.3293 25.6274C20.151 25.4002 19.9275 25.2125 19.6728 25.0763C19.4182 24.9401 19.138 24.8584 18.85 24.8362C18.5621 24.8141 18.2727 24.852 18.0002 24.9477C17.7277 25.0434 17.4781 25.1946 17.2671 25.3919C17.0562 25.5892 16.8886 25.8281 16.775 26.0936C16.6614 26.3591 16.6042 26.6454 16.607 26.9342C16.6099 27.2229 16.6728 27.508 16.7917 27.7711C17.269 29.0064 17.9993 30.1283 18.9357 31.0647C19.8721 32.0011 20.9939 32.7314 22.2292 33.2086Z" fill="#0D45DF"/>
</svg>
