<svg width="50" height="50" viewBox="0 0 50 50" fill="none" xmlns="http://www.w3.org/2000/svg">
<path d="M43.7497 22.9166H11.2705L22.3122 11.8957C22.7045 11.5034 22.9249 10.9714 22.9249 10.4166C22.9249 9.86177 22.7045 9.3297 22.3122 8.9374C21.9199 8.5451 21.3878 8.32471 20.833 8.32471C20.2782 8.32471 19.7462 8.5451 19.3539 8.9374L4.77054 23.5207C4.57528 23.7144 4.42029 23.9448 4.31452 24.1987C4.20875 24.4526 4.1543 24.7249 4.1543 24.9999C4.1543 25.2749 4.20875 25.5472 4.31452 25.8011C4.42029 26.055 4.57528 26.2854 4.77054 26.4791L19.3539 41.0624C19.5475 41.2577 19.778 41.4127 20.0318 41.5184C20.2857 41.6242 20.558 41.6786 20.833 41.6786C21.1081 41.6786 21.3804 41.6242 21.6342 41.5184C21.8881 41.4127 22.1185 41.2577 22.3122 41.0624C22.5075 40.8687 22.6625 40.6383 22.7682 40.3844C22.874 40.1306 22.9285 39.8583 22.9285 39.5832C22.9285 39.3082 22.874 39.0359 22.7682 38.782C22.6625 38.5282 22.5075 38.2977 22.3122 38.1041L11.2705 27.0832H43.7497C44.3022 27.0832 44.8321 26.8637 45.2229 26.473C45.6135 26.0823 45.833 25.5524 45.833 24.9999C45.833 24.4474 45.6135 23.9175 45.2229 23.5268C44.8321 23.1361 44.3022 22.9166 43.7497 22.9166Z" fill="#0D45DF"/>
</svg>
