<svg width="50" height="50" viewBox="0 0 50 50" fill="none" xmlns="http://www.w3.org/2000/svg">
<path d="M39.5832 6.25H10.4165C6.87484 6.25 4.1665 8.95833 4.1665 12.5V37.5C4.1665 41.0417 6.87484 43.75 10.4165 43.75H39.5832C43.1248 43.75 45.8332 41.0417 45.8332 37.5V12.5C45.8332 8.95833 43.1248 6.25 39.5832 6.25ZM39.5832 10.4167C39.9998 10.4167 40.2082 10.625 40.4165 10.625L24.9998 26.25L9.37484 10.625C9.7915 10.625 9.99984 10.4167 10.4165 10.4167H39.5832ZM41.6665 37.5C41.6665 38.75 40.8332 39.5833 39.5832 39.5833H10.4165C9.1665 39.5833 8.33317 38.75 8.33317 37.5V15.4167L23.5415 30.625C24.3748 31.4583 25.6248 31.4583 26.4582 30.625L41.6665 15.4167V37.5Z" fill="#0D45DF"/>
</svg>
