<svg width="50" height="50" viewBox="0 0 50 50" fill="none" xmlns="http://www.w3.org/2000/svg">
<path d="M25.0002 4.16663H10.4168C9.8643 4.16663 9.33439 4.38612 8.94369 4.77682C8.55299 5.16752 8.3335 5.69743 8.3335 6.24996V43.75C8.3335 44.3025 8.55299 44.8324 8.94369 45.2231C9.33439 45.6138 9.8643 45.8333 10.4168 45.8333H39.5835C40.136 45.8333 40.6659 45.6138 41.0566 45.2231C41.4473 44.8324 41.6668 44.3025 41.6668 43.75V18.75C41.6668 18.449 41.6017 18.1517 41.4758 17.8784C41.3499 17.605 41.1663 17.3622 40.9377 17.1666L26.3543 4.66663C25.9769 4.34391 25.4967 4.16659 25.0002 4.16663ZM37.5002 41.6666H12.5002V8.33329H22.9168V18.75C22.9168 19.3025 23.1363 19.8324 23.527 20.2231C23.9177 20.6138 24.4476 20.8333 25.0002 20.8333H37.5002V41.6666ZM27.0835 10.7708L33.9585 16.6666H27.0835V10.7708Z" fill="#0D45DF"/>
<path d="M22.9167 27.0833V29.1667H20.8333C20.2808 29.1667 19.7509 29.3862 19.3602 29.7769C18.9695 30.1676 18.75 30.6975 18.75 31.25C18.75 31.8025 18.9695 32.3324 19.3602 32.7231C19.7509 33.1138 20.2808 33.3333 20.8333 33.3333H22.9167V35.4167C22.9167 35.9692 23.1362 36.4991 23.5269 36.8898C23.9176 37.2805 24.4475 37.5 25 37.5C25.5525 37.5 26.0824 37.2805 26.4731 36.8898C26.8638 36.4991 27.0833 35.9692 27.0833 35.4167V33.3333H29.1667C29.7192 33.3333 30.2491 33.1138 30.6398 32.7231C31.0305 32.3324 31.25 31.8025 31.25 31.25C31.25 30.6975 31.0305 30.1676 30.6398 29.7769C30.2491 29.3862 29.7192 29.1667 29.1667 29.1667H27.0833V27.0833C27.0833 26.5308 26.8638 26.0009 26.4731 25.6102C26.0824 25.2195 25.5525 25 25 25C24.4475 25 23.9176 25.2195 23.5269 25.6102C23.1362 26.0009 22.9167 26.5308 22.9167 27.0833Z" fill="#0D45DF"/>
</svg>
