<svg width="50" height="50" viewBox="0 0 50 50" fill="none" xmlns="http://www.w3.org/2000/svg">
<path d="M43.7498 6.24955H29.1665C28.8923 6.24796 28.6205 6.30051 28.3667 6.40419C28.1129 6.50787 27.882 6.66063 27.6873 6.85371L24.1457 10.4162H6.24984C5.6973 10.4162 5.1674 10.6357 4.7767 11.0264C4.386 11.4171 4.1665 11.947 4.1665 12.4995V41.6662C4.1665 42.2188 4.386 42.7487 4.7767 43.1394C5.1674 43.5301 5.6973 43.7495 6.24984 43.7495H43.7498C44.3024 43.7495 44.8323 43.5301 45.223 43.1394C45.6137 42.7487 45.8332 42.2188 45.8332 41.6662V8.33288C45.8332 7.78035 45.6137 7.25044 45.223 6.85974C44.8323 6.46904 44.3024 6.24955 43.7498 6.24955ZM41.6665 39.5829H8.33317V14.5829H24.9998C25.274 14.5845 25.5458 14.5319 25.7996 14.4282C26.0535 14.3246 26.2843 14.1718 26.479 13.9787L30.0207 10.4162H41.6665V39.5829Z" fill="#0D45DF"/>
<path d="M27.0833 25V22.9167C27.0833 22.3642 26.8638 21.8343 26.4731 21.4436C26.0824 21.0529 25.5525 20.8334 25 20.8334C24.4475 20.8334 23.9176 21.0529 23.5269 21.4436C23.1362 21.8343 22.9167 22.3642 22.9167 22.9167V25H20.8333C20.2808 25 19.7509 25.2195 19.3602 25.6102C18.9695 26.0009 18.75 26.5308 18.75 27.0834C18.75 27.6359 18.9695 28.1658 19.3602 28.5565C19.7509 28.9472 20.2808 29.1667 20.8333 29.1667H22.9167V31.25C22.9167 31.8026 23.1362 32.3325 23.5269 32.7232C23.9176 33.1139 24.4475 33.3334 25 33.3334C25.5525 33.3334 26.0824 33.1139 26.4731 32.7232C26.8638 32.3325 27.0833 31.8026 27.0833 31.25V29.1667H29.1667C29.7192 29.1667 30.2491 28.9472 30.6398 28.5565C31.0305 28.1658 31.25 27.6359 31.25 27.0834C31.25 26.5308 31.0305 26.0009 30.6398 25.6102C30.2491 25.2195 29.7192 25 29.1667 25H27.0833Z" fill="#0D45DF"/>
</svg>
