<svg width="50" height="50" viewBox="0 0 50 50" fill="none" xmlns="http://www.w3.org/2000/svg">
<path d="M8.3335 20.8333C8.3335 34.25 23.1668 45 23.7918 45.4375C24.1447 45.6887 24.567 45.8237 25.0002 45.8237C25.4333 45.8237 25.8557 45.6887 26.2085 45.4375C26.8335 45 41.6668 34.25 41.6668 20.8333C41.6668 16.413 39.9109 12.1738 36.7853 9.04818C33.6597 5.92257 29.4204 4.16663 25.0002 4.16663C20.5799 4.16663 16.3407 5.92257 13.215 9.04818C10.0894 12.1738 8.3335 16.413 8.3335 20.8333ZM37.5002 20.8333C37.5002 30.0833 28.3543 38.375 25.0002 41.1041C21.646 38.375 12.5002 30.0833 12.5002 20.8333C12.5002 17.5181 13.8171 14.3387 16.1613 11.9945C18.5055 9.65025 21.685 8.33329 25.0002 8.33329C28.3154 8.33329 31.4948 9.65025 33.839 11.9945C36.1832 14.3387 37.5002 17.5181 37.5002 20.8333Z" fill="#0D45DF"/>
<path d="M25.0002 25C27.3013 25 29.1668 23.1345 29.1668 20.8333C29.1668 18.5321 27.3013 16.6666 25.0002 16.6666C22.699 16.6666 20.8335 18.5321 20.8335 20.8333C20.8335 23.1345 22.699 25 25.0002 25Z" fill="#0D45DF"/>
</svg>
