<svg width="50" height="50" viewBox="0 0 50 50" fill="none" xmlns="http://www.w3.org/2000/svg">
<path d="M30.6468 4.77077C30.4526 4.57653 30.222 4.42244 29.9682 4.31731C29.7144 4.21219 29.4424 4.15808 29.1677 4.15808C28.893 4.15808 28.621 4.21219 28.3672 4.31731C28.1134 4.42244 27.8828 4.57653 27.6885 4.77077C27.2962 5.16307 27.0758 5.69514 27.0758 6.24994C27.0758 6.80473 27.2962 7.33681 27.6885 7.72911L28.1052 8.14577L11.4385 21.0624L9.75101 19.3541C9.35871 18.9618 8.82664 18.7414 8.27185 18.7414C7.71705 18.7414 7.18498 18.9618 6.79268 19.3541C6.40038 19.7464 6.17999 20.2785 6.17999 20.8333C6.17999 21.3881 6.40038 21.9201 6.79268 22.3124L15.7927 31.2499L4.87601 42.1666C4.68074 42.3603 4.52576 42.5907 4.41999 42.8446C4.31422 43.0985 4.25977 43.3708 4.25977 43.6458C4.25977 43.9208 4.31422 44.1931 4.41999 44.447C4.52576 44.7009 4.68074 44.9313 4.87601 45.1249C5.06969 45.3202 5.3001 45.4752 5.55398 45.581C5.80785 45.6867 6.08015 45.7412 6.35518 45.7412C6.6302 45.7412 6.90251 45.6867 7.15638 45.581C7.41025 45.4752 7.64067 45.3202 7.83435 45.1249L18.751 34.1666L27.6885 43.0833C27.8822 43.2785 28.1126 43.4335 28.3665 43.5393C28.6204 43.6451 28.8927 43.6995 29.1677 43.6995C29.4427 43.6995 29.715 43.6451 29.9689 43.5393C30.2228 43.4335 30.4532 43.2785 30.6468 43.0833C30.8421 42.8896 30.9971 42.6592 31.1029 42.4053C31.2086 42.1514 31.2631 41.8791 31.2631 41.6041C31.2631 41.3291 31.2086 41.0568 31.1029 40.8029C30.9971 40.549 30.8421 40.3186 30.6468 40.1249L28.9802 38.4583L41.8552 21.7916L42.2719 22.2083C42.4655 22.4035 42.6959 22.5585 42.9498 22.6643C43.2037 22.7701 43.476 22.8245 43.751 22.8245C44.026 22.8245 44.2983 22.7701 44.5522 22.6643C44.8061 22.5585 45.0365 22.4035 45.2302 22.2083C45.4254 22.0146 45.5804 21.7842 45.6862 21.5303C45.792 21.2764 45.8464 21.0041 45.8464 20.7291C45.8464 20.4541 45.792 20.1818 45.6862 19.9279C45.5804 19.674 45.4254 19.4436 45.2302 19.2499L30.6468 4.77077ZM26.001 35.4166L14.5843 24.0208L31.251 11.1041L39.0635 18.9166L26.001 35.4166Z" fill="#0D45DF"/>
</svg>
