<svg width="50" height="50" viewBox="0 0 50 50" fill="none" xmlns="http://www.w3.org/2000/svg">
<path d="M8.33333 14.5834V39.5834C8.33333 41.241 8.99181 42.8307 10.1639 44.0028C11.336 45.1749 12.9257 45.8334 14.5833 45.8334H35.4167C37.0743 45.8334 38.664 45.1749 39.8361 44.0028C41.0082 42.8307 41.6667 41.241 41.6667 39.5834V14.5834C42.2192 14.5834 42.7491 14.3639 43.1398 13.9732C43.5305 13.5825 43.75 13.0526 43.75 12.5C43.75 11.9475 43.5305 11.4176 43.1398 11.0269C42.7491 10.6362 42.2192 10.4167 41.6667 10.4167H33.3333V8.33337C33.3333 6.67577 32.6749 5.08606 31.5028 3.91396C30.3306 2.74185 28.7409 2.08337 27.0833 2.08337H22.9167C21.2591 2.08337 19.6694 2.74185 18.4972 3.91396C17.3251 5.08606 16.6667 6.67577 16.6667 8.33337V10.4167H8.33333C7.7808 10.4167 7.25089 10.6362 6.86019 11.0269C6.46949 11.4176 6.25 11.9475 6.25 12.5C6.25 13.0526 6.46949 13.5825 6.86019 13.9732C7.25089 14.3639 7.7808 14.5834 8.33333 14.5834ZM20.8333 8.33337C20.8333 7.78084 21.0528 7.25094 21.4435 6.86024C21.8342 6.46953 22.3641 6.25004 22.9167 6.25004H27.0833C27.6359 6.25004 28.1658 6.46953 28.5565 6.86024C28.9472 7.25094 29.1667 7.78084 29.1667 8.33337V10.4167H20.8333V8.33337ZM12.5 14.5834H37.5V39.5834C37.5 40.1359 37.2805 40.6658 36.8898 41.0565C36.4991 41.4472 35.9692 41.6667 35.4167 41.6667H14.5833C14.0308 41.6667 13.5009 41.4472 13.1102 41.0565C12.7195 40.6658 12.5 40.1359 12.5 39.5834V14.5834Z" fill="#BCBEBE"/>
<path d="M18.7498 37.5C19.3024 37.5 19.8323 37.2805 20.223 36.8898C20.6137 36.4991 20.8332 35.9692 20.8332 35.4167V20.8333C20.8332 20.2808 20.6137 19.7509 20.223 19.3602C19.8323 18.9695 19.3024 18.75 18.7498 18.75C18.1973 18.75 17.6674 18.9695 17.2767 19.3602C16.886 19.7509 16.6665 20.2808 16.6665 20.8333V35.4167C16.6665 35.9692 16.886 36.4991 17.2767 36.8898C17.6674 37.2805 18.1973 37.5 18.7498 37.5Z" fill="#BCBEBE"/>
<path d="M31.2498 37.5C31.8024 37.5 32.3323 37.2805 32.723 36.8898C33.1137 36.4991 33.3332 35.9692 33.3332 35.4167V20.8333C33.3332 20.2808 33.1137 19.7509 32.723 19.3602C32.3323 18.9695 31.8024 18.75 31.2498 18.75C30.6973 18.75 30.1674 18.9695 29.7767 19.3602C29.386 19.7509 29.1665 20.2808 29.1665 20.8333V35.4167C29.1665 35.9692 29.386 36.4991 29.7767 36.8898C30.1674 37.2805 30.6973 37.5 31.2498 37.5Z" fill="#BCBEBE"/>
</svg>
