<svg width="50" height="50" viewBox="0 0 50 50" fill="none" xmlns="http://www.w3.org/2000/svg">
<path d="M36.7493 8.93774C36.357 8.5482 35.8261 8.33046 35.2732 8.33241C34.7204 8.33436 34.191 8.55585 33.8014 8.94815C33.4119 9.34045 33.1942 9.87143 33.1961 10.4243C33.1981 10.9771 33.4195 11.5065 33.8118 11.8961L40.7702 18.7502H19.6452C16.0537 18.7502 12.6093 20.1769 10.0698 22.7165C7.53022 25.2561 6.10352 28.7004 6.10352 32.2919C6.10352 35.8834 7.53022 39.3278 10.0698 41.8673C12.6093 44.4069 16.0537 45.8336 19.6452 45.8336H24.8743C25.4269 45.8336 25.9568 45.6141 26.3475 45.2234C26.7382 44.8327 26.9577 44.3028 26.9577 43.7502C26.9577 43.1977 26.7382 42.6678 26.3475 42.2771C25.9568 41.8864 25.4269 41.6669 24.8743 41.6669H19.6452C17.1588 41.6669 14.7742 40.6792 13.0161 38.921C11.2579 37.1629 10.2702 34.7783 10.2702 32.2919C10.2702 29.8055 11.2579 27.4209 13.0161 25.6628C14.7742 23.9046 17.1588 22.9169 19.6452 22.9169H40.7494L33.8327 29.7294C33.4447 30.1197 33.2269 30.6478 33.2269 31.1982C33.2269 31.7485 33.4447 32.2766 33.8327 32.6669C34.0256 32.8638 34.2557 33.0204 34.5096 33.1276C34.7635 33.2349 35.0362 33.2908 35.3119 33.2919C35.8584 33.2896 36.3821 33.0726 36.7702 32.6877L47.3118 22.2711C47.6917 21.8882 47.9083 21.3729 47.916 20.8336C47.9149 20.5579 47.859 20.2853 47.7518 20.0314C47.6445 19.7774 47.4879 19.5473 47.291 19.3544L36.7493 8.93774Z" fill="#0D45DF"/>
</svg>
