<svg width="50" height="50" viewBox="0 0 50 50" fill="none" xmlns="http://www.w3.org/2000/svg">
<path d="M24.9998 37.4999C26.1504 37.4999 27.0832 36.5672 27.0832 35.4166C27.0832 34.266 26.1504 33.3333 24.9998 33.3333C23.8492 33.3333 22.9165 34.266 22.9165 35.4166C22.9165 36.5672 23.8492 37.4999 24.9998 37.4999Z" fill="#0D45DF"/>
<path d="M24.9998 4.16663C13.5415 4.16663 4.1665 13.5416 4.1665 25C4.1665 36.4583 13.5415 45.8333 24.9998 45.8333C36.4582 45.8333 45.8332 36.4583 45.8332 25C45.8332 13.5416 36.4582 4.16663 24.9998 4.16663ZM24.9998 41.6666C15.8332 41.6666 8.33317 34.1666 8.33317 25C8.33317 15.8333 15.8332 8.33329 24.9998 8.33329C34.1665 8.33329 41.6665 15.8333 41.6665 25C41.6665 34.1666 34.1665 41.6666 24.9998 41.6666Z" fill="#0D45DF"/>
<path d="M26.0409 12.4997C24.3742 12.2914 22.4992 12.708 21.0409 13.7497C19.7909 14.9997 18.9575 16.6664 18.9575 18.3331C18.9575 19.5831 19.7909 20.4164 21.0409 20.4164C22.2909 20.4164 23.1242 19.5831 23.1242 18.3331C23.1242 17.7081 23.3325 17.2914 23.7492 16.8747C24.3742 16.6664 24.7909 16.6664 25.4159 16.6664C26.0408 16.8747 26.6658 17.2914 26.8742 18.1247C26.8742 18.7497 26.8742 19.1664 26.4575 19.5831C24.3742 21.8747 23.1242 24.9997 22.9159 28.1247V29.1664C22.9159 30.4164 23.7492 31.2497 24.9992 31.2497C26.2492 31.2497 27.0825 30.4164 27.0825 29.1664V28.1247C27.2908 26.0414 28.1242 23.9581 29.5825 22.2914C30.8325 20.8331 31.2492 19.1664 30.8325 17.2914C30.4158 14.9997 28.5408 12.9164 26.0409 12.4997Z" fill="#0D45DF"/>
</svg>
