<svg width="50" height="50" viewBox="0 0 50 50" fill="none" xmlns="http://www.w3.org/2000/svg">
<path d="M43.7498 16.6666H37.4998V6.24996C37.4998 5.69743 37.2803 5.16752 36.8896 4.77682C36.4989 4.38612 35.969 4.16663 35.4165 4.16663H14.5832C14.0306 4.16663 13.5007 4.38612 13.11 4.77682C12.7193 5.16752 12.4998 5.69743 12.4998 6.24996V16.6666H6.24984C5.6973 16.6666 5.1674 16.8861 4.7767 17.2768C4.386 17.6675 4.1665 18.1974 4.1665 18.75V35.4166C4.1665 35.9692 4.386 36.4991 4.7767 36.8898C5.1674 37.2805 5.6973 37.5 6.24984 37.5H12.4998V43.75C12.4998 44.3025 12.7193 44.8324 13.11 45.2231C13.5007 45.6138 14.0306 45.8333 14.5832 45.8333H35.4165C35.969 45.8333 36.4989 45.6138 36.8896 45.2231C37.2803 44.8324 37.4998 44.3025 37.4998 43.75V37.5H43.7498C44.3024 37.5 44.8323 37.2805 45.223 36.8898C45.6137 36.4991 45.8332 35.9692 45.8332 35.4166V18.75C45.8332 18.1974 45.6137 17.6675 45.223 17.2768C44.8323 16.8861 44.3024 16.6666 43.7498 16.6666ZM16.6665 8.33329H33.3332V16.6666H16.6665V8.33329ZM33.3332 41.6666H16.6665V31.25H33.3332V41.6666ZM41.6665 33.3333H37.4998V29.1666C37.4998 28.6141 37.2803 28.0842 36.8896 27.6935C36.4989 27.3028 35.969 27.0833 35.4165 27.0833H14.5832C14.0306 27.0833 13.5007 27.3028 13.11 27.6935C12.7193 28.0842 12.4998 28.6141 12.4998 29.1666V33.3333H8.33317V20.8333H41.6665V33.3333Z" fill="#0D45DF"/>
</svg>
