<svg width="50" height="50" viewBox="0 0 50 50" fill="none" xmlns="http://www.w3.org/2000/svg">
<path d="M26.479 4.77083C26.2844 4.57774 26.0535 4.42498 25.7997 4.3213C25.5458 4.21763 25.2741 4.16508 24.9999 4.16666H6.24987C5.69734 4.16666 5.16743 4.38615 4.77673 4.77685C4.38603 5.16756 4.16654 5.69746 4.16654 6.24999V25C4.16495 25.2742 4.21751 25.546 4.32118 25.7998C4.42486 26.0536 4.57762 26.2845 4.77071 26.4792L25.604 47.3125C25.7977 47.5078 26.0281 47.6628 26.282 47.7685C26.5359 47.8743 26.8082 47.9287 27.0832 47.9287C27.3582 47.9287 27.6305 47.8743 27.8844 47.7685C28.1383 47.6628 28.3687 47.5078 28.5624 47.3125L47.3124 28.5625C47.5076 28.3688 47.6626 28.1384 47.7684 27.8845C47.8742 27.6307 47.9286 27.3584 47.9286 27.0833C47.9286 26.8083 47.8742 26.536 47.7684 26.2821C47.6626 26.0283 47.5076 25.7978 47.3124 25.6042L26.479 4.77083ZM27.0832 42.8958L8.33321 24.1458V8.33333H24.1457L42.8957 27.0833L27.0832 42.8958Z" fill="#0D45DF"/>
<path d="M15.625 18.75C17.3509 18.75 18.75 17.3509 18.75 15.625C18.75 13.8991 17.3509 12.5 15.625 12.5C13.8991 12.5 12.5 13.8991 12.5 15.625C12.5 17.3509 13.8991 18.75 15.625 18.75Z" fill="#0D45DF"/>
</svg>
