<svg width="50" height="50" viewBox="0 0 50 50" fill="none" xmlns="http://www.w3.org/2000/svg">
<path d="M24.9998 43.75C29.6114 43.751 34.0616 42.0525 37.4998 38.9792C37.8788 38.6034 38.099 38.0966 38.1153 37.5632C38.1315 37.0299 37.9425 36.5106 37.5871 36.1125C37.2318 35.7144 36.7372 35.4678 36.2055 35.4237C35.6737 35.3795 35.1452 35.541 34.729 35.875C32.3856 37.9813 29.4231 39.2721 26.2848 39.554C23.1466 39.8359 20.0014 39.0938 17.3202 37.4388C14.6389 35.7837 12.5658 33.3048 11.4112 30.3731C10.2566 27.4414 10.0825 24.2146 10.9151 21.1757C11.7477 18.1368 13.5421 15.4493 16.0298 13.5155C18.5174 11.5816 21.5645 10.5055 24.7149 10.4482C27.8652 10.3909 30.9494 11.3555 33.5058 13.1975C36.0621 15.0396 37.9531 17.6601 38.8957 20.6667L36.5415 19.1042C36.0841 18.8588 35.5515 18.793 35.0481 18.9198C34.5448 19.0465 34.1068 19.3566 33.8201 19.7893C33.5333 20.222 33.4185 20.7461 33.498 21.2591C33.5775 21.7721 33.8456 22.2369 34.2498 22.5625L40.4998 26.7292C40.9122 26.9973 41.4061 27.111 41.8941 27.05C42.3822 26.9889 42.8329 26.7572 43.1665 26.3958C43.2469 26.3223 43.317 26.2382 43.3748 26.1458L47.5415 19.8958C47.7234 19.6701 47.8561 19.4089 47.9312 19.1289C48.0063 18.8489 48.0222 18.5564 47.9778 18.2699C47.9334 17.9834 47.8298 17.7094 47.6734 17.4653C47.5171 17.2212 47.3115 17.0124 47.0699 16.8523C46.8282 16.6922 46.5558 16.5842 46.2701 16.5354C45.9844 16.4866 45.6916 16.4979 45.4105 16.5686C45.1294 16.6394 44.8661 16.7681 44.6376 16.9464C44.409 17.1247 44.2202 17.3487 44.0832 17.6042L42.8748 19.3958C41.8386 16.0872 39.9052 13.1307 37.2895 10.8548C34.6739 8.57897 31.4784 7.07294 28.0582 6.50409C24.6381 5.93524 21.1272 6.32585 17.9157 7.6325C14.7042 8.93916 11.9179 11.1107 9.86637 13.9058C7.81489 16.7009 6.57858 20.01 6.29484 23.4655C6.01109 26.9211 6.69102 30.3876 8.25907 33.4799C9.82712 36.5722 12.2219 39.1691 15.1772 40.9822C18.1325 42.7952 21.5327 43.7533 24.9998 43.75Z" fill="#0D45DF"/>
</svg>
