<svg width="50" height="50" viewBox="0 0 50 50" fill="none" xmlns="http://www.w3.org/2000/svg">
<path d="M6.24984 27.0832H38.729L27.6873 38.1041C27.4921 38.2977 27.3371 38.5282 27.2313 38.782C27.1255 39.0359 27.0711 39.3082 27.0711 39.5832C27.0711 39.8583 27.1255 40.1306 27.2313 40.3844C27.3371 40.6383 27.4921 40.8687 27.6873 41.0624C27.881 41.2577 28.1114 41.4127 28.3653 41.5184C28.6192 41.6242 28.8915 41.6786 29.1665 41.6786C29.4415 41.6786 29.7138 41.6242 29.9677 41.5184C30.2216 41.4127 30.452 41.2577 30.6457 41.0624L45.229 26.4791C45.4243 26.2854 45.5793 26.055 45.685 25.8011C45.7908 25.5472 45.8453 25.2749 45.8453 24.9999C45.8453 24.7249 45.7908 24.4526 45.685 24.1987C45.5793 23.9448 45.4243 23.7144 45.229 23.5207L30.6457 8.9374C30.4514 8.74315 30.2208 8.58907 29.967 8.48394C29.7132 8.37882 29.4412 8.32471 29.1665 8.32471C28.6117 8.32471 28.0796 8.5451 27.6873 8.9374C27.4931 9.13164 27.339 9.36225 27.2339 9.61605C27.1288 9.86984 27.0747 10.1419 27.0747 10.4166C27.0747 10.9714 27.295 11.5034 27.6873 11.8957L38.729 22.9166H6.24984C5.6973 22.9166 5.1674 23.1361 4.7767 23.5268C4.386 23.9175 4.1665 24.4474 4.1665 24.9999C4.1665 25.5524 4.386 26.0823 4.7767 26.473C5.1674 26.8637 5.6973 27.0832 6.24984 27.0832Z" fill="#0D45DF"/>
</svg>
