<svg width="50" height="50" viewBox="0 0 50 50" fill="none" xmlns="http://www.w3.org/2000/svg">
<path d="M8.33333 43.7495H41.6667C42.2192 43.7495 42.7491 43.5301 43.1398 43.1394C43.5305 42.7487 43.75 42.2188 43.75 41.6662V18.7495C43.7516 18.4754 43.699 18.2036 43.5954 17.9497C43.4917 17.6959 43.3389 17.465 43.1458 17.2704L32.7292 6.85371C32.5345 6.66063 32.3036 6.50787 32.0498 6.40419C31.796 6.30051 31.5242 6.24796 31.25 6.24955H8.33333C7.7808 6.24955 7.25089 6.46904 6.86019 6.85974C6.46949 7.25044 6.25 7.78035 6.25 8.33288V41.6662C6.25 42.2188 6.46949 42.7487 6.86019 43.1394C7.25089 43.5301 7.7808 43.7495 8.33333 43.7495ZM29.1667 39.5829H20.8333V29.1662H29.1667V39.5829ZM10.4167 10.4162H30.3958L39.5833 19.6037V39.5829H33.3333V27.0829C33.3333 26.5303 33.1138 26.0004 32.7231 25.6097C32.3324 25.219 31.8025 24.9995 31.25 24.9995H18.75C18.1975 24.9995 17.6676 25.219 17.2769 25.6097C16.8862 26.0004 16.6667 26.5303 16.6667 27.0829V39.5829H10.4167V10.4162Z" fill="#0D45DF"/>
</svg>
