<svg width="50" height="50" viewBox="0 0 50 50" fill="none" xmlns="http://www.w3.org/2000/svg">
<path d="M4.1665 20.8333C4.1665 25.2536 5.92245 29.4928 9.04806 32.6184C12.1737 35.744 16.4129 37.5 20.8332 37.5C24.5345 37.5046 28.1299 36.2645 31.0415 33.9791L40.1873 43.1458C40.381 43.3411 40.6114 43.496 40.8653 43.6018C41.1192 43.7076 41.3915 43.762 41.6665 43.762C41.9415 43.762 42.2138 43.7076 42.4677 43.6018C42.7216 43.496 42.952 43.3411 43.1457 43.1458C43.3409 42.9521 43.4959 42.7217 43.6017 42.4678C43.7075 42.2139 43.7619 41.9416 43.7619 41.6666C43.7619 41.3916 43.7075 41.1193 43.6017 40.8654C43.4959 40.6115 43.3409 40.3811 43.1457 40.1875L33.979 31.0416C36.2644 28.1301 37.5044 24.5347 37.4998 20.8333C37.4998 16.413 35.7439 12.1738 32.6183 9.04818C29.4927 5.92257 25.2534 4.16663 20.8332 4.16663C16.4129 4.16663 12.1737 5.92257 9.04806 9.04818C5.92245 12.1738 4.1665 16.413 4.1665 20.8333ZM20.8332 8.33329C23.3054 8.33329 25.7222 9.0664 27.7778 10.4399C29.8334 11.8134 31.4356 13.7657 32.3817 16.0497C33.3278 18.3338 33.5753 20.8472 33.093 23.2719C32.6107 25.6967 31.4202 27.924 29.672 29.6721C27.9238 31.4203 25.6966 32.6108 23.2718 33.0931C20.847 33.5754 18.3337 33.3279 16.0496 32.3818C13.7655 31.4357 11.8133 29.8335 10.4398 27.7779C9.06628 25.7223 8.33317 23.3056 8.33317 20.8333C8.33317 17.5181 9.65013 14.3387 11.9943 11.9945C14.3385 9.65025 17.518 8.33329 20.8332 8.33329Z" fill="#0D45DF"/>
</svg>
