<svg width="50" height="50" viewBox="0 0 50 50" fill="none" xmlns="http://www.w3.org/2000/svg">
<path d="M13.875 12.4997C13.4604 12.1356 12.9182 11.9508 12.3675 11.9859C11.8168 12.0211 11.3025 12.2733 10.9375 12.6872C8.55078 15.3935 6.99566 18.731 6.45874 22.2992C5.92182 25.8675 6.42592 29.5148 7.91055 32.8037C9.39518 36.0925 11.7973 38.883 14.8286 40.8405C17.8599 42.798 21.3916 43.8392 25 43.8392C28.6084 43.8392 32.1401 42.798 35.1714 40.8405C38.2027 38.883 40.6048 36.0925 42.0895 32.8037C43.5741 29.5148 44.0782 25.8675 43.5413 22.2992C43.0044 18.731 41.4492 15.3935 39.0625 12.6872C38.6975 12.2733 38.1833 12.0211 37.6325 11.9859C37.0818 11.9508 36.5396 12.1356 36.125 12.4997C35.7111 12.8647 35.4588 13.379 35.4237 13.9297C35.3885 14.4804 35.5733 15.0226 35.9375 15.4372C37.7938 17.5421 39.0034 20.138 39.421 22.9132C39.8386 25.6885 39.4465 28.5254 38.2918 31.0833C37.1371 33.6413 35.2688 35.8118 32.9111 37.3342C30.5534 38.8567 27.8065 39.6665 25 39.6665C22.1935 39.6665 19.4466 38.8567 17.0889 37.3342C14.7312 35.8118 12.8629 33.6413 11.7082 31.0833C10.5535 28.5254 10.1614 25.6885 10.579 22.9132C10.9966 20.138 12.2062 17.5421 14.0625 15.4372C14.4267 15.0226 14.6115 14.4804 14.5763 13.9297C14.5412 13.379 14.2889 12.8647 13.875 12.4997Z" fill="#0D45DF"/>
<path d="M27.0832 25V6.24996C27.0832 5.69742 26.8637 5.16752 26.473 4.77682C26.0823 4.38612 25.5524 4.16663 24.9998 4.16663C24.4473 4.16663 23.9174 4.38612 23.5267 4.77682C23.136 5.16752 22.9165 5.69742 22.9165 6.24996V25C22.9165 25.5525 23.136 26.0824 23.5267 26.4731C23.9174 26.8638 24.4473 27.0833 24.9998 27.0833C25.5524 27.0833 26.0823 26.8638 26.473 26.4731C26.8637 26.0824 27.0832 25.5525 27.0832 25Z" fill="#0D45DF"/>
</svg>
