<svg width="50" height="50" viewBox="0 0 50 50" fill="none" xmlns="http://www.w3.org/2000/svg">
<path d="M43.75 39.5833H10.4167V6.24996C10.4167 5.69743 10.1972 5.16752 9.80647 4.77682C9.41577 4.38612 8.88587 4.16663 8.33333 4.16663C7.7808 4.16663 7.25089 4.38612 6.86019 4.77682C6.46949 5.16752 6.25 5.69743 6.25 6.24996V41.6666C6.25 42.2192 6.46949 42.7491 6.86019 43.1398C7.25089 43.5305 7.7808 43.75 8.33333 43.75H43.75C44.3025 43.75 44.8324 43.5305 45.2231 43.1398C45.6138 42.7491 45.8333 42.2192 45.8333 41.6666C45.8333 41.1141 45.6138 40.5842 45.2231 40.1935C44.8324 39.8028 44.3025 39.5833 43.75 39.5833Z" fill="#0D45DF"/>
<path d="M14.5835 22.9167V33.3334C14.5835 33.8859 14.803 34.4158 15.1937 34.8065C15.5844 35.1972 16.1143 35.4167 16.6668 35.4167C17.2194 35.4167 17.7493 35.1972 18.14 34.8065C18.5307 34.4158 18.7502 33.8859 18.7502 33.3334V22.9167C18.7502 22.3642 18.5307 21.8343 18.14 21.4436C17.7493 21.0529 17.2194 20.8334 16.6668 20.8334C16.1143 20.8334 15.5844 21.0529 15.1937 21.4436C14.803 21.8343 14.5835 22.3642 14.5835 22.9167Z" fill="#0D45DF"/>
<path d="M22.9165 12.5V33.3333C22.9165 33.8858 23.136 34.4157 23.5267 34.8064C23.9174 35.1971 24.4473 35.4166 24.9998 35.4166C25.5524 35.4166 26.0823 35.1971 26.473 34.8064C26.8637 34.4157 27.0832 33.8858 27.0832 33.3333V12.5C27.0832 11.9474 26.8637 11.4175 26.473 11.0268C26.0823 10.6361 25.5524 10.4166 24.9998 10.4166C24.4473 10.4166 23.9174 10.6361 23.5267 11.0268C23.136 11.4175 22.9165 11.9474 22.9165 12.5Z" fill="#0D45DF"/>
<path d="M31.25 16.6667V33.3334C31.25 33.8859 31.4695 34.4158 31.8602 34.8065C32.2509 35.1972 32.7808 35.4167 33.3333 35.4167C33.8859 35.4167 34.4158 35.1972 34.8065 34.8065C35.1972 34.4158 35.4167 33.8859 35.4167 33.3334V16.6667C35.4167 16.1142 35.1972 15.5843 34.8065 15.1936C34.4158 14.8029 33.8859 14.5834 33.3333 14.5834C32.7808 14.5834 32.2509 14.8029 31.8602 15.1936C31.4695 15.5843 31.25 16.1142 31.25 16.6667Z" fill="#0D45DF"/>
<path d="M39.5835 6.24996V33.3333C39.5835 33.8858 39.803 34.4157 40.1937 34.8064C40.5844 35.1971 41.1143 35.4166 41.6668 35.4166C42.2194 35.4166 42.7493 35.1971 43.14 34.8064C43.5307 34.4157 43.7502 33.8858 43.7502 33.3333V6.24996C43.7502 5.69742 43.5307 5.16752 43.14 4.77682C42.7493 4.38612 42.2194 4.16663 41.6668 4.16663C41.1143 4.16663 40.5844 4.38612 40.1937 4.77682C39.803 5.16752 39.5835 5.69742 39.5835 6.24996Z" fill="#0D45DF"/>
</svg>
