<svg width="50" height="50" viewBox="0 0 50 50" fill="none" xmlns="http://www.w3.org/2000/svg">
<path d="M45.8338 16.6667L32.6463 16.7709L26.9171 3.35421C26.7576 2.97765 26.4908 2.65635 26.15 2.43037C25.8092 2.20439 25.4094 2.08371 25.0004 2.08337C24.5915 2.08371 24.1917 2.20439 23.8509 2.43037C23.51 2.65635 23.2432 2.97765 23.0838 3.35421L17.3754 16.6667H4.16709C3.73894 16.6669 3.32124 16.799 2.97083 17.045C2.62042 17.291 2.35433 17.6391 2.20876 18.0417C2.06235 18.4446 2.0438 18.8829 2.15566 19.2968C2.26751 19.7106 2.50431 20.0799 2.83376 20.3542L14.1463 29.7709L8.50042 42.9375C8.32766 43.3381 8.28499 43.7828 8.37843 44.2089C8.47187 44.635 8.69672 45.021 9.02126 45.3125C9.34903 45.6064 9.76146 45.7889 10.1994 45.8338C10.6373 45.8787 11.0782 45.7837 11.4588 45.5625L25.0004 37.8125L38.5421 45.5625C38.8596 45.7425 39.2188 45.8359 39.5838 45.8334C40.0973 45.8377 40.5944 45.6523 40.9796 45.3125C41.3041 45.021 41.529 44.635 41.6224 44.2089C41.7159 43.7828 41.6732 43.3381 41.5004 42.9375L35.8546 29.7709L47.1671 20.3542C47.4965 20.0799 47.7333 19.7106 47.8452 19.2968C47.957 18.8829 47.9385 18.4446 47.7921 18.0417C47.6323 17.6486 47.3626 17.3098 47.0153 17.066C46.668 16.8221 46.2578 16.6835 45.8338 16.6667ZM32.0213 27.5625C31.6772 27.8492 31.4347 28.239 31.3296 28.6743C31.2245 29.1096 31.2625 29.5672 31.4379 29.9792L35.2504 38.8542L26.0421 33.6042C25.7254 33.4214 25.3661 33.3251 25.0004 33.3251C24.6347 33.3251 24.2755 33.4214 23.9588 33.6042L14.7713 38.8542L18.5838 29.9792C18.7592 29.5672 18.7971 29.1096 18.6921 28.6743C18.587 28.239 18.3445 27.8492 18.0004 27.5625L9.91709 20.8334H18.7504C19.1594 20.833 19.5592 20.7124 19.9 20.4864C20.2408 20.2604 20.5076 19.9391 20.6671 19.5625L25.0004 9.45837L29.3338 19.6667C29.4932 20.0433 29.76 20.3646 30.1009 20.5905C30.4417 20.8165 30.8415 20.9372 31.2504 20.9375H40.0004L32.0213 27.5625Z" fill="#0D45DF"/>
</svg>
