<svg width="50" height="50" viewBox="0 0 50 50" fill="none" xmlns="http://www.w3.org/2000/svg">
<path d="M39.979 34.8125C41.0607 33.5212 41.6576 31.8928 41.6665 30.2083C41.6665 28.2744 40.8983 26.4198 39.5308 25.0523C38.1634 23.6849 36.3087 22.9166 34.3748 22.9166H33.7915C35.5096 20.875 36.4537 18.2934 36.4582 15.625C36.463 13.7011 35.9834 11.807 35.0635 10.1173C34.1436 8.42761 32.8131 6.99674 31.1947 5.95663C29.5762 4.91652 27.7219 4.30066 25.8028 4.16586C23.8836 4.03106 21.9614 4.38164 20.2135 5.18529C18.4655 5.98893 16.948 7.21976 15.8009 8.76427C14.6539 10.3088 13.9142 12.1172 13.65 14.0229C13.3859 15.9285 13.6059 17.87 14.2896 19.6683C14.9733 21.4665 16.0988 23.0637 17.5623 24.3125C13.6254 25.8171 10.2374 28.4805 7.84571 31.9508C5.45403 35.4212 4.17116 39.5353 4.1665 43.75C4.1665 44.3025 4.386 44.8324 4.7767 45.2231C5.1674 45.6138 5.6973 45.8333 6.24984 45.8333C6.80237 45.8333 7.33228 45.6138 7.72298 45.2231C8.11368 44.8324 8.33317 44.3025 8.33317 43.75C8.33317 39.3297 10.0891 35.0905 13.2147 31.9649C16.3403 28.8393 20.5796 27.0833 24.9998 27.0833H27.8123C27.2021 28.325 26.9677 29.7179 27.1379 31.0909C27.3082 32.464 27.8756 33.7574 28.7707 34.8125C26.9958 35.8052 25.5178 37.2532 24.4888 39.0073C23.4598 40.7613 22.917 42.758 22.9165 44.7916C22.9165 45.3442 23.136 45.8741 23.5267 46.2648C23.9174 46.6555 24.4473 46.875 24.9998 46.875C25.5524 46.875 26.0823 46.6555 26.473 46.2648C26.8637 45.8741 27.0832 45.3442 27.0832 44.7916C27.0832 42.8578 27.8514 41.0031 29.2189 39.6357C30.5863 38.2682 32.441 37.5 34.3748 37.5C36.3087 37.5 38.1634 38.2682 39.5308 39.6357C40.8983 41.0031 41.6665 42.8578 41.6665 44.7916C41.6665 45.3442 41.886 45.8741 42.2767 46.2648C42.6674 46.6555 43.1973 46.875 43.7498 46.875C44.3024 46.875 44.8323 46.6555 45.223 46.2648C45.6137 45.8741 45.8332 45.3442 45.8332 44.7916C45.8326 42.758 45.2899 40.7613 44.2609 39.0073C43.2319 37.2532 41.7539 35.8052 39.979 34.8125ZM24.9998 22.9166C23.5577 22.9166 22.1479 22.489 20.9488 21.6878C19.7497 20.8866 18.8151 19.7478 18.2632 18.4154C17.7113 17.083 17.5669 15.6169 17.8483 14.2024C18.1296 12.788 18.8241 11.4887 19.8439 10.469C20.8636 9.44923 22.1629 8.75477 23.5773 8.47342C24.9917 8.19207 26.4579 8.33647 27.7902 8.88836C29.1226 9.44025 30.2614 10.3748 31.0626 11.5739C31.8639 12.7731 32.2915 14.1828 32.2915 15.625C32.2915 17.5588 31.5233 19.4135 30.1558 20.781C28.7884 22.1484 26.9337 22.9166 24.9998 22.9166ZM34.3748 33.3333C33.546 33.3333 32.7512 33.0041 32.1651 32.418C31.5791 31.832 31.2498 31.0371 31.2498 30.2083C31.2553 29.3812 31.5863 28.5895 32.1712 28.0046C32.756 27.4198 33.5477 27.0888 34.3748 27.0833C35.2036 27.0833 35.9985 27.4125 36.5845 27.9986C37.1706 28.5847 37.4998 29.3795 37.4998 30.2083C37.4998 31.0371 37.1706 31.832 36.5845 32.418C35.9985 33.0041 35.2036 33.3333 34.3748 33.3333Z" fill="#0D45DF"/>
</svg>
