<svg width="50" height="50" viewBox="0 0 50 50" fill="none" xmlns="http://www.w3.org/2000/svg">
<path d="M18.1458 18.1458C18.3389 17.9512 18.4917 17.7203 18.5954 17.4665C18.699 17.2126 18.7516 16.9408 18.75 16.6667V8.33333C18.75 7.7808 18.5305 7.25089 18.1398 6.86019C17.7491 6.46949 17.2192 6.25 16.6667 6.25H8.33333C7.7808 6.25 7.25089 6.46949 6.86019 6.86019C6.46949 7.25089 6.25 7.7808 6.25 8.33333C6.25 17.7264 9.98139 26.7348 16.6233 33.3767C23.2652 40.0186 32.2736 43.75 41.6667 43.75C42.2192 43.75 42.7491 43.5305 43.1398 43.1398C43.5305 42.7491 43.75 42.2192 43.75 41.6667V33.3333C43.75 32.7808 43.5305 32.2509 43.1398 31.8602C42.7491 31.4695 42.2192 31.25 41.6667 31.25H33.3333C33.0592 31.2484 32.7874 31.301 32.5335 31.4046C32.2797 31.5083 32.0488 31.6611 31.8542 31.8542L27.6875 36.0208L27.5417 36.2083C21.6246 33.1874 16.8126 28.3754 13.7917 22.4583L13.9792 22.3125L18.1458 18.1458ZM34.1875 35.4167H39.5833V39.5833C36.8871 39.4001 34.226 38.8679 31.6667 38L34.1875 35.4167ZM12.0625 18.3333C11.1734 15.7769 10.6201 13.1157 10.4167 10.4167H14.5833V15.8125L12.0625 18.3333Z" fill="#0D45DF"/>
</svg>
