<svg width="50" height="50" viewBox="0 0 50 50" fill="none" xmlns="http://www.w3.org/2000/svg">
<path d="M38.979 6.85451C38.7848 6.66027 38.5542 6.50618 38.3004 6.40105C38.0466 6.29593 37.7746 6.24182 37.4998 6.24182C36.945 6.24182 36.413 6.46221 36.0207 6.85451C35.6284 7.24681 35.408 7.77888 35.408 8.33368C35.408 8.88847 35.6284 9.42055 36.0207 9.81285L38.729 12.5003H6.24984C5.6973 12.5003 5.1674 12.7198 4.7767 13.1105C4.386 13.5012 4.1665 14.0311 4.1665 14.5837C4.1665 15.1362 4.386 15.6661 4.7767 16.0568C5.1674 16.4475 5.6973 16.667 6.24984 16.667H38.729L36.0207 19.3545C35.8254 19.5482 35.6704 19.7786 35.5647 20.0325C35.4589 20.2864 35.4044 20.5587 35.4044 20.8337C35.4044 21.1087 35.4589 21.381 35.5647 21.6349C35.6704 21.8888 35.8254 22.1192 36.0207 22.3128C36.2144 22.5081 36.4448 22.6631 36.6986 22.7689C36.9525 22.8746 37.2248 22.9291 37.4998 22.9291C37.7749 22.9291 38.0472 22.8746 38.301 22.7689C38.5549 22.6631 38.7853 22.5081 38.979 22.3128L45.229 16.0628C45.4243 15.8692 45.5793 15.6388 45.685 15.3849C45.7908 15.131 45.8453 14.8587 45.8453 14.5837C45.8453 14.3087 45.7908 14.0364 45.685 13.7825C45.5793 13.5286 45.4243 13.2982 45.229 13.1045L38.979 6.85451Z" fill="#0D45DF"/>
<path d="M43.7497 33.3333H11.2705L13.9789 30.6458C14.3712 30.2535 14.5916 29.7214 14.5916 29.1666C14.5916 28.6118 14.3712 28.0798 13.9789 27.6875C13.5866 27.2952 13.0545 27.0748 12.4997 27.0748C11.9449 27.0748 11.4128 27.2952 11.0205 27.6875L4.77054 33.9375C4.57528 34.1311 4.42029 34.3616 4.31452 34.6154C4.20875 34.8693 4.1543 35.1416 4.1543 35.4166C4.1543 35.6917 4.20875 35.964 4.31452 36.2178C4.42029 36.4717 4.57528 36.7021 4.77054 36.8958L11.0205 43.1458C11.2142 43.3411 11.4446 43.4961 11.6985 43.6018C11.9524 43.7076 12.2247 43.762 12.4997 43.762C12.7747 43.762 13.047 43.7076 13.3009 43.6018C13.5548 43.4961 13.7852 43.3411 13.9789 43.1458C14.1741 42.9521 14.3291 42.7217 14.4349 42.4678C14.5407 42.214 14.5951 41.9417 14.5951 41.6666C14.5951 41.3916 14.5407 41.1193 14.4349 40.8654C14.3291 40.6116 14.1741 40.3811 13.9789 40.1875L11.2705 37.5H43.7497C44.3022 37.5 44.8321 37.2805 45.2229 36.8898C45.6135 36.4991 45.833 35.9692 45.833 35.4166C45.833 34.8641 45.6135 34.3342 45.2229 33.9435C44.8321 33.5528 44.3022 33.3333 43.7497 33.3333Z" fill="#0D45DF"/>
</svg>
