<svg width="50" height="50" viewBox="0 0 50 50" fill="none" xmlns="http://www.w3.org/2000/svg">
<path d="M14.5826 33.3338C14.8582 33.3327 15.1309 33.2768 15.3848 33.1696C15.6387 33.0623 15.8688 32.9057 16.0617 32.7088C16.4497 32.3185 16.6675 31.7905 16.6675 31.2401C16.6675 30.6897 16.4497 30.1617 16.0617 29.7713L9.12422 22.9172H30.2284C32.7148 22.9172 35.0994 23.9049 36.8575 25.663C38.6157 27.4212 39.6034 29.8058 39.6034 32.2922C39.6034 34.7786 38.6157 37.1631 36.8575 38.9213C35.0994 40.6794 32.7148 41.6672 30.2284 41.6672H24.9992C24.4467 41.6672 23.9168 41.8867 23.5261 42.2774C23.1354 42.6681 22.9159 43.198 22.9159 43.7505C22.9159 44.303 23.1354 44.8329 23.5261 45.2236C23.9168 45.6143 24.4467 45.8338 24.9992 45.8338H30.2284C33.8199 45.8338 37.2642 44.4071 39.8038 41.8676C42.3433 39.328 43.7701 35.8836 43.7701 32.2922C43.7701 28.7007 42.3433 25.2563 39.8038 22.7168C37.2642 20.1772 33.8199 18.7505 30.2284 18.7505H9.10339L16.0409 11.8963C16.3852 11.5002 16.5674 10.9888 16.5509 10.4642C16.5345 9.93962 16.3206 9.44058 15.9521 9.06685C15.5837 8.69311 15.0877 8.47222 14.5634 8.44833C14.0391 8.42444 13.5252 8.59931 13.1242 8.93799L2.56172 19.3547C2.36863 19.5493 2.21587 19.7802 2.1122 20.034C2.00852 20.2878 1.95597 20.5596 1.95755 20.8338C1.9587 21.1095 2.01453 21.3821 2.12182 21.636C2.2291 21.8899 2.3857 22.12 2.58255 22.313L13.1242 32.7297C13.5123 33.1145 14.036 33.3315 14.5826 33.3338Z" fill="#0D45DF"/>
</svg>
