<svg width="50" height="50" viewBox="0 0 50 50" fill="none" xmlns="http://www.w3.org/2000/svg">
<path d="M10.4165 43.75H39.5832C41.2408 43.75 42.8305 43.0915 44.0026 41.9194C45.1747 40.7473 45.8332 39.1576 45.8332 37.5V12.5C45.8332 10.8424 45.1747 9.25269 44.0026 8.08058C42.8305 6.90848 41.2408 6.25 39.5832 6.25H10.4165C8.7589 6.25 7.16919 6.90848 5.99709 8.08058C4.82498 9.25269 4.1665 10.8424 4.1665 12.5V37.5C4.1665 39.1576 4.82498 40.7473 5.99709 41.9194C7.16919 43.0915 8.7589 43.75 10.4165 43.75ZM41.6665 27.0833H31.2498V22.9167H41.6665V27.0833ZM8.33317 12.5C8.33317 11.9475 8.55267 11.4176 8.94337 11.0269C9.33407 10.6362 9.86397 10.4167 10.4165 10.4167H39.5832C40.1357 10.4167 40.6656 10.6362 41.0563 11.0269C41.447 11.4176 41.6665 11.9475 41.6665 12.5V18.75H29.1665C28.614 18.75 28.0841 18.9695 27.6934 19.3602C27.3027 19.7509 27.0832 20.2808 27.0832 20.8333V29.1667C27.0832 29.7192 27.3027 30.2491 27.6934 30.6398C28.0841 31.0305 28.614 31.25 29.1665 31.25H41.6665V37.5C41.6665 38.0525 41.447 38.5824 41.0563 38.9731C40.6656 39.3638 40.1357 39.5833 39.5832 39.5833H10.4165C9.86397 39.5833 9.33407 39.3638 8.94337 38.9731C8.55267 38.5824 8.33317 38.0525 8.33317 37.5V12.5Z" fill="#0D45DF"/>
</svg>
