<svg width="50" height="50" viewBox="0 0 50 50" fill="none" xmlns="http://www.w3.org/2000/svg">
<path d="M24.9992 10.4166C7.04086 10.4166 2.3742 23.7708 2.1867 24.3333C2.04063 24.7657 2.04063 25.2342 2.1867 25.6666C2.3742 26.2291 7.04086 39.5833 24.9992 39.5833C42.9575 39.5833 47.6242 26.2291 47.9159 25.6666C48.0619 25.2342 48.0619 24.7657 47.9159 24.3333C47.6242 23.7708 42.9575 10.4166 24.9992 10.4166ZM24.9992 35.4166C12.1034 35.4166 7.52003 27.4375 6.41586 25C7.4992 22.625 12.1659 14.5833 24.9992 14.5833C37.8325 14.5833 42.4992 22.5833 43.5825 25C42.4992 27.375 37.8325 35.4166 24.9992 35.4166Z" fill="#0D45DF"/>
<path d="M24.9998 16.6666C23.3517 16.6666 21.7405 17.1554 20.3701 18.071C18.9997 18.9867 17.9316 20.2882 17.3008 21.8109C16.6701 23.3337 16.5051 25.0092 16.8266 26.6257C17.1482 28.2422 17.9418 29.7271 19.1073 30.8925C20.2727 32.058 21.7576 32.8516 23.3741 33.1732C24.9906 33.4947 26.6662 33.3297 28.1889 32.699C29.7116 32.0682 31.0131 31.0001 31.9288 29.6297C32.8444 28.2593 33.3332 26.6481 33.3332 25C33.3332 22.7898 32.4552 20.6702 30.8924 19.1074C29.3296 17.5446 27.21 16.6666 24.9998 16.6666ZM24.9998 29.1666C24.1758 29.1666 23.3702 28.9223 22.685 28.4644C21.9998 28.0066 21.4657 27.3558 21.1503 26.5945C20.835 25.8331 20.7525 24.9953 20.9132 24.1871C21.074 23.3788 21.4708 22.6364 22.0536 22.0537C22.6363 21.471 23.3787 21.0741 24.187 20.9134C24.9952 20.7526 25.833 20.8351 26.5944 21.1505C27.3557 21.4658 28.0065 21.9999 28.4643 22.6851C28.9221 23.3703 29.1665 24.1759 29.1665 25C29.1665 26.105 28.7275 27.1648 27.9461 27.9462C27.1647 28.7276 26.1049 29.1666 24.9998 29.1666Z" fill="#0D45DF"/>
</svg>
