<svg width="50" height="50" viewBox="0 0 50 50" fill="none" xmlns="http://www.w3.org/2000/svg">
<path d="M39.5832 6.25H10.4165C8.7589 6.25 7.16919 6.90848 5.99709 8.08058C4.82498 9.25269 4.1665 10.8424 4.1665 12.5V37.5C4.1665 39.1576 4.82498 40.7473 5.99709 41.9194C7.16919 43.0915 8.7589 43.75 10.4165 43.75H39.5832C41.2408 43.75 42.8305 43.0915 44.0026 41.9194C45.1747 40.7473 45.8332 39.1576 45.8332 37.5V12.5C45.8332 10.8424 45.1747 9.25269 44.0026 8.08058C42.8305 6.90848 41.2408 6.25 39.5832 6.25ZM41.6665 37.5C41.6665 38.0525 41.447 38.5824 41.0563 38.9731C40.6656 39.3638 40.1357 39.5833 39.5832 39.5833H10.4165C9.86397 39.5833 9.33407 39.3638 8.94337 38.9731C8.55266 38.5824 8.33317 38.0525 8.33317 37.5V12.5C8.33317 11.9475 8.55266 11.4176 8.94337 11.0269C9.33407 10.6362 9.86397 10.4167 10.4165 10.4167H39.5832C40.1357 10.4167 40.6656 10.6362 41.0563 11.0269C41.447 11.4176 41.6665 11.9475 41.6665 12.5V37.5Z" fill="#0D45DF"/>
<path d="M34.3749 23.1877L19.7915 14.8544C19.4748 14.6715 19.1156 14.5753 18.7499 14.5753C18.3842 14.5753 18.0249 14.6715 17.7082 14.8544C17.3903 15.0379 17.1265 15.3022 16.9436 15.6205C16.7606 15.9388 16.6651 16.2998 16.6665 16.6669V33.3335C16.6651 33.7006 16.7606 34.0616 16.9436 34.3799C17.1265 34.6982 17.3903 34.9625 17.7082 35.146C18.0257 35.326 18.3849 35.4194 18.7499 35.4169C19.1148 35.4194 19.474 35.326 19.7915 35.146L34.3749 26.8127C34.6955 26.631 34.9622 26.3675 35.1477 26.0491C35.3332 25.7307 35.431 25.3687 35.431 25.0002C35.431 24.6317 35.3332 24.2697 35.1477 23.9513C34.9622 23.6329 34.6955 23.3694 34.3749 23.1877ZM20.8332 29.7502V20.2502L29.1665 25.0002L20.8332 29.7502Z" fill="#0D45DF"/>
</svg>
