<svg width="50" height="50" viewBox="0 0 50 50" fill="none" xmlns="http://www.w3.org/2000/svg">
<path d="M32.4373 24.312C34.22 22.7909 35.4934 20.7598 36.0859 18.4926C36.6784 16.2253 36.5615 13.8309 35.7509 11.6321C34.9403 9.43339 33.4751 7.53603 31.5527 6.19588C29.6303 4.85572 27.3432 4.13721 24.9998 4.13721C22.6564 4.13721 20.3694 4.85572 18.447 6.19588C16.5246 7.53603 15.0594 9.43339 14.2488 11.6321C13.4382 13.8309 13.3213 16.2253 13.9138 18.4926C14.5063 20.7598 15.7797 22.7909 17.5623 24.312C13.6254 25.8167 10.2374 28.48 7.84571 31.9503C5.45403 35.4207 4.17116 39.5349 4.1665 43.7495C4.1665 44.3021 4.386 44.832 4.7767 45.2227C5.1674 45.6134 5.6973 45.8329 6.24984 45.8329C6.80237 45.8329 7.33228 45.6134 7.72298 45.2227C8.11368 44.832 8.33317 44.3021 8.33317 43.7495C8.33317 39.3292 10.0891 35.09 13.2147 31.9644C16.3403 28.8388 20.5796 27.0829 24.9998 27.0829C29.4201 27.0829 33.6594 28.8388 36.785 31.9644C39.9106 35.09 41.6665 39.3292 41.6665 43.7495C41.6665 44.3021 41.886 44.832 42.2767 45.2227C42.6674 45.6134 43.1973 45.8329 43.7498 45.8329C44.3024 45.8329 44.8323 45.6134 45.223 45.2227C45.6137 44.832 45.8332 44.3021 45.8332 43.7495C45.8285 39.5349 44.5457 35.4207 42.154 31.9503C39.7623 28.48 36.3743 25.8167 32.4373 24.312ZM24.9998 22.9162C23.5577 22.9162 22.1479 22.4885 20.9488 21.6873C19.7497 20.8861 18.8151 19.7473 18.2632 18.4149C17.7113 17.0825 17.5669 15.6164 17.8483 14.202C18.1296 12.7875 18.8241 11.4883 19.8439 10.4685C20.8636 9.44878 22.1629 8.75431 23.5773 8.47296C24.9918 8.19161 26.4579 8.33601 27.7902 8.8879C29.1226 9.43979 30.2614 10.3744 31.0626 11.5735C31.8639 12.7726 32.2915 14.1824 32.2915 15.6245C32.2915 17.5584 31.5233 19.4131 30.1558 20.7805C28.7884 22.148 26.9337 22.9162 24.9998 22.9162Z" fill="#0D45DF"/>
</svg>
