<svg width="50" height="50" viewBox="0 0 50 50" fill="none" xmlns="http://www.w3.org/2000/svg">
<path d="M6.24984 39.5834C5.6973 39.5834 5.1674 39.8029 4.7767 40.1936C4.386 40.5843 4.1665 41.1142 4.1665 41.6667C4.1665 42.2192 4.386 42.7491 4.7767 43.1398C5.1674 43.5305 5.6973 43.75 6.24984 43.75H43.7498C44.3024 43.75 44.8323 43.5305 45.223 43.1398C45.6137 42.7491 45.8332 42.2192 45.8332 41.6667C45.8332 41.1142 45.6137 40.5843 45.223 40.1936C44.8323 39.8029 44.3024 39.5834 43.7498 39.5834H6.24984Z" fill="#0D45DF"/>
<path d="M25.0002 35.4165C25.5528 35.4165 26.0827 35.197 26.4734 34.8063C26.8641 34.4156 27.0836 33.8857 27.0836 33.3332V11.2707L33.9377 18.1457C34.1314 18.3409 34.3618 18.4959 34.6157 18.6017C34.8696 18.7075 35.1419 18.7619 35.4169 18.7619C35.6919 18.7619 35.9642 18.7075 36.2181 18.6017C36.472 18.4959 36.7024 18.3409 36.8961 18.1457C37.0913 17.952 37.2463 17.7216 37.3521 17.4677C37.4579 17.2138 37.5123 16.9415 37.5123 16.6665C37.5123 16.3915 37.4579 16.1192 37.3521 15.8653C37.2463 15.6114 37.0913 15.381 36.8961 15.1873L26.4794 4.77067C26.2857 4.5754 26.0553 4.42041 25.8014 4.31464C25.5476 4.20887 25.2753 4.15442 25.0002 4.15442C24.7252 4.15442 24.4529 4.20887 24.199 4.31464C23.9452 4.42041 23.7147 4.5754 23.5211 4.77067L13.1044 15.1873C12.7121 15.5796 12.4917 16.1117 12.4917 16.6665C12.4917 17.2213 12.7121 17.7534 13.1044 18.1457C13.4967 18.538 14.0288 18.7584 14.5836 18.7584C15.1384 18.7584 15.6704 18.538 16.0627 18.1457L22.9169 11.2707V33.3332C22.9169 33.8857 23.1364 34.4156 23.5271 34.8063C23.9178 35.197 24.4477 35.4165 25.0002 35.4165Z" fill="#0D45DF"/>
</svg>
