<svg width="50" height="50" viewBox="0 0 50 50" fill="none" xmlns="http://www.w3.org/2000/svg">
<path d="M6.24987 45.8337H14.5832C14.8574 45.8353 15.1292 45.7828 15.383 45.6791C15.6368 45.5754 15.8677 45.4227 16.0624 45.2296L41.0624 20.2296C41.2576 20.0359 41.4126 19.8055 41.5184 19.5516C41.6242 19.2977 41.6786 19.0254 41.6786 18.7504C41.6786 18.4754 41.6242 18.2031 41.5184 17.9492C41.4126 17.6953 41.2576 17.4649 41.0624 17.2712L32.729 8.9379C32.5354 8.74263 32.3049 8.58765 32.0511 8.48188C31.7972 8.37611 31.5249 8.32166 31.2499 8.32166C30.9748 8.32166 30.7025 8.37611 30.4487 8.48188C30.1948 8.58765 29.9644 8.74263 29.7707 8.9379L4.77071 33.9379C4.57762 34.1326 4.42486 34.3634 4.32118 34.6173C4.21751 34.8711 4.16495 35.1429 4.16654 35.4171V43.7504C4.16654 44.3029 4.38603 44.8328 4.77673 45.2235C5.16743 45.6143 5.69734 45.8337 6.24987 45.8337ZM8.33321 36.2712L31.2499 13.3546L36.6457 18.7504L13.729 41.6671H8.33321V36.2712Z" fill="#0D45DF"/>
<path d="M36.896 4.77077C36.7017 4.57653 36.4711 4.42244 36.2173 4.31731C35.9635 4.21219 35.6915 4.15808 35.4168 4.15808C34.862 4.15808 34.3299 4.37847 33.9376 4.77077C33.5453 5.16307 33.325 5.69514 33.325 6.24994C33.325 6.80473 33.5453 7.33681 33.9376 7.72911L42.271 16.0624C42.4646 16.2577 42.6951 16.4127 42.9489 16.5185C43.2028 16.6242 43.4751 16.6787 43.7501 16.6787C44.0252 16.6787 44.2975 16.6242 44.5513 16.5185C44.8052 16.4127 45.0356 16.2577 45.2293 16.0624C45.4246 15.8688 45.5796 15.6384 45.6853 15.3845C45.7911 15.1306 45.8456 14.8583 45.8456 14.5833C45.8456 14.3083 45.7911 14.0359 45.6853 13.7821C45.5796 13.5282 45.4246 13.2978 45.2293 13.1041L36.896 4.77077Z" fill="#0D45DF"/>
</svg>
