<svg width="50" height="50" viewBox="0 0 50 50" fill="none" xmlns="http://www.w3.org/2000/svg">
<path d="M37.5 25C37.5 24.4474 37.2805 23.9175 36.8898 23.5268C36.4991 23.1361 35.9692 22.9166 35.4167 22.9166H14.5833C14.0308 22.9166 13.5009 23.1361 13.1102 23.5268C12.7195 23.9175 12.5 24.4474 12.5 25C12.5 25.5525 12.7195 26.0824 13.1102 26.4731C13.5009 26.8638 14.0308 27.0833 14.5833 27.0833H35.4167C35.9692 27.0833 36.4991 26.8638 36.8898 26.4731C37.2805 26.0824 37.5 25.5525 37.5 25Z" fill="#0D45DF"/>
<path d="M43.75 12.4999C43.75 11.9474 43.5305 11.4175 43.1398 11.0268C42.7491 10.6361 42.2192 10.4166 41.6667 10.4166H8.33333C7.7808 10.4166 7.25089 10.6361 6.86019 11.0268C6.46949 11.4175 6.25 11.9474 6.25 12.4999C6.25 13.0524 6.46949 13.5823 6.86019 13.973C7.25089 14.3637 7.7808 14.5832 8.33333 14.5832H41.6667C42.2192 14.5832 42.7491 14.3637 43.1398 13.973C43.5305 13.5823 43.75 13.0524 43.75 12.4999Z" fill="#0D45DF"/>
<path d="M18.7498 35.4166C18.1973 35.4166 17.6674 35.6361 17.2767 36.0268C16.886 36.4175 16.6665 36.9474 16.6665 37.4999C16.6665 38.0524 16.886 38.5823 17.2767 38.973C17.6674 39.3637 18.1973 39.5832 18.7498 39.5832H31.2498C31.8024 39.5832 32.3323 39.3637 32.723 38.973C33.1137 38.5823 33.3332 38.0524 33.3332 37.4999C33.3332 36.9474 33.1137 36.4175 32.723 36.0268C32.3323 35.6361 31.8024 35.4166 31.2498 35.4166H18.7498Z" fill="#0D45DF"/>
</svg>
