<svg width="50" height="50" viewBox="0 0 50 50" fill="none" xmlns="http://www.w3.org/2000/svg">
<path d="M40.354 21.0208C39.6594 17.4553 37.7489 14.2415 34.9488 11.9276C32.1486 9.6138 28.6323 8.34341 24.9998 8.33326C22.1019 8.32135 19.2586 9.12098 16.7917 10.6416C14.3248 12.1623 12.3329 14.3432 11.0415 16.9374C8.34228 17.4766 5.92736 18.9694 4.23838 21.1428C2.54939 23.3163 1.69923 26.0251 1.84337 28.7738C1.98751 31.5226 3.11632 34.1276 5.02335 36.1124C6.93039 38.0973 9.4882 39.3294 12.229 39.5833C12.6659 39.615 13.1046 39.615 13.5415 39.5833H38.5415C40.8611 39.5703 43.0935 38.6979 44.8073 37.1346C46.521 35.5713 47.5943 33.4281 47.8197 31.1195C48.0452 28.8108 47.4067 26.5006 46.0277 24.6353C44.6488 22.77 42.6273 21.4822 40.354 21.0208ZM38.5415 35.4166H13.5415H12.729C10.7951 35.4166 8.94046 34.6484 7.57301 33.2809C6.20555 31.9135 5.43733 30.0588 5.43733 28.1249C5.43733 26.1911 6.20555 24.3364 7.57301 22.9689C8.94046 21.6015 10.7951 20.8333 12.729 20.8333C13.1017 20.7946 13.4571 20.6562 13.7578 20.4326C14.0584 20.2089 14.2932 19.9083 14.4373 19.5624C15.4093 17.1734 17.1602 15.183 19.4058 13.9144C21.6514 12.6458 24.2598 12.1734 26.8077 12.5739C29.3556 12.9744 31.6933 14.2243 33.4414 16.1207C35.1895 18.0172 36.2452 20.4488 36.4373 23.0208C36.4743 23.5476 36.71 24.0408 37.0968 24.4005C37.4835 24.7602 37.9925 24.9596 38.5207 24.9583C39.902 24.9583 41.2268 25.507 42.2035 26.4837C43.1803 27.4605 43.729 28.7853 43.729 30.1666C43.729 31.5479 43.1803 32.8727 42.2035 33.8494C41.2268 34.8262 39.902 35.3749 38.5207 35.3749L38.5415 35.4166Z" fill="#0D45DF"/>
</svg>
