<svg width="50" height="50" viewBox="0 0 50 50" fill="none" xmlns="http://www.w3.org/2000/svg">
<path d="M38.5415 37.5001C40.8611 37.4872 43.0935 36.6147 44.8073 35.0514C46.521 33.4881 47.5943 31.345 47.8197 29.0364C48.0452 26.7277 47.4067 24.4174 46.0277 22.5521C44.6488 20.6869 42.6273 19.3991 40.354 18.9376C39.6594 15.3722 37.7489 12.1583 34.9488 9.84451C32.1486 7.53067 28.6323 6.26028 24.9998 6.25013C22.1019 6.23822 19.2586 7.03785 16.7917 8.55848C14.3248 10.0791 12.3329 12.26 11.0415 14.8543C8.34228 15.3935 5.92736 16.8863 4.23838 19.0597C2.54939 21.2331 1.69923 23.9419 1.84337 26.6907C1.98751 29.4394 3.11632 32.0445 5.02335 34.0293C6.93039 36.0142 9.4882 37.2462 12.229 37.5001C12.6659 37.5319 13.1046 37.5319 13.5415 37.5001H22.9165V41.6668H6.24983C5.69729 41.6668 5.16739 41.8863 4.77669 42.277C4.38599 42.6677 4.16649 43.1976 4.16649 43.7501C4.16649 44.3027 4.38599 44.8326 4.77669 45.2233C5.16739 45.614 5.69729 45.8335 6.24983 45.8335H43.7498C44.3024 45.8335 44.8323 45.614 45.223 45.2233C45.6137 44.8326 45.8332 44.3027 45.8332 43.7501C45.8332 43.1976 45.6137 42.6677 45.223 42.277C44.8323 41.8863 44.3024 41.6668 43.7498 41.6668H27.0832V37.5001H38.5415ZM13.5415 33.3335H12.729C10.7951 33.3335 8.94046 32.5652 7.57301 31.1978C6.20555 29.8303 5.43733 27.9757 5.43733 26.0418C5.43733 24.1079 6.20555 22.2533 7.57301 20.8858C8.94046 19.5184 10.7951 18.7501 12.729 18.7501C13.1017 18.7115 13.4571 18.5731 13.7578 18.3494C14.0584 18.1258 14.2932 17.8252 14.4373 17.4793C15.4093 15.0903 17.1602 13.0999 19.4058 11.8313C21.6514 10.5626 24.2598 10.0902 26.8077 10.4908C29.3556 10.8913 31.6933 12.1412 33.4414 14.0376C35.1895 15.934 36.2452 18.3656 36.4373 20.9376C36.4743 21.4645 36.71 21.9577 37.0968 22.3174C37.4835 22.6771 37.9925 22.8764 38.5207 22.8751C39.902 22.8751 41.2268 23.4239 42.2035 24.4006C43.1803 25.3774 43.729 26.7021 43.729 28.0835C43.729 29.4648 43.1803 30.7896 42.2035 31.7663C41.2268 32.7431 39.902 33.2918 38.5207 33.2918L13.5415 33.3335Z" fill="#0D45DF"/>
</svg>
