<svg width="50" height="50" viewBox="0 0 50 50" fill="none" xmlns="http://www.w3.org/2000/svg">
<path d="M8.33333 27.0833H41.6667C42.2192 27.0833 42.7491 26.8638 43.1398 26.4731C43.5305 26.0824 43.75 25.5525 43.75 25C43.75 24.4474 43.5305 23.9175 43.1398 23.5268C42.7491 23.1361 42.2192 22.9166 41.6667 22.9166H8.33333C7.7808 22.9166 7.25089 23.1361 6.86019 23.5268C6.46949 23.9175 6.25 24.4474 6.25 25C6.25 25.5525 6.46949 26.0824 6.86019 26.4731C7.25089 26.8638 7.7808 27.0833 8.33333 27.0833Z" fill="#0D45DF"/>
<path d="M41.6667 10.4166H8.33333C7.7808 10.4166 7.25089 10.6361 6.86019 11.0268C6.46949 11.4175 6.25 11.9474 6.25 12.4999C6.25 13.0524 6.46949 13.5823 6.86019 13.973C7.25089 14.3637 7.7808 14.5832 8.33333 14.5832H41.6667C42.2192 14.5832 42.7491 14.3637 43.1398 13.973C43.5305 13.5823 43.75 13.0524 43.75 12.4999C43.75 11.9474 43.5305 11.4175 43.1398 11.0268C42.7491 10.6361 42.2192 10.4166 41.6667 10.4166Z" fill="#0D45DF"/>
<path d="M8.33333 39.5832H41.6667C42.2192 39.5832 42.7491 39.3637 43.1398 38.973C43.5305 38.5823 43.75 38.0524 43.75 37.4999C43.75 36.9474 43.5305 36.4175 43.1398 36.0268C42.7491 35.6361 42.2192 35.4166 41.6667 35.4166H8.33333C7.7808 35.4166 7.25089 35.6361 6.86019 36.0268C6.46949 36.4175 6.25 36.9474 6.25 37.4999C6.25 38.0524 6.46949 38.5823 6.86019 38.973C7.25089 39.3637 7.7808 39.5832 8.33333 39.5832Z" fill="#0D45DF"/>
</svg>
