<svg width="50" height="50" viewBox="0 0 50 50" fill="none" xmlns="http://www.w3.org/2000/svg">
<path d="M24.9996 14.5832C23.7496 14.5832 22.9163 15.4165 22.9163 16.6665V27.0832C22.9163 28.3332 23.7496 29.1665 24.9996 29.1665C26.2496 29.1665 27.0829 28.3332 27.0829 27.0832V16.6665C27.0829 15.4165 26.2496 14.5832 24.9996 14.5832Z" fill="#0D45DF"/>
<path d="M24.9996 35.4167C26.1502 35.4167 27.0829 34.4839 27.0829 33.3333C27.0829 32.1827 26.1502 31.25 24.9996 31.25C23.849 31.25 22.9163 32.1827 22.9163 33.3333C22.9163 34.4839 23.849 35.4167 24.9996 35.4167Z" fill="#0D45DF"/>
<path d="M43.9579 14.5832L35.4163 6.04157C34.1663 4.79157 32.7079 4.16656 31.0413 4.16656H18.9579C17.2913 4.16656 15.8329 4.79157 14.5829 6.04157L6.04126 14.5832C4.79126 15.8332 4.16626 17.2916 4.16626 18.9582V31.0416C4.16626 32.7082 4.79126 34.1666 6.04126 35.4166L14.5829 43.9582C15.8329 45.2082 17.2913 45.8332 18.9579 45.8332H31.0413C32.7079 45.8332 34.1663 45.2082 35.4163 43.9582L43.9579 35.4166C45.2079 34.1666 45.8329 32.7082 45.8329 31.0416V18.9582C45.8329 17.2916 45.2079 15.8332 43.9579 14.5832ZM41.6663 31.0416C41.6663 31.6666 41.4579 32.0832 41.0413 32.4999L32.4996 41.0416C32.0829 41.4582 31.6663 41.6666 31.0413 41.6666H18.9579C18.3329 41.6666 17.9163 41.4582 17.4996 41.0416L8.95793 32.4999C8.54126 32.0832 8.33293 31.6666 8.33293 31.0416V18.9582C8.33293 18.3332 8.54126 17.9166 8.95793 17.4999L17.4996 8.95823C17.9163 8.54157 18.3329 8.33323 18.9579 8.33323H31.0413C31.6663 8.33323 32.0829 8.54157 32.4996 8.95823L41.0413 17.4999C41.4579 17.9166 41.6663 18.3332 41.6663 18.9582V31.0416Z" fill="#0D45DF"/>
</svg>
