<svg width="50" height="50" viewBox="0 0 50 50" fill="none" xmlns="http://www.w3.org/2000/svg">
<path d="M27.8333 43.1458C28.2213 43.5307 28.7451 43.7477 29.2916 43.75C29.5673 43.7488 29.8399 43.693 30.0938 43.5857C30.3477 43.4784 30.5778 43.3218 30.7708 43.125C31.1588 42.7346 31.3766 42.2066 31.3766 41.6562C31.3766 41.1058 31.1588 40.5778 30.7708 40.1875L15.4583 25L30.7708 9.79163C30.9661 9.59796 31.121 9.36754 31.2268 9.11366C31.3326 8.85979 31.387 8.58749 31.387 8.31246C31.387 8.03744 31.3326 7.76514 31.2268 7.51126C31.121 7.25739 30.9661 7.02697 30.7708 6.8333C30.3804 6.44527 29.8524 6.22748 29.302 6.22748C28.7516 6.22748 28.2236 6.44527 27.8333 6.8333L11.0208 23.5C10.8255 23.6936 10.6705 23.9241 10.5648 24.1779C10.459 24.4318 10.4045 24.7041 10.4045 24.9791C10.4045 25.2542 10.459 25.5265 10.5648 25.7803C10.6705 26.0342 10.8255 26.2646 11.0208 26.4583L27.8333 43.1458Z" fill="#0D45DF"/>
</svg>
