<svg width="50" height="50" viewBox="0 0 50 50" fill="none" xmlns="http://www.w3.org/2000/svg">
<path d="M24.9996 4.16656C20.8792 4.16656 16.8512 5.38842 13.4252 7.67761C9.9992 9.96681 7.32894 13.2205 5.75211 17.0273C4.17529 20.8341 3.76272 25.023 4.56658 29.0643C5.37043 33.1055 7.35462 36.8177 10.2682 39.7313C13.1818 42.6449 16.894 44.6291 20.9352 45.4329C24.9765 46.2368 29.1654 45.8242 32.9722 44.2474C36.779 42.6706 40.0327 40.0003 42.3219 36.5743C44.6111 33.1483 45.8329 29.1203 45.8329 24.9999C45.8329 22.264 45.2941 19.5549 44.2471 17.0273C43.2001 14.4997 41.6656 12.2031 39.731 10.2685C37.7964 8.33395 35.4998 6.79938 32.9722 5.75241C30.4446 4.70544 27.7355 4.16656 24.9996 4.16656ZM24.9996 41.6666C20.5793 41.6666 16.3401 39.9106 13.2145 36.785C10.0889 33.6594 8.33294 29.4202 8.33294 24.9999C8.33083 21.2793 9.58626 17.6672 11.8954 14.7499C11.9433 14.8447 11.9991 14.9353 12.0621 15.0207L35.2079 38.1457C32.2964 40.4311 28.701 41.6712 24.9996 41.6666ZM38.1454 35.2082L15.0204 12.0624C14.935 11.9994 14.8444 11.9436 14.7496 11.8957C17.6669 9.58655 21.279 8.33113 24.9996 8.33323C29.4199 8.33323 33.6591 10.0892 36.7847 13.2148C39.9103 16.3404 41.6663 20.5796 41.6663 24.9999C41.6709 28.7013 40.4308 32.2967 38.1454 35.2082Z" fill="#0D45DF"/>
</svg>
