<svg width="50" height="50" viewBox="0 0 50 50" fill="none" xmlns="http://www.w3.org/2000/svg">
<path d="M8.33333 41.6666H20.8333C20.8333 42.7716 21.2723 43.8314 22.0537 44.6128C22.8351 45.3942 23.8949 45.8332 25 45.8332C26.1051 45.8332 27.1649 45.3942 27.9463 44.6128C28.7277 43.8314 29.1667 42.7716 29.1667 41.6666H31.25C31.8025 41.6666 32.3324 41.4471 32.7231 41.0564C33.1138 40.6657 33.3333 40.1358 33.3333 39.5832C33.3333 39.0307 33.1138 38.5008 32.7231 38.1101C32.3324 37.7194 31.8025 37.4999 31.25 37.4999H12.5V18.7499C12.5 18.1974 12.2805 17.6675 11.8898 17.2768C11.4991 16.8861 10.9692 16.6666 10.4167 16.6666C9.86413 16.6666 9.33423 16.8861 8.94353 17.2768C8.55283 17.6675 8.33333 18.1974 8.33333 18.7499V37.4999C7.7808 37.4999 7.25089 37.7194 6.86019 38.1101C6.46949 38.5008 6.25 39.0307 6.25 39.5832C6.25 40.1358 6.46949 40.6657 6.86019 41.0564C7.25089 41.4471 7.7808 41.6666 8.33333 41.6666Z" fill="#0D45DF"/>
<path d="M6.85453 6.85422C6.65926 7.0479 6.50427 7.27831 6.3985 7.53219C6.29274 7.78606 6.23828 8.05836 6.23828 8.33339C6.23828 8.60841 6.29274 8.88072 6.3985 9.13459C6.50427 9.38846 6.65926 9.61888 6.85453 9.81256L40.1879 43.1459C40.3815 43.3412 40.612 43.4962 40.8658 43.6019C41.1197 43.7077 41.392 43.7621 41.667 43.7621C41.9421 43.7621 42.2144 43.7077 42.4682 43.6019C42.7221 43.4962 42.9525 43.3412 43.1462 43.1459C43.3415 42.9522 43.4965 42.7218 43.6022 42.4679C43.708 42.2141 43.7624 41.9417 43.7624 41.6667C43.7624 41.3917 43.708 41.1194 43.6022 40.8655C43.4965 40.6116 43.3415 40.3812 43.1462 40.1876L41.667 38.7292V22.9167C41.667 18.4964 39.9111 14.2572 36.7855 11.1316C33.6599 8.006 29.4206 6.25006 25.0004 6.25006C20.7882 6.23586 16.7314 7.83921 13.667 10.7292L9.81286 6.85422C9.61919 6.65896 9.38877 6.50397 9.1349 6.3982C8.88102 6.29243 8.60872 6.23798 8.33369 6.23798C8.05867 6.23798 7.78637 6.29243 7.53249 6.3982C7.27862 6.50397 7.0482 6.65896 6.85453 6.85422ZM25.0004 10.4167C28.3156 10.4167 31.495 11.7337 33.8392 14.0779C36.1834 16.4221 37.5004 19.6015 37.5004 22.9167V34.5626L16.667 13.6667C18.9488 11.5926 21.9168 10.4351 25.0004 10.4167Z" fill="#0D45DF"/>
</svg>
