<svg width="50" height="50" viewBox="0 0 50 50" fill="none" xmlns="http://www.w3.org/2000/svg">
<path d="M24.9996 4.16656C20.8792 4.16656 16.8512 5.38842 13.4252 7.67761C9.9992 9.96681 7.32894 13.2205 5.75211 17.0273C4.17529 20.8341 3.76272 25.023 4.56658 29.0643C5.37043 33.1055 7.35462 36.8177 10.2682 39.7313C13.1818 42.6449 16.894 44.6291 20.9352 45.4329C24.9765 46.2368 29.1654 45.8242 32.9722 44.2474C36.779 42.6706 40.0327 40.0003 42.3219 36.5743C44.6111 33.1483 45.8329 29.1203 45.8329 24.9999C45.8329 22.264 45.2941 19.5549 44.2471 17.0273C43.2001 14.4997 41.6656 12.2031 39.731 10.2685C37.7964 8.33395 35.4998 6.79938 32.9722 5.75241C30.4446 4.70544 27.7355 4.16656 24.9996 4.16656ZM22.9163 41.5207C18.9907 41.0181 15.372 39.1349 12.7079 36.2082C15.9094 34.6728 19.3738 33.7607 22.9163 33.5207V41.5207ZM22.9163 29.3124C18.5023 29.5731 14.1898 30.7435 10.2496 32.7499C8.99762 30.3622 8.34358 27.7064 8.34358 25.0103C8.34358 22.3143 8.99762 19.6585 10.2496 17.2707C14.1839 19.3117 18.4949 20.5241 22.9163 20.8332V29.3124ZM22.9163 16.5207C19.3675 16.2634 15.8982 15.3449 12.6871 13.8124C15.3452 10.8632 18.9765 8.96996 22.9163 8.47906V16.5207ZM27.0829 8.47906C31.0227 8.96996 34.654 10.8632 37.3121 13.8124C34.101 15.3449 30.6317 16.2634 27.0829 16.5207V8.47906ZM27.0829 41.5207V33.5207C30.6283 33.7581 34.0945 34.6777 37.2913 36.2291C34.6239 39.1481 31.0057 41.0236 27.0829 41.5207ZM41.6663 24.9999C41.6647 27.7004 41.0069 30.36 39.7496 32.7499C35.8094 30.7435 31.4969 29.5731 27.0829 29.3124V20.8332C31.4998 20.5436 35.8106 19.3525 39.7496 17.3332C40.9939 19.6982 41.6512 22.3276 41.6663 24.9999Z" fill="#0D45DF"/>
</svg>
