<svg width="50" height="50" viewBox="0 0 50 50" fill="none" xmlns="http://www.w3.org/2000/svg">
<path d="M6.24984 45.8332H43.7498C44.3024 45.8332 44.8323 45.6137 45.223 45.223C45.6137 44.8323 45.8332 44.3024 45.8332 43.7499C45.8332 43.1974 45.6137 42.6674 45.223 42.2767C44.8323 41.886 44.3024 41.6666 43.7498 41.6666H27.0832V37.4999H41.6665C42.219 37.4999 42.7489 37.2804 43.1396 36.8897C43.5303 36.499 43.7498 35.9691 43.7498 35.4166V8.33322C43.7498 7.78068 43.5303 7.25078 43.1396 6.86008C42.7489 6.46938 42.219 6.24988 41.6665 6.24988H29.1665C28.8923 6.2483 28.6205 6.30085 28.3667 6.40453C28.1129 6.5082 27.882 6.66096 27.6873 6.85405L24.1457 10.4165H8.33317C7.78064 10.4165 7.25073 10.636 6.86003 11.0267C6.46933 11.4174 6.24984 11.9473 6.24984 12.4999V35.4166C6.24984 35.9691 6.46933 36.499 6.86003 36.8897C7.25073 37.2804 7.78064 37.4999 8.33317 37.4999H22.9165V41.6666H6.24984C5.6973 41.6666 5.1674 41.886 4.7767 42.2767C4.386 42.6674 4.1665 43.1974 4.1665 43.7499C4.1665 44.3024 4.386 44.8323 4.7767 45.223C5.1674 45.6137 5.6973 45.8332 6.24984 45.8332ZM10.4165 33.3332V14.5832H24.9998C25.274 14.5848 25.5458 14.5322 25.7996 14.4286C26.0535 14.3249 26.2843 14.1721 26.479 13.979L30.0207 10.4165H39.5832V33.3332H10.4165Z" fill="#0D45DF"/>
</svg>
