<svg width="50" height="50" viewBox="0 0 50 50" fill="none" xmlns="http://www.w3.org/2000/svg">
<path d="M37.5 45.8333C39.1576 45.8333 40.7473 45.1748 41.9194 44.0027C43.0915 42.8306 43.75 41.2409 43.75 39.5833V10.4166C43.75 8.75899 43.0915 7.16928 41.9194 5.99718C40.7473 4.82508 39.1576 4.1666 37.5 4.1666H12.5C10.8424 4.1666 9.25269 4.82508 8.08058 5.99718C6.90848 7.16928 6.25 8.75899 6.25 10.4166V39.5833C6.25 41.2409 6.90848 42.8306 8.08058 44.0027C9.25269 45.1748 10.8424 45.8333 12.5 45.8333H37.5ZM10.4167 10.4166C10.4167 9.86406 10.6362 9.33416 11.0269 8.94346C11.4176 8.55276 11.9475 8.33326 12.5 8.33326H37.5C38.0525 8.33326 38.5824 8.55276 38.9731 8.94346C39.3638 9.33416 39.5833 9.86406 39.5833 10.4166V24.1458L34.8125 19.3541C34.6188 19.1588 34.3884 19.0038 34.1345 18.8981C33.8807 18.7923 33.6084 18.7379 33.3333 18.7379C33.0583 18.7379 32.786 18.7923 32.5321 18.8981C32.2783 19.0038 32.0478 19.1588 31.8542 19.3541L22.9167 28.3124L18.1458 23.5208C17.9522 23.3255 17.7217 23.1705 17.4679 23.0647C17.214 22.959 16.9417 22.9045 16.6667 22.9045C16.3916 22.9045 16.1193 22.959 15.8655 23.0647C15.6116 23.1705 15.3812 23.3255 15.1875 23.5208L10.4167 28.3124V10.4166ZM10.4167 39.5833V34.1874L16.6667 27.9374L21.4375 32.7291C21.6312 32.9244 21.8616 33.0794 22.1155 33.1851C22.3693 33.2909 22.6416 33.3453 22.9167 33.3453C23.1917 33.3453 23.464 33.2909 23.7179 33.1851C23.9717 33.0794 24.2022 32.9244 24.3958 32.7291L33.3333 23.7708L39.5833 30.0208V39.5833C39.5833 40.1358 39.3638 40.6657 38.9731 41.0564C38.5824 41.4471 38.0525 41.6666 37.5 41.6666H12.5C11.9475 41.6666 11.4176 41.4471 11.0269 41.0564C10.6362 40.6657 10.4167 40.1358 10.4167 39.5833Z" fill="#0D45DF"/>
</svg>
