<svg width="50" height="50" viewBox="0 0 50 50" fill="none" xmlns="http://www.w3.org/2000/svg">
<path d="M32.979 5.1041C32.7903 4.81751 32.5337 4.58198 32.232 4.41843C31.9303 4.25488 31.593 4.16837 31.2498 4.1666H6.24982C5.88827 4.16666 5.53296 4.26081 5.21882 4.43979C4.90469 4.61878 4.64254 4.87643 4.45815 5.18743C4.2753 5.50414 4.17904 5.86339 4.17904 6.2291C4.17904 6.5948 4.2753 6.95406 4.45815 7.27076L14.2915 24.9999L4.43732 42.7291C4.25447 43.0458 4.1582 43.4051 4.1582 43.7708C4.1582 44.1365 4.25447 44.4957 4.43732 44.8124C4.6235 45.1265 4.88893 45.3861 5.20704 45.5653C5.52514 45.7444 5.88475 45.8368 6.24982 45.8333H31.2498C31.593 45.8315 31.9303 45.745 32.232 45.5814C32.5337 45.4179 32.7903 45.1824 32.979 44.8958L45.479 26.1458C45.703 25.8056 45.8224 25.4072 45.8224 24.9999C45.8224 24.5926 45.703 24.1943 45.479 23.8541L32.979 5.1041ZM30.1248 41.6666H9.79148L18.479 26.0208C18.6618 25.7041 18.7581 25.3448 18.7581 24.9791C18.7581 24.6134 18.6618 24.2541 18.479 23.9374L9.79148 8.33326H30.1248L41.2498 24.9999L30.1248 41.6666Z" fill="#0D45DF"/>
</svg>
