<svg width="50" height="50" viewBox="0 0 50 50" fill="none" xmlns="http://www.w3.org/2000/svg">
<path d="M37.5002 14.5834C37.5002 11.2682 36.1832 8.08877 33.839 5.74457C31.4948 3.40036 28.3154 2.0834 25.0002 2.0834C21.685 2.0834 18.5055 3.40036 16.1613 5.74457C13.8171 8.08877 12.5002 11.2682 12.5002 14.5834V21.2084C11.2844 21.6382 10.2314 22.4335 9.48545 23.4854C8.73949 24.5372 8.33712 25.7939 8.3335 27.0834V39.5834C8.3335 41.241 8.99198 42.8307 10.1641 44.0028C11.3362 45.1749 12.9259 45.8334 14.5835 45.8334H35.4168C37.0744 45.8334 38.6641 45.1749 39.8363 44.0028C41.0084 42.8307 41.6668 41.241 41.6668 39.5834V27.0834C41.6675 25.7904 41.2671 24.529 40.5209 23.473C39.7746 22.4171 38.7192 21.6186 37.5002 21.1876C37.5192 21.0703 37.5192 20.9507 37.5002 20.8334V14.5834ZM16.6668 14.5834C16.6668 12.3733 17.5448 10.2537 19.1076 8.69085C20.6704 7.12804 22.79 6.25007 25.0002 6.25007C27.2103 6.25007 29.3299 7.12804 30.8927 8.69085C32.4555 10.2537 33.3335 12.3733 33.3335 14.5834V20.8334H16.6668V14.5834ZM37.5002 27.0834V39.5834C37.5002 40.1359 37.2807 40.6658 36.89 41.0565C36.4993 41.4472 35.9694 41.6667 35.4168 41.6667H14.5835C14.031 41.6667 13.5011 41.4472 13.1104 41.0565C12.7197 40.6658 12.5002 40.1359 12.5002 39.5834V27.0834C12.5002 26.5309 12.7197 26.001 13.1104 25.6103C13.5011 25.2196 14.031 25.0001 14.5835 25.0001H35.4168C35.9694 25.0001 36.4993 25.2196 36.89 25.6103C37.2807 26.001 37.5002 26.5309 37.5002 27.0834Z" fill="#0D45DF"/>
<path d="M24.9998 29.1666C24.4473 29.1666 23.9174 29.3861 23.5267 29.7768C23.136 30.1675 22.9165 30.6974 22.9165 31.2499V33.3333C22.9165 33.8858 23.136 34.4157 23.5267 34.8064C23.9174 35.1971 24.4473 35.4166 24.9998 35.4166C25.5524 35.4166 26.0823 35.1971 26.473 34.8064C26.8637 34.4157 27.0832 33.8858 27.0832 33.3333V31.2499C27.0832 30.6974 26.8637 30.1675 26.473 29.7768C26.0823 29.3861 25.5524 29.1666 24.9998 29.1666Z" fill="#0D45DF"/>
</svg>
