<svg width="50" height="50" viewBox="0 0 50 50" fill="none" xmlns="http://www.w3.org/2000/svg">
<path d="M41.6665 29.1666H35.4165C33.7589 29.1666 32.1692 29.8251 30.9971 30.9972C29.825 32.1693 29.1665 33.759 29.1665 35.4166V41.6666C29.1665 42.2191 29.386 42.749 29.7767 43.1397C30.1674 43.5304 30.6973 43.7499 31.2498 43.7499C31.8024 43.7499 32.3323 43.5304 32.723 43.1397C33.1137 42.749 33.3332 42.2191 33.3332 41.6666V35.4166C33.3332 34.8641 33.5527 34.3342 33.9434 33.9435C34.3341 33.5528 34.864 33.3333 35.4165 33.3333H41.6665C42.219 33.3333 42.7489 33.1138 43.1396 32.7231C43.5303 32.3324 43.7498 31.8025 43.7498 31.2499C43.7498 30.6974 43.5303 30.1675 43.1396 29.7768C42.7489 29.3861 42.219 29.1666 41.6665 29.1666Z" fill="#0D45DF"/>
<path d="M18.75 43.7499C19.3025 43.7499 19.8324 43.5304 20.2231 43.1397C20.6138 42.749 20.8333 42.2191 20.8333 41.6666V35.4166C20.8333 33.759 20.1749 32.1693 19.0028 30.9972C17.8307 29.8251 16.2409 29.1666 14.5833 29.1666H8.33333C7.7808 29.1666 7.25089 29.3861 6.86019 29.7768C6.46949 30.1675 6.25 30.6974 6.25 31.2499C6.25 31.8025 6.46949 32.3324 6.86019 32.7231C7.25089 33.1138 7.7808 33.3333 8.33333 33.3333H14.5833C15.1359 33.3333 15.6658 33.5528 16.0565 33.9435C16.4472 34.3342 16.6667 34.8641 16.6667 35.4166V41.6666C16.6667 42.2191 16.8862 42.749 17.2769 43.1397C17.6676 43.5304 18.1975 43.7499 18.75 43.7499Z" fill="#0D45DF"/>
<path d="M41.6665 16.6667H35.4165C34.864 16.6667 34.3341 16.4472 33.9434 16.0565C33.5527 15.6658 33.3332 15.1359 33.3332 14.5833V8.33333C33.3332 7.7808 33.1137 7.25089 32.723 6.86019C32.3323 6.46949 31.8024 6.25 31.2498 6.25C30.6973 6.25 30.1674 6.46949 29.7767 6.86019C29.386 7.25089 29.1665 7.7808 29.1665 8.33333V14.5833C29.1665 16.2409 29.825 17.8307 30.9971 19.0028C32.1692 20.1749 33.7589 20.8333 35.4165 20.8333H41.6665C42.219 20.8333 42.7489 20.6138 43.1396 20.2231C43.5303 19.8324 43.7498 19.3025 43.7498 18.75C43.7498 18.1975 43.5303 17.6676 43.1396 17.2769C42.7489 16.8862 42.219 16.6667 41.6665 16.6667Z" fill="#0D45DF"/>
<path d="M20.8333 8.33333C20.8333 7.7808 20.6138 7.25089 20.2231 6.86019C19.8324 6.46949 19.3025 6.25 18.75 6.25C18.1975 6.25 17.6676 6.46949 17.2769 6.86019C16.8862 7.25089 16.6667 7.7808 16.6667 8.33333V14.5833C16.6667 15.1359 16.4472 15.6658 16.0565 16.0565C15.6658 16.4472 15.1359 16.6667 14.5833 16.6667H8.33333C7.7808 16.6667 7.25089 16.8862 6.86019 17.2769C6.46949 17.6676 6.25 18.1975 6.25 18.75C6.25 19.3025 6.46949 19.8324 6.86019 20.2231C7.25089 20.6138 7.7808 20.8333 8.33333 20.8333H14.5833C16.2409 20.8333 17.8307 20.1749 19.0028 19.0028C20.1749 17.8307 20.8333 16.2409 20.8333 14.5833V8.33333Z" fill="#0D45DF"/>
</svg>
