<svg width="50" height="50" viewBox="0 0 50 50" fill="none" xmlns="http://www.w3.org/2000/svg">
<path d="M10.4167 29.1667C12.7178 29.1667 14.5833 27.3013 14.5833 25.0001C14.5833 22.6989 12.7178 20.8334 10.4167 20.8334C8.11548 20.8334 6.25 22.6989 6.25 25.0001C6.25 27.3013 8.11548 29.1667 10.4167 29.1667Z" fill="#0D45DF"/>
<path d="M25.0004 29.1667C27.3016 29.1667 29.1671 27.3013 29.1671 25.0001C29.1671 22.6989 27.3016 20.8334 25.0004 20.8334C22.6992 20.8334 20.8337 22.6989 20.8337 25.0001C20.8337 27.3013 22.6992 29.1667 25.0004 29.1667Z" fill="#0D45DF"/>
<path d="M39.5829 29.1667C41.8841 29.1667 43.7496 27.3013 43.7496 25.0001C43.7496 22.6989 41.8841 20.8334 39.5829 20.8334C37.2817 20.8334 35.4163 22.6989 35.4163 25.0001C35.4163 27.3013 37.2817 29.1667 39.5829 29.1667Z" fill="#0D45DF"/>
</svg>
