<svg width="50" height="50" viewBox="0 0 50 50" fill="none" xmlns="http://www.w3.org/2000/svg">
<path d="M25.0002 2.0834C20.4677 2.0834 16.037 3.42744 12.2684 5.94556C8.49973 8.46367 5.56244 12.0428 3.82793 16.2302C2.09343 20.4177 1.6396 25.0255 2.52384 29.4709C3.40809 33.9163 5.59069 37.9996 8.79564 41.2046C12.0006 44.4096 16.084 46.5922 20.5294 47.4764C24.9748 48.3606 29.5825 47.9068 33.77 46.1723C37.9575 44.4378 41.5366 41.5005 44.0547 37.7319C46.5728 33.9633 47.9168 29.5326 47.9168 25.0001C47.9097 18.9244 45.4929 13.0996 41.1968 8.80346C36.9006 4.5073 31.0759 2.09057 25.0002 2.0834ZM25.0002 43.7501C21.2918 43.7501 17.6667 42.6504 14.5832 40.5901C11.4998 38.5299 9.09658 35.6015 7.67743 32.1754C6.25829 28.7493 5.88698 24.9793 6.61045 21.3421C7.33392 17.705 9.11969 14.3641 11.7419 11.7418C14.3642 9.11958 17.7051 7.33382 21.3422 6.61035C24.9794 5.88687 28.7494 6.25819 32.1755 7.67733C35.6016 9.09647 38.53 11.4997 40.5902 14.5831C42.6505 17.6666 43.7502 21.2917 43.7502 25.0001C43.7447 29.9712 41.7675 34.7371 38.2523 38.2522C34.7372 41.7673 29.9713 43.7446 25.0002 43.7501Z" fill="#0D45DF"/>
<path d="M34.0082 18.2562L22.9791 28.3666L18.1395 23.5271C17.9473 23.3281 17.7174 23.1694 17.4632 23.0602C17.2091 22.951 16.9357 22.8935 16.6591 22.8911C16.3824 22.8887 16.1081 22.9414 15.8521 23.0462C15.596 23.1509 15.3634 23.3056 15.1678 23.5012C14.9722 23.6969 14.8175 23.9295 14.7128 24.1855C14.608 24.4415 14.5553 24.7159 14.5577 24.9925C14.5601 25.2691 14.6176 25.5425 14.7268 25.7967C14.8359 26.0508 14.9947 26.2807 15.1936 26.4729L21.4436 32.7229C21.8233 33.1026 22.3349 33.3211 22.8717 33.3327C23.4085 33.3444 23.9291 33.1483 24.3249 32.7854L36.8249 21.3271C37.2321 20.9536 37.4743 20.4336 37.4981 19.8815C37.5219 19.3294 37.3255 18.7905 36.952 18.3833C36.5785 17.9761 36.0585 17.7339 35.5064 17.7101C34.9544 17.6863 34.4154 17.8827 34.0082 18.2562Z" fill="#0D45DF"/>
</svg>
