<svg width="50" height="50" viewBox="0 0 50 50" fill="none" xmlns="http://www.w3.org/2000/svg">
<path d="M43.392 20.6605L26.7586 37.2917C24.9223 39.1933 22.4235 40.3136 19.7821 40.4196C17.1407 40.5255 14.5601 39.6089 12.5774 37.8605C11.6092 36.9489 10.834 35.8521 10.2978 34.6352C9.76153 33.4183 9.47521 32.1061 9.45577 30.7765C9.43634 29.4468 9.6842 28.1268 10.1846 26.8947C10.6851 25.6627 11.4279 24.5437 12.3691 23.6042L26.5357 9.43757C27.6527 8.35309 29.1515 7.7516 30.7083 7.76308C32.265 7.77456 33.7548 8.39809 34.8556 9.49892C35.9565 10.5998 36.58 12.0895 36.5915 13.6463C36.6029 15.2031 36.0015 16.7019 34.917 17.8188L20.7503 31.9855C20.3848 32.3325 19.9001 32.526 19.3961 32.526C18.8922 32.526 18.4074 32.3325 18.042 31.9855C17.6857 31.6248 17.486 31.1383 17.486 30.6313C17.486 30.1244 17.6857 29.6378 18.042 29.2772L29.3691 17.9501C29.7603 17.5567 29.9792 17.024 29.9776 16.4692C29.976 15.9144 29.7541 15.3829 29.3607 14.9917C28.9673 14.6005 28.4346 14.3816 27.8798 14.3832C27.325 14.3848 26.7936 14.6067 26.4024 15.0001L15.0753 26.323C13.9358 27.466 13.2959 29.0142 13.2959 30.6282C13.2959 32.2422 13.9358 33.7904 15.0753 34.9334C16.2349 36.0404 17.7764 36.658 19.3795 36.658C20.9826 36.658 22.5241 36.0404 23.6836 34.9334L37.8503 20.7667C38.803 19.8325 39.561 18.7187 40.0805 17.4897C40.6 16.2607 40.8706 14.9409 40.8768 13.6067C40.883 12.2724 40.6246 10.9501 40.1166 9.71637C39.6085 8.4826 38.8609 7.36181 37.9169 6.41881C36.973 5.47581 35.8514 4.72933 34.6171 4.22253C33.3828 3.71573 32.0603 3.45867 30.726 3.46623C29.3918 3.47378 28.0723 3.7458 26.8438 4.26655C25.6153 4.7873 24.5023 5.54644 23.5691 6.50007L9.40239 20.6667C8.06737 22.0011 7.01398 23.59 6.30474 25.3393C5.5955 27.0885 5.24485 28.9624 5.27361 30.8497C5.30237 32.737 5.70994 34.5993 6.47215 36.3262C7.23436 38.053 8.33567 39.6091 9.71073 40.9021C12.291 43.3002 15.6925 44.6176 19.2149 44.5834C23.1496 44.5823 26.9228 43.0183 29.7045 40.2355L46.3378 23.6022C46.5368 23.41 46.6955 23.1801 46.8047 22.9259C46.9139 22.6717 46.9714 22.3984 46.9738 22.1217C46.9762 21.8451 46.9234 21.5708 46.8187 21.3147C46.7139 21.0587 46.5592 20.8261 46.3636 20.6305C46.168 20.4349 45.9354 20.2802 45.6794 20.1754C45.4234 20.0707 45.149 20.018 44.8724 20.0204C44.5958 20.0228 44.3224 20.0803 44.0682 20.1894C43.814 20.2986 43.5842 20.4573 43.392 20.6563V20.6605Z" fill="#0D45DF"/>
</svg>
