<svg width="50" height="50" viewBox="0 0 50 50" fill="none" xmlns="http://www.w3.org/2000/svg">
<path d="M25.0002 2.0834C20.4677 2.0834 16.037 3.42744 12.2684 5.94556C8.49973 8.46367 5.56244 12.0428 3.82793 16.2302C2.09343 20.4177 1.6396 25.0255 2.52384 29.4709C3.40809 33.9163 5.59069 37.9996 8.79564 41.2046C12.0006 44.4096 16.084 46.5922 20.5294 47.4764C24.9748 48.3606 29.5825 47.9068 33.77 46.1723C37.9575 44.4378 41.5366 41.5005 44.0547 37.7319C46.5728 33.9633 47.9168 29.5326 47.9168 25.0001C47.9097 18.9244 45.4929 13.0996 41.1968 8.80346C36.9006 4.5073 31.0759 2.09057 25.0002 2.0834ZM25.0002 43.7501C21.2918 43.7501 17.6667 42.6504 14.5832 40.5901C11.4998 38.5299 9.09658 35.6015 7.67743 32.1754C6.25829 28.7493 5.88698 24.9793 6.61045 21.3421C7.33392 17.705 9.11969 14.3641 11.7419 11.7418C14.3642 9.11958 17.7051 7.33382 21.3422 6.61035C24.9794 5.88687 28.7494 6.25819 32.1755 7.67733C35.6016 9.09647 38.53 11.4997 40.5902 14.5831C42.6505 17.6666 43.7502 21.2917 43.7502 25.0001C43.7441 29.971 41.7667 34.7366 38.2517 38.2516C34.7367 41.7666 29.9711 43.744 25.0002 43.7501Z" fill="#0D45DF"/>
<path d="M33.3337 22.9167H27.0837V16.6667C27.0837 16.1142 26.8642 15.5843 26.4735 15.1936C26.0828 14.8029 25.5529 14.5834 25.0004 14.5834C24.4479 14.5834 23.918 14.8029 23.5273 15.1936C23.1366 15.5843 22.9171 16.1142 22.9171 16.6667V22.9167H16.6671C16.1145 22.9167 15.5846 23.1362 15.1939 23.5269C14.8032 23.9176 14.5837 24.4475 14.5837 25.0001C14.5837 25.5526 14.8032 26.0825 15.1939 26.4732C15.5846 26.8639 16.1145 27.0834 16.6671 27.0834H22.9171V33.3334C22.9171 33.8859 23.1366 34.4158 23.5273 34.8065C23.918 35.1972 24.4479 35.4167 25.0004 35.4167C25.5529 35.4167 26.0828 35.1972 26.4735 34.8065C26.8642 34.4158 27.0837 33.8859 27.0837 33.3334V27.0834H33.3337C33.8863 27.0834 34.4162 26.8639 34.8069 26.4732C35.1976 26.0825 35.4171 25.5526 35.4171 25.0001C35.4171 24.4475 35.1976 23.9176 34.8069 23.5269C34.4162 23.1362 33.8863 22.9167 33.3337 22.9167Z" fill="#0D45DF"/>
</svg>
