<svg width="50" height="50" viewBox="0 0 50 50" fill="none" xmlns="http://www.w3.org/2000/svg">
<path d="M42.1732 7.98116C41.8035 7.57072 41.2859 7.32391 40.7343 7.295C40.1827 7.26609 39.6421 7.45745 39.2315 7.82699L19.867 25.2541L10.8482 16.2353C10.656 16.0363 10.4261 15.8776 10.172 15.7684C9.91779 15.6593 9.64442 15.6018 9.36779 15.5994C9.09117 15.597 8.81684 15.6497 8.5608 15.7544C8.30477 15.8592 8.07216 16.0139 7.87655 16.2095C7.68094 16.4051 7.52625 16.6377 7.4215 16.8938C7.31674 17.1498 7.26403 17.4241 7.26644 17.7007C7.26884 17.9774 7.32631 18.2507 7.4355 18.5049C7.54468 18.7591 7.70339 18.989 7.90237 19.1812L18.319 29.5978C18.6964 29.975 19.2041 30.1931 19.7374 30.207C20.2708 30.221 20.7892 30.0298 21.1857 29.6728L42.019 10.9228C42.4295 10.5531 42.6763 10.0355 42.7052 9.48391C42.7341 8.93227 42.5428 8.39174 42.1732 7.98116Z" fill="#0D45DF"/>
<path d="M39.2314 20.3271L19.8668 37.7542L10.848 28.7355C10.4551 28.356 9.92886 28.146 9.38261 28.1507C8.83637 28.1555 8.31384 28.3746 7.92758 28.7608C7.54131 29.1471 7.32221 29.6696 7.31746 30.2159C7.31271 30.7621 7.5227 31.2884 7.9022 31.6813L18.3189 42.098C18.6962 42.4752 19.2039 42.6932 19.7372 42.7072C20.2706 42.7211 20.789 42.5299 21.1855 42.173L42.0189 23.423C42.4169 23.0501 42.6528 22.536 42.676 21.9911C42.6992 21.4461 42.5077 20.9139 42.1428 20.5086C41.7778 20.1032 41.2685 19.8572 40.7241 19.8233C40.1798 19.7894 39.6438 19.9703 39.2314 20.3271Z" fill="#0D45DF"/>
</svg>
