<svg width="50" height="50" viewBox="0 0 50 50" fill="none" xmlns="http://www.w3.org/2000/svg">
<path d="M6.25 39.5834C6.25 45.5313 21.875 45.8334 25 45.8334C28.125 45.8334 43.75 45.5313 43.75 39.5834V10.4167C43.75 4.46877 28.125 4.16669 25 4.16669C21.875 4.16669 6.25 4.46877 6.25 10.4167V39.5834ZM25 8.33335C29.7636 8.10302 34.526 8.81087 39.0167 10.4167C34.526 12.0225 29.7636 12.7304 25 12.5C20.2364 12.7304 15.474 12.0225 10.9833 10.4167C15.474 8.81087 20.2364 8.10302 25 8.33335ZM10.4167 14.6667C15.1477 16.0713 20.0655 16.7457 25 16.6667C29.9345 16.7457 34.8523 16.0713 39.5833 14.6667V24.6438C38.5292 25.5354 33.425 27.0834 25 27.0834C16.575 27.0834 11.4708 25.5354 10.4167 24.6438V14.6667ZM10.4167 29.25C15.1477 30.6546 20.0655 31.3291 25 31.25C29.9345 31.3291 34.8523 30.6546 39.5833 29.25V39.2334C38.5042 40.1292 33.3958 41.6667 25 41.6667C16.6042 41.6667 11.4958 40.1292 10.4167 39.2334V29.25Z" fill="#0D45DF"/>
</svg>
