<svg width="50" height="50" viewBox="0 0 50 50" fill="none" xmlns="http://www.w3.org/2000/svg">
<path d="M25.0002 47.9169C29.5327 47.9169 33.9634 46.5728 37.732 44.0547C41.5006 41.5366 44.4379 37.9575 46.1724 33.77C47.9069 29.5826 48.3607 24.9748 47.4765 20.5294C46.5923 16.084 44.4097 12.0006 41.2047 8.79567C37.9997 5.59072 33.9164 3.40812 29.471 2.52387C25.0256 1.63963 20.4178 2.09346 16.2303 3.82796C12.0429 5.56247 8.46377 8.49976 5.94565 12.2684C3.42753 16.037 2.0835 20.4677 2.0835 25.0002C2.09066 31.0759 4.50739 36.9007 8.80355 41.1968C13.0997 45.493 18.9245 47.9097 25.0002 47.9169ZM25.0002 6.2502C28.7086 6.2502 32.3337 7.34987 35.4171 9.41015C38.5005 11.4704 40.9038 14.3988 42.3229 17.8249C43.7421 21.251 44.1134 25.021 43.3899 28.6581C42.6664 32.2953 40.8806 35.6362 38.2584 38.2585C35.6362 40.8807 32.2953 42.6665 28.6581 43.3899C25.021 44.1134 21.251 43.7421 17.8248 42.323C14.3987 40.9038 11.4704 38.5006 9.41011 35.4171C7.34983 32.3337 6.25016 28.7086 6.25016 25.0002C6.25568 20.0291 8.23289 15.2632 11.748 11.748C15.2631 8.23293 20.029 6.25572 25.0002 6.2502Z" fill="#0D45DF"/>
<path d="M17.2775 32.723C17.6681 33.1136 18.1979 33.333 18.7504 33.333C19.3028 33.333 19.8326 33.1136 20.2233 32.723L25.0004 27.9459L29.7775 32.723C30.1704 33.1025 30.6966 33.3125 31.2429 33.3077C31.7891 33.303 32.3116 33.0839 32.6979 32.6976C33.0842 32.3114 33.3033 31.7888 33.308 31.2426C33.3128 30.6963 33.1028 30.1701 32.7233 29.7772L27.9462 25.0001L32.7233 20.223C33.1028 19.8301 33.3128 19.3038 33.308 18.7576C33.3033 18.2113 33.0842 17.6888 32.6979 17.3025C32.3116 16.9163 31.7891 16.6972 31.2429 16.6924C30.6966 16.6877 30.1704 16.8977 29.7775 17.2772L25.0004 22.0543L20.2233 17.2772C19.8304 16.8977 19.3041 16.6877 18.7579 16.6924C18.2116 16.6972 17.6891 16.9163 17.3028 17.3025C16.9166 17.6888 16.6975 18.2113 16.6927 18.7576C16.688 19.3038 16.898 19.8301 17.2775 20.223L22.0545 25.0001L17.2775 29.7772C16.8869 30.1679 16.6675 30.6977 16.6675 31.2501C16.6675 31.8025 16.8869 32.3323 17.2775 32.723Z" fill="#0D45DF"/>
</svg>
