<svg width="50" height="50" viewBox="0 0 50 50" fill="none" xmlns="http://www.w3.org/2000/svg">
<path d="M25.0002 2.08319C20.4677 2.08319 16.037 3.42723 12.2684 5.94535C8.49973 8.46346 5.56244 12.0426 3.82793 16.23C2.09343 20.4175 1.6396 25.0253 2.52384 29.4707C3.40809 33.9161 5.59069 37.9994 8.79564 41.2044C12.0006 44.4093 16.084 46.5919 20.5294 47.4762C24.9748 48.3604 29.5825 47.9066 33.77 46.1721C37.9575 44.4376 41.5366 41.5003 44.0547 37.7317C46.5728 33.963 47.9168 29.5323 47.9168 24.9999C47.9097 18.9242 45.4929 13.0994 41.1968 8.80324C36.9006 4.50709 31.0759 2.09036 25.0002 2.08319ZM25.0002 43.7499C21.2918 43.7499 17.6667 42.6502 14.5832 40.5899C11.4998 38.5296 9.09658 35.6013 7.67743 32.1752C6.25829 28.7491 5.88698 24.9791 6.61045 21.3419C7.33392 17.7048 9.11969 14.3638 11.7419 11.7416C14.3642 9.11937 17.7051 7.33361 21.3422 6.61013C24.9794 5.88666 28.7494 6.25797 32.1755 7.67712C35.6016 9.09626 38.53 11.4995 40.5902 14.5829C42.6505 17.6663 43.7502 21.2915 43.7502 24.9999C43.7441 29.9708 41.7667 34.7364 38.2517 38.2514C34.7367 41.7664 29.9711 43.7438 25.0002 43.7499Z" fill="#0D45DF"/>
<path d="M24.9998 12.5C24.4473 12.5 23.9174 12.7195 23.5267 13.1102C23.136 13.5009 22.9165 14.0308 22.9165 14.5833V29.1667C22.9165 29.7192 23.136 30.2491 23.5267 30.6398C23.9174 31.0305 24.4473 31.25 24.9998 31.25C25.5524 31.25 26.0823 31.0305 26.473 30.6398C26.8637 30.2491 27.0832 29.7192 27.0832 29.1667V14.5833C27.0832 14.0308 26.8637 13.5009 26.473 13.1102C26.0823 12.7195 25.5524 12.5 24.9998 12.5Z" fill="#0D45DF"/>
<path d="M24.9998 37.4999C26.1504 37.4999 27.0832 36.5671 27.0832 35.4165C27.0832 34.2659 26.1504 33.3332 24.9998 33.3332C23.8492 33.3332 22.9165 34.2659 22.9165 35.4165C22.9165 36.5671 23.8492 37.4999 24.9998 37.4999Z" fill="#0D45DF"/>
</svg>
