<svg width="50" height="50" viewBox="0 0 50 50" fill="none" xmlns="http://www.w3.org/2000/svg">
<path d="M33.3339 5.20814C30.2711 5.11588 27.2892 6.1998 25.0006 8.23731C22.7119 6.1998 19.73 5.11588 16.6672 5.20814C14.8769 5.20202 13.1076 5.5929 11.4865 6.35265C9.86543 7.11239 8.43296 8.2221 7.29222 9.60189C5.3068 12.0102 3.22764 16.3706 4.60472 23.479C6.80472 34.8248 23.2839 44.1373 23.9797 44.5206C24.2899 44.6936 24.6392 44.7844 24.9943 44.7844C25.3494 44.7844 25.6987 44.6936 26.0089 44.5206C26.711 44.1311 43.1901 34.8186 45.3839 23.479C46.761 16.3706 44.6839 12.0206 42.6985 9.60189C41.559 8.22324 40.1283 7.11419 38.5091 6.35448C36.8899 5.59477 35.1224 5.20327 33.3339 5.20814ZM41.3089 22.6852C39.7568 30.6998 28.4797 38.1561 25.0047 40.2852C21.5297 38.1561 10.2526 30.7019 8.70055 22.6852C7.6318 17.1727 9.0943 13.9706 10.511 12.254C11.2608 11.3492 12.2018 10.6218 13.2662 10.124C14.3306 9.62617 15.4921 9.37031 16.6672 9.37481C17.9212 9.28076 19.1781 9.51325 20.3154 10.0496C21.4527 10.586 22.4317 11.4079 23.1568 12.4352C23.3344 12.7634 23.5969 13.0378 23.9168 13.2299C24.2368 13.4219 24.6024 13.5245 24.9755 13.5269H25.0006C25.3714 13.5243 25.7351 13.424 26.0548 13.236C26.3744 13.0479 26.6389 12.7789 26.8214 12.4561C27.5455 11.4208 28.527 10.5921 29.669 10.0518C30.811 9.51146 32.0742 9.27813 33.3339 9.37481C34.5104 9.36908 35.6735 9.62434 36.7395 10.1222C37.8054 10.6201 38.7477 11.3481 39.4985 12.254C40.911 13.9706 42.3735 17.1727 41.3047 22.6852H41.3089Z" fill="#0D45DF"/>
</svg>
