<svg width="50" height="50" viewBox="0 0 50 50" fill="none" xmlns="http://www.w3.org/2000/svg">
<path d="M25.0002 2.08319C20.4677 2.08319 16.037 3.42723 12.2684 5.94535C8.49973 8.46346 5.56244 12.0426 3.82793 16.23C2.09343 20.4175 1.6396 25.0253 2.52384 29.4707C3.40809 33.9161 5.59069 37.9994 8.79564 41.2044C12.0006 44.4093 16.084 46.5919 20.5294 47.4762C24.9748 48.3604 29.5825 47.9066 33.77 46.1721C37.9575 44.4376 41.5366 41.5003 44.0547 37.7317C46.5728 33.963 47.9168 29.5323 47.9168 24.9999C47.9097 18.9242 45.4929 13.0994 41.1968 8.80324C36.9006 4.50709 31.0759 2.09036 25.0002 2.08319ZM25.0002 43.7499C21.2918 43.7499 17.6667 42.6502 14.5832 40.5899C11.4998 38.5296 9.09658 35.6013 7.67743 32.1752C6.25829 28.7491 5.88698 24.9791 6.61045 21.3419C7.33392 17.7048 9.11969 14.3638 11.7419 11.7416C14.3642 9.11937 17.7051 7.33361 21.3422 6.61013C24.9794 5.88666 28.7494 6.25797 32.1755 7.67712C35.6016 9.09626 38.53 11.4995 40.5902 14.5829C42.6505 17.6663 43.7502 21.2915 43.7502 24.9999C43.7441 29.9708 41.7667 34.7364 38.2517 38.2514C34.7367 41.7664 29.9711 43.7438 25.0002 43.7499Z" fill="#0D45DF"/>
<path d="M29.5999 11.8022C28.4133 11.0211 27.0491 10.5513 25.6331 10.4362C24.2171 10.3212 22.7949 10.5645 21.4978 11.1439C20.035 11.7943 18.7964 12.8616 17.9371 14.2122C17.0778 15.5629 16.6358 17.137 16.6665 18.7376V18.7501C16.6682 19.3027 16.8893 19.8319 17.2812 20.2214C17.673 20.611 18.2036 20.8289 18.7561 20.8272C19.3087 20.8256 19.8379 20.6045 20.2274 20.2126C20.617 19.8207 20.8349 19.2902 20.8332 18.7376C20.8119 17.958 21.0171 17.1888 21.4238 16.5233C21.8305 15.8578 22.4213 15.3244 23.1249 14.9876C23.7883 14.6751 24.5208 14.5378 25.2525 14.5889C25.9841 14.6399 26.6904 14.8776 27.304 15.2793C27.8518 15.6416 28.3062 16.1282 28.6301 16.6994C28.954 17.2707 29.1383 17.9105 29.168 18.5665C29.1976 19.2225 29.0718 19.8763 28.8007 20.4745C28.5297 21.0726 28.121 21.5983 27.6082 22.0085C26.1822 23.0975 25.0199 24.4939 24.2077 26.0939C23.3955 27.6938 22.9541 29.4562 22.9165 31.2501C22.9175 31.5237 22.9723 31.7944 23.0779 32.0468C23.1835 32.2992 23.3378 32.5284 23.5319 32.7211C23.726 32.9139 23.9562 33.0666 24.2094 33.1704C24.4625 33.2742 24.7336 33.3271 25.0072 33.3262C25.2808 33.3252 25.5515 33.2704 25.8039 33.1648C26.0563 33.0592 26.2854 32.905 26.4782 32.7108C26.6709 32.5167 26.8236 32.2865 26.9274 32.0334C27.0312 31.7802 27.0842 31.5091 27.0832 31.2355C27.1232 30.0679 27.4247 28.9242 27.9655 27.8886C28.5064 26.8531 29.2728 25.9521 30.2082 25.2522C31.232 24.4313 32.0475 23.3803 32.5882 22.1846C33.129 20.9889 33.3797 19.6825 33.32 18.3716C33.2603 17.0606 32.8919 15.7824 32.2447 14.6408C31.5975 13.4992 30.6899 12.5266 29.5957 11.8022H29.5999Z" fill="#0D45DF"/>
<path d="M24.9996 39.5835C26.1502 39.5835 27.0829 38.6507 27.0829 37.5001C27.0829 36.3496 26.1502 35.4168 24.9996 35.4168C23.849 35.4168 22.9163 36.3496 22.9163 37.5001C22.9163 38.6507 23.849 39.5835 24.9996 39.5835Z" fill="#0D45DF"/>
</svg>
