<svg width="50" height="50" viewBox="0 0 50 50" fill="none" xmlns="http://www.w3.org/2000/svg">
<path d="M45.8329 43.7501V16.6668C45.8328 16.1143 45.6132 15.5845 45.2225 15.1939L34.8058 4.77723C34.4152 4.3865 33.8854 4.16693 33.3329 4.16681H6.24959C5.69706 4.16681 5.16715 4.3863 4.77645 4.777C4.38575 5.1677 4.16626 5.69761 4.16626 6.25014V43.7501C4.16626 44.3027 4.38575 44.8326 4.77645 45.2233C5.16715 45.614 5.69706 45.8335 6.24959 45.8335H43.7496C44.3021 45.8335 44.832 45.614 45.2227 45.2233C45.6134 44.8326 45.8329 44.3027 45.8329 43.7501ZM31.2496 41.6668H18.7496V31.2501H31.2496V41.6668ZM41.6663 41.6668H35.4163V29.1668C35.4163 28.6143 35.1968 28.0844 34.8061 27.6937C34.4154 27.303 33.8855 27.0835 33.3329 27.0835H16.6663C16.1137 27.0835 15.5838 27.303 15.1931 27.6937C14.8024 28.0844 14.5829 28.6143 14.5829 29.1668V41.6668H8.33293V8.33348H32.4704L41.6663 17.5293V41.6668Z" fill="#0D45DF"/>
<path d="M25.0004 16.6668H16.6671C16.1145 16.6668 15.5846 16.8863 15.1939 17.277C14.8032 17.6677 14.5837 18.1976 14.5837 18.7501C14.5837 19.3027 14.8032 19.8326 15.1939 20.2233C15.5846 20.614 16.1145 20.8335 16.6671 20.8335H25.0004C25.5529 20.8335 26.0828 20.614 26.4735 20.2233C26.8642 19.8326 27.0837 19.3027 27.0837 18.7501C27.0837 18.1976 26.8642 17.6677 26.4735 17.277C26.0828 16.8863 25.5529 16.6668 25.0004 16.6668Z" fill="#0D45DF"/>
</svg>
