<svg width="50" height="50" viewBox="0 0 50 50" fill="none" xmlns="http://www.w3.org/2000/svg">
<path d="M7.32292 47.6561C7.64831 47.8364 8.01603 47.9262 8.38788 47.9163C8.75973 47.9064 9.12215 47.7972 9.4375 47.5999L25 37.8728L40.5625 47.5999C40.8779 47.797 41.2402 47.9061 41.612 47.9158C41.9837 47.9256 42.3513 47.8357 42.6766 47.6554C43.0019 47.4751 43.2729 47.211 43.4617 46.8906C43.6505 46.5702 43.75 46.2051 43.75 45.8332V8.33319C43.75 6.67559 43.0915 5.08588 41.9194 3.91377C40.7473 2.74167 39.1576 2.08319 37.5 2.08319H12.5C10.8424 2.08319 9.25269 2.74167 8.08058 3.91377C6.90848 5.08588 6.25 6.67559 6.25 8.33319V45.8332C6.24982 46.2052 6.34923 46.5704 6.5379 46.8909C6.72657 47.2115 6.99763 47.4757 7.32292 47.6561ZM10.4167 8.33319C10.4167 7.78066 10.6362 7.25075 11.0269 6.86005C11.4176 6.46935 11.9475 6.24986 12.5 6.24986H37.5C38.0525 6.24986 38.5824 6.46935 38.9731 6.86005C39.3638 7.25075 39.5833 7.78066 39.5833 8.33319V42.0832L26.1042 33.6582C25.7731 33.4513 25.3905 33.3415 25 33.3415C24.6095 33.3415 24.2269 33.4513 23.8958 33.6582L10.4167 42.0832V8.33319Z" fill="#0D45DF"/>
</svg>
