<svg width="50" height="50" viewBox="0 0 50 50" fill="none" xmlns="http://www.w3.org/2000/svg">
<path d="M25.0002 2.08319C20.4677 2.08319 16.037 3.42723 12.2684 5.94535C8.49973 8.46346 5.56244 12.0426 3.82793 16.23C2.09343 20.4175 1.6396 25.0253 2.52384 29.4707C3.40809 33.9161 5.59069 37.9994 8.79564 41.2044C12.0006 44.4093 16.084 46.5919 20.5294 47.4762C24.9748 48.3604 29.5825 47.9066 33.77 46.1721C37.9575 44.4376 41.5366 41.5003 44.0547 37.7317C46.5728 33.963 47.9168 29.5323 47.9168 24.9999C47.9097 18.9242 45.4929 13.0994 41.1968 8.80324C36.9006 4.50709 31.0759 2.09036 25.0002 2.08319ZM25.0002 43.7499C21.2918 43.7499 17.6667 42.6502 14.5832 40.5899C11.4998 38.5296 9.09658 35.6013 7.67743 32.1752C6.25829 28.7491 5.88698 24.9791 6.61045 21.3419C7.33392 17.7048 9.11969 14.3638 11.7419 11.7416C14.3642 9.11937 17.7051 7.33361 21.3422 6.61013C24.9794 5.88666 28.7494 6.25797 32.1755 7.67712C35.6016 9.09626 38.53 11.4995 40.5902 14.5829C42.6505 17.6663 43.7502 21.2915 43.7502 24.9999C43.7447 29.971 41.7675 34.7369 38.2523 38.252C34.7372 41.7671 29.9713 43.7443 25.0002 43.7499Z" fill="#0D45DF"/>
<path d="M33.3337 22.9168H16.6671C16.1145 22.9168 15.5846 23.1363 15.1939 23.527C14.8032 23.9177 14.5837 24.4476 14.5837 25.0001C14.5837 25.5527 14.8032 26.0826 15.1939 26.4733C15.5846 26.864 16.1145 27.0835 16.6671 27.0835H33.3337C33.8863 27.0835 34.4162 26.864 34.8069 26.4733C35.1976 26.0826 35.4171 25.5527 35.4171 25.0001C35.4171 24.4476 35.1976 23.9177 34.8069 23.527C34.4162 23.1363 33.8863 22.9168 33.3337 22.9168Z" fill="#0D45DF"/>
</svg>
