<svg width="50" height="50" viewBox="0 0 50 50" fill="none" xmlns="http://www.w3.org/2000/svg">
<path d="M19.3467 43.147C19.5404 43.3423 19.7708 43.4973 20.0247 43.6031C20.2786 43.7088 20.5509 43.7633 20.8259 43.7633C21.1009 43.7633 21.3732 43.7088 21.6271 43.6031C21.881 43.4973 22.1114 43.3423 22.305 43.147L38.9717 26.4804C39.1648 26.2857 39.3176 26.0548 39.4212 25.801C39.5249 25.5472 39.5775 25.2754 39.5759 25.0012C39.5775 24.727 39.5249 24.4552 39.4212 24.2014C39.3176 23.9476 39.1648 23.7167 38.9717 23.522L22.305 6.85537C22.1108 6.66112 21.8802 6.50703 21.6264 6.40191C21.3726 6.29678 21.1006 6.24268 20.8259 6.24268C20.5512 6.24268 20.2792 6.29678 20.0254 6.40191C19.7716 6.50703 19.541 6.66112 19.3467 6.85537C18.9544 7.24767 18.734 7.77974 18.734 8.33453C18.734 8.88933 18.9544 9.4214 19.3467 9.8137L34.555 25.022L19.3467 40.1887C19.1514 40.3824 18.9965 40.6128 18.8907 40.8667C18.7849 41.1205 18.7305 41.3928 18.7305 41.6679C18.7305 41.9429 18.7849 42.2152 18.8907 42.4691C18.9965 42.7229 19.1514 42.9534 19.3467 43.147Z" fill="#0D45DF"/>
</svg>
