<svg width="50" height="50" viewBox="0 0 50 50" fill="none" xmlns="http://www.w3.org/2000/svg">
<path d="M24.9772 34.316C24.4958 34.3119 24.0349 34.1208 23.6917 33.7833L5.5099 15.6015C5.1787 15.2586 4.99544 14.7993 4.99958 14.3226C5.00372 13.8459 5.19494 13.3898 5.53204 13.0527C5.86915 12.7156 6.32517 12.5244 6.80189 12.5203C7.27862 12.5161 7.73789 12.6994 8.08081 13.0306L24.9772 29.927L41.8735 13.0306C42.0413 12.8569 42.2419 12.7184 42.4637 12.6231C42.6855 12.5278 42.9241 12.4777 43.1655 12.4756C43.4069 12.4735 43.6464 12.5195 43.8698 12.6109C44.0933 12.7023 44.2963 12.8373 44.467 13.0081C44.6377 13.1788 44.7727 13.3818 44.8641 13.6052C44.9555 13.8287 45.0015 14.0681 44.9994 14.3095C44.9973 14.5509 44.9472 14.7895 44.8519 15.0113C44.7566 15.2332 44.6181 15.4338 44.4444 15.6015L26.2626 33.7833C25.9194 34.1208 25.4585 34.3119 24.9772 34.316Z" fill="#0D45DF"/>
</svg>
