<svg width="50" height="50" viewBox="0 0 50 50" fill="none" xmlns="http://www.w3.org/2000/svg">
<path d="M41.9148 33.8089L24.9995 16.8937L8.08425 33.8089C7.74096 34.1405 7.28116 34.324 6.80391 34.3198C6.32666 34.3157 5.87012 34.1242 5.53264 33.7867C5.19516 33.4493 5.00373 32.9927 4.99958 32.5155C4.99543 32.0382 5.1789 31.5784 5.51047 31.2351L23.7126 13.033C24.054 12.6918 24.5169 12.5001 24.9995 12.5001C25.4822 12.5001 25.9451 12.6918 26.2864 13.033L44.4886 31.2351C44.8201 31.5784 45.0036 32.0382 44.9994 32.5155C44.9953 32.9927 44.8039 33.4493 44.4664 33.7867C44.1289 34.1242 43.6724 34.3157 43.1951 34.3198C42.7179 34.324 42.2581 34.1405 41.9148 33.8089Z" fill="#0D45DF"/>
</svg>
