<svg width="50" height="50" viewBox="0 0 50 50" fill="none" xmlns="http://www.w3.org/2000/svg">
<path d="M47.6929 2.30899C47.4505 2.06604 47.1432 1.8981 46.8079 1.82526C46.4725 1.75242 46.1232 1.77777 45.8019 1.89827L4.45545 17.4036C3.7038 17.6826 3.05026 18.1755 2.57541 18.8216C2.10056 19.4676 1.82518 20.2384 1.78322 21.0391C1.74126 21.8398 1.93456 22.6352 2.33928 23.3273C2.744 24.0194 3.34244 24.5779 4.0608 24.934L18.0644 31.9358L25.0662 45.9393C25.4014 46.6254 25.9234 47.2029 26.5723 47.6053C27.2212 48.0078 27.9705 48.2189 28.734 48.2143H28.9608C29.7622 48.1791 30.5352 47.9074 31.1825 47.4336C31.8298 46.9598 32.3224 46.3051 32.5983 45.5518L48.1037 4.19827C48.2238 3.87716 48.2489 3.52826 48.1761 3.19324C48.1033 2.85821 47.9356 2.55124 47.6929 2.30899ZM29.2537 44.2858C29.2209 44.388 29.1569 44.4774 29.0708 44.5414C28.9847 44.6055 28.8806 44.641 28.7733 44.6429C28.6678 44.649 28.5629 44.6238 28.4717 44.5704C28.3805 44.517 28.3071 44.4379 28.2608 44.3429L21.5679 30.9501L29.8358 22.6822C30.1611 22.3454 30.3411 21.8943 30.337 21.4261C30.3329 20.9579 30.1451 20.51 29.8141 20.179C29.483 19.8479 29.0351 19.6601 28.5669 19.656C28.0987 19.6519 27.6476 19.8319 27.3108 20.1572L19.0429 28.4251L5.65902 21.7411C5.562 21.6962 5.48067 21.6232 5.42548 21.5316C5.37029 21.44 5.34378 21.334 5.34935 21.2272C5.35492 21.1204 5.39232 21.0177 5.45673 20.9324C5.52115 20.847 5.60964 20.7829 5.7108 20.7483L43.3787 6.62327L29.2537 44.2858Z" fill="#0D45DF"/>
</svg>
