<svg width="50" height="50" viewBox="0 0 50 50" fill="none" xmlns="http://www.w3.org/2000/svg">
<path d="M36.1296 4.16739C39.0447 4.16739 41.6609 6.19186 42.2692 9.24794L45.8228 27.984L45.8276 39.5841C45.8276 42.9574 43.0972 45.8341 39.5776 45.8341H10.4109C7.03756 45.8341 4.18527 43.0668 4.16089 39.5841V27.9702L7.7192 9.24794C8.26465 6.38433 10.7733 4.16739 13.8588 4.16739H36.1296ZM8.32756 30.2091V39.5841C8.32756 40.6274 9.14962 41.6674 10.4109 41.6674H39.5776C40.6758 41.6674 41.6609 40.7557 41.6609 39.5841V30.2091H33.064C32.1035 33.9806 28.7219 36.4591 24.9942 36.4591C21.2666 36.4591 17.8139 33.8789 16.9234 30.2091H8.32756ZM13.8588 8.33406C12.9141 8.33406 11.9933 8.99792 11.8123 10.0276L8.75985 26.0424H18.7442C19.8425 26.0424 20.8276 26.901 20.8276 28.1257C20.8276 30.4269 22.693 32.2924 24.9942 32.2924C27.2257 32.2924 29.1666 30.5024 29.1666 28.1257C29.1666 26.7803 30.2248 26.0424 31.2442 26.0424H41.2265L38.1762 10.0276C38.0098 9.15414 37.2191 8.33406 36.1296 8.33406H13.8588Z" fill="#0D45DF"/>
</svg>
