<svg width="50" height="50" viewBox="0 0 50 50" fill="none" xmlns="http://www.w3.org/2000/svg">
<path d="M24.9301 37.9165H22.0134V12.0831H31.1801V14.4443C31.1801 15.6248 32.0829 16.5276 33.2634 16.5276C34.444 16.5276 35.3468 15.6248 35.3468 14.4443V9.99981C35.3468 8.81925 34.444 7.91647 33.2634 7.91647H6.59676C5.41621 7.91647 4.51343 8.81925 4.51343 9.99981V14.4443C4.51343 15.6248 5.41621 16.5276 6.59676 16.5276C7.77732 16.5276 8.68009 15.6248 8.68009 14.4443V12.0831H17.8468V37.847H14.9301C13.7495 37.847 12.8468 38.7498 12.8468 39.9304C12.8468 41.1109 13.7495 42.0137 14.9301 42.0137H24.9301C26.1107 42.0137 27.0134 41.1109 27.0134 39.9304C27.0134 38.7498 26.0412 37.9165 24.9301 37.9165Z" fill="#0D45DF"/>
<path d="M43.402 18.5417H27.5687C26.3881 18.5417 25.4854 19.4444 25.4854 20.625V23.4722C25.4854 24.6528 26.3881 25.5555 27.5687 25.5555C28.7492 25.5555 29.652 24.6528 29.652 23.4722V22.7083H33.402V37.9167H32.2909C31.1104 37.9167 30.2076 38.8194 30.2076 40C30.2076 41.1805 31.1104 42.0833 32.2909 42.0833H38.7493C39.9298 42.0833 40.8326 41.1805 40.8326 40C40.8326 38.8194 39.9298 37.9167 38.7493 37.9167H37.5687V22.7083H41.3187V23.4722C41.3187 24.6528 42.2215 25.5555 43.402 25.5555C44.5826 25.5555 45.4854 24.6528 45.4854 23.4722V20.625C45.4854 19.5139 44.5826 18.5417 43.402 18.5417Z" fill="#0D45DF"/>
</svg>
