<svg width="50" height="50" viewBox="0 0 50 50" fill="none" xmlns="http://www.w3.org/2000/svg">
<path d="M8.47249 8.33326H9.79194V23.6805C9.79194 32.0833 16.5975 38.8888 25.0003 38.8888C33.403 38.8888 40.2086 32.0833 40.2086 23.6805V8.33326H41.528C42.7086 8.33326 43.6114 7.43048 43.6114 6.24993C43.6114 5.06937 42.7086 4.1666 41.528 4.1666H34.7225C33.5419 4.1666 32.6392 5.06937 32.6392 6.24993C32.6392 7.43048 33.5419 8.33326 34.7225 8.33326H36.0419V23.6805C36.0419 29.7916 31.1114 34.7221 25.0003 34.7221C18.8892 34.7221 13.9586 29.7916 13.9586 23.6805V8.33326H15.278C16.4586 8.33326 17.3614 7.43048 17.3614 6.24993C17.3614 5.06937 16.4586 4.1666 15.278 4.1666H8.47249C7.29194 4.1666 6.38916 5.06937 6.38916 6.24993C6.38916 7.43048 7.36138 8.33326 8.47249 8.33326Z" fill="#0D45DF"/>
<path d="M41.6667 41.6664H8.33333C7.15278 41.6664 6.25 42.5692 6.25 43.7497C6.25 44.9303 7.15278 45.8331 8.33333 45.8331H41.6667C42.8472 45.8331 43.75 44.9303 43.75 43.7497C43.75 42.5692 42.8472 41.6664 41.6667 41.6664Z" fill="#0D45DF"/>
</svg>
