<svg width="50" height="50" viewBox="0 0 50 50" fill="none" xmlns="http://www.w3.org/2000/svg">
<path d="M34.1661 23.75C38.68 19.0277 38.4022 11.5277 33.68 7.08329C31.5272 4.99996 28.6106 3.88885 25.6245 3.88885H11.5272C10.2078 3.88885 9.09668 4.99996 9.09668 6.3194C9.09668 7.63885 10.2078 8.74996 11.5272 8.74996H13.8189V41.3888H11.5272C10.2078 41.3888 9.09668 42.5 9.09668 43.8194C9.09668 45.1388 10.2078 46.25 11.5272 46.25H29.0967C35.6245 46.25 40.9022 40.9027 40.9022 34.4444C40.8328 29.7916 38.2633 25.6944 34.1661 23.75ZM25.6245 8.68051C29.4439 8.68051 32.5689 11.8055 32.5689 15.625C32.5689 19.4444 29.4439 22.5694 25.6245 22.5694H18.68V8.68051H25.6245ZM29.0967 41.3194H18.68V27.4305H29.0967C32.9161 27.4305 36.0411 30.5555 36.0411 34.375C36.0411 38.1944 32.9161 41.3194 29.0967 41.3194Z" fill="#0D45DF"/>
</svg>
