<svg width="50" height="50" viewBox="0 0 50 50" fill="none" xmlns="http://www.w3.org/2000/svg">
<path d="M37.5008 41.6666H30.8341L23.4036 8.33325H29.1675C30.348 8.33325 31.2508 7.43048 31.2508 6.24992C31.2508 5.06937 30.348 4.16659 29.1675 4.16659H12.5008C11.3203 4.16659 10.4175 5.06937 10.4175 6.24992C10.4175 7.43048 11.3203 8.33325 12.5008 8.33325H19.1675L26.598 41.6666H20.8341C19.6536 41.6666 18.7508 42.5694 18.7508 43.7499C18.7508 44.9305 19.6536 45.8333 20.8341 45.8333H37.5008C38.6814 45.8333 39.5841 44.9305 39.5841 43.7499C39.5841 42.5694 38.6814 41.6666 37.5008 41.6666Z" fill="#0D45DF"/>
</svg>
