<svg width="50" height="50" viewBox="0 0 50 50" fill="none" xmlns="http://www.w3.org/2000/svg">
<path d="M43.7508 10.4167H6.25081C5.07026 10.4167 4.16748 9.51389 4.16748 8.33333C4.16748 7.15278 5.07026 6.25 6.25081 6.25H43.7508C44.9314 6.25 45.8341 7.15278 45.8341 8.33333C45.8341 9.51389 44.9314 10.4167 43.7508 10.4167Z" fill="#0D45DF"/>
<path d="M43.7508 21.5277H18.7508C17.5703 21.5277 16.6675 20.6249 16.6675 19.4444C16.6675 18.2638 17.5703 17.3611 18.7508 17.3611H43.7508C44.9314 17.3611 45.8341 18.2638 45.8341 19.4444C45.8341 20.6249 44.9314 21.5277 43.7508 21.5277Z" fill="#0D45DF"/>
<path d="M43.7508 32.6388H6.25081C5.07026 32.6388 4.16748 31.736 4.16748 30.5554C4.16748 29.3749 5.07026 28.4721 6.25081 28.4721H43.7508C44.9314 28.4721 45.8341 29.3749 45.8341 30.5554C45.8341 31.736 44.9314 32.6388 43.7508 32.6388Z" fill="#0D45DF"/>
<path d="M43.7508 43.7499H18.7508C17.5703 43.7499 16.6675 42.8471 16.6675 41.6665C16.6675 40.486 17.5703 39.5832 18.7508 39.5832H43.7508C44.9314 39.5832 45.8341 40.486 45.8341 41.6665C45.8341 42.8471 44.9314 43.7499 43.7508 43.7499Z" fill="#0D45DF"/>
</svg>
