<svg width="50" height="50" viewBox="0 0 50 50" fill="none" xmlns="http://www.w3.org/2000/svg">
<path d="M43.7508 10.4167H6.25081C5.07026 10.4167 4.16748 9.51389 4.16748 8.33333C4.16748 7.15278 5.07026 6.25 6.25081 6.25H43.7508C44.9314 6.25 45.8341 7.15278 45.8341 8.33333C45.8341 9.51389 44.9314 10.4167 43.7508 10.4167Z" fill="#0D45DF"/>
<path d="M31.2508 21.5277H6.25081C5.07026 21.5277 4.16748 20.6249 4.16748 19.4444C4.16748 18.2638 5.07026 17.3611 6.25081 17.3611H31.2508C32.4314 17.3611 33.3341 18.2638 33.3341 19.4444C33.3341 20.6249 32.4314 21.5277 31.2508 21.5277Z" fill="#0D45DF"/>
<path d="M43.7508 32.6388H6.25081C5.07026 32.6388 4.16748 31.736 4.16748 30.5554C4.16748 29.3749 5.07026 28.4721 6.25081 28.4721H43.7508C44.9314 28.4721 45.8341 29.3749 45.8341 30.5554C45.8341 31.736 44.9314 32.6388 43.7508 32.6388Z" fill="#0D45DF"/>
<path d="M31.2508 43.7499H6.25081C5.07026 43.7499 4.16748 42.8471 4.16748 41.6665C4.16748 40.486 5.07026 39.5832 6.25081 39.5832H31.2508C32.4314 39.5832 33.3341 40.486 33.3341 41.6665C33.3341 42.8471 32.4314 43.7499 31.2508 43.7499Z" fill="#0D45DF"/>
</svg>
