<svg width="50" height="50" viewBox="0 0 50 50" fill="none" xmlns="http://www.w3.org/2000/svg">
<path d="M43.7506 10.4167H6.25057C5.07001 10.4167 4.16724 9.51389 4.16724 8.33333C4.16724 7.15278 5.07001 6.25 6.25057 6.25H43.7506C44.9311 6.25 45.8339 7.15278 45.8339 8.33333C45.8339 9.51389 44.9311 10.4167 43.7506 10.4167Z" fill="#0D45DF"/>
<path d="M37.5006 21.5277H12.5006C11.32 21.5277 10.4172 20.6249 10.4172 19.4444C10.4172 18.2638 11.32 17.3611 12.5006 17.3611H37.5006C38.6811 17.3611 39.5839 18.2638 39.5839 19.4444C39.5839 20.6249 38.6811 21.5277 37.5006 21.5277Z" fill="#0D45DF"/>
<path d="M43.7506 32.6388H6.25057C5.07001 32.6388 4.16724 31.736 4.16724 30.5554C4.16724 29.3749 5.07001 28.4721 6.25057 28.4721H43.7506C44.9311 28.4721 45.8339 29.3749 45.8339 30.5554C45.8339 31.736 44.9311 32.6388 43.7506 32.6388Z" fill="#0D45DF"/>
<path d="M37.5006 43.7499H12.5006C11.32 43.7499 10.4172 42.8471 10.4172 41.6665C10.4172 40.486 11.32 39.5832 12.5006 39.5832H37.5006C38.6811 39.5832 39.5839 40.486 39.5839 41.6665C39.5839 42.8471 38.6811 43.7499 37.5006 43.7499Z" fill="#0D45DF"/>
</svg>
