<svg width="50" height="50" viewBox="0 0 50 50" fill="none" xmlns="http://www.w3.org/2000/svg">
<path d="M39.7 4H10.3C6.73 4 4 6.73 4 10.3V39.7C4 43.27 6.73 46 10.3 46H39.7C43.27 46 46 43.27 46 39.7V10.3C46 6.73 43.27 4 39.7 4ZM41.8 39.7C41.8 40.96 40.96 41.8 39.7 41.8H10.3C9.04 41.8 8.2 40.96 8.2 39.7V10.3C8.2 9.04 9.04 8.2 10.3 8.2H39.7C40.96 8.2 41.8 9.04 41.8 10.3V39.7Z" fill="#0D45DF"/>
<path d="M20.6667 28.0426L15.0333 22.5106L12 25.4894L20.6667 34L38 16.9787L34.9667 14L20.6667 28.0426Z" fill="#0D45DF"/>
</svg>
