<svg width="50" height="50" viewBox="0 0 50 50" fill="none" xmlns="http://www.w3.org/2000/svg">
<path fill-rule="evenodd" clip-rule="evenodd" d="M13.999 11.8001V8.50011C13.999 7.04151 14.5777 5.64231 15.6095 4.61271C16.6413 3.58091 18.0404 3.00011 19.499 3.00011H30.499C31.9576 3.00011 33.3546 3.58091 34.3864 4.61271C35.4182 5.64231 35.999 7.04151 35.999 8.50011V11.8001H41.499C42.9576 11.8001 44.3546 12.3809 45.3864 13.4127C46.4182 14.4423 46.999 15.8415 46.999 17.3001V41.5001C46.999 42.9587 46.4182 44.3579 45.3864 45.3897C44.3546 46.4215 42.9576 47.0001 41.499 47.0001C34.041 47.0001 15.957 47.0001 8.49902 47.0001C7.04042 47.0001 5.64128 46.4215 4.60948 45.3897C3.57768 44.3579 2.99902 42.9587 2.99902 41.5001V17.3001C2.99902 15.8415 3.57768 14.4423 4.60948 13.4127C5.64128 12.3809 7.04042 11.8001 8.49902 11.8001H13.999ZM7.39902 25.8537V41.5001C7.39902 41.7927 7.51341 42.0721 7.72021 42.2789C7.92701 42.4857 8.20642 42.6001 8.49902 42.6001H41.499C41.7894 42.6001 42.0688 42.4857 42.2756 42.2789C42.4824 42.0721 42.599 41.7927 42.599 41.5001V26.0077L25.6767 31.4945C25.2301 31.6375 24.7483 31.6375 24.3017 31.4879L7.39902 25.8537ZM42.599 21.3811V17.3001C42.599 17.0097 42.4824 16.7303 42.2756 16.5235C42.0688 16.3167 41.7894 16.2001 41.499 16.2001C34.041 16.2001 15.957 16.2001 8.49902 16.2001C8.20642 16.2001 7.92701 16.3167 7.72021 16.5235C7.51341 16.7303 7.39902 17.0097 7.39902 17.3001V21.2161L25.0078 27.0857L42.599 21.3811ZM31.599 11.8001V8.50011C31.599 8.20971 31.4824 7.93031 31.2756 7.72351C31.0688 7.51671 30.7894 7.40011 30.499 7.40011C27.353 7.40011 22.6428 7.40011 19.499 7.40011C19.2064 7.40011 18.927 7.51671 18.7202 7.72351C18.5134 7.93031 18.399 8.20971 18.399 8.50011V11.8001H31.599Z" fill="#0D45DF"/>
</svg>
