<svg width="50" height="50" viewBox="0 0 50 50" fill="none" xmlns="http://www.w3.org/2000/svg">
<path d="M43.75 6.24988C43.7613 5.92411 43.6959 5.60024 43.5593 5.30432C43.4226 5.0084 43.2184 4.74868 42.963 4.54604C42.7077 4.3434 42.4084 4.2035 42.0892 4.13759C41.7699 4.07168 41.4397 4.0816 41.125 4.16654L18.2083 10.4165C17.7646 10.557 17.3766 10.8341 17.0997 11.2083C16.8229 11.5824 16.6713 12.0345 16.6667 12.4999V31.979C15.6933 31.5036 14.625 31.2543 13.5417 31.2499C12.0995 31.2499 10.6897 31.6775 9.49064 32.4787C8.29153 33.28 7.35694 34.4188 6.80505 35.7511C6.25316 37.0835 6.10876 38.5496 6.39011 39.9641C6.67146 41.3785 7.36593 42.6778 8.38568 43.6975C9.40544 44.7173 10.7047 45.4118 12.1191 45.6931C13.5336 45.9745 14.9997 45.8301 16.3321 45.2782C17.6644 44.7263 18.8033 43.7917 19.6045 42.5926C20.4057 41.3935 20.8333 39.9837 20.8333 38.5415V14.0832L39.5833 8.97904V27.729C38.6032 27.2823 37.5352 27.0616 36.4583 27.0832C35.0162 27.0832 33.6064 27.5109 32.4073 28.3121C31.2082 29.1133 30.2736 30.2521 29.7217 31.5845C29.1698 32.9169 29.0254 34.383 29.3068 35.7974C29.5881 37.2119 30.2826 38.5111 31.3024 39.5309C32.3221 40.5506 33.6214 41.2451 35.0358 41.5264C36.4503 41.8078 37.9164 41.6634 39.2487 41.1115C40.5811 40.5596 41.7199 39.625 42.5211 38.4259C43.3224 37.2268 43.75 35.817 43.75 34.3749V6.24988ZM13.5417 41.6665C12.9236 41.6665 12.3194 41.4833 11.8055 41.1399C11.2916 40.7965 10.8911 40.3084 10.6545 39.7374C10.418 39.1664 10.3561 38.5381 10.4767 37.9319C10.5973 37.3257 10.8949 36.7689 11.332 36.3318C11.769 35.8948 12.3258 35.5972 12.932 35.4766C13.5382 35.356 14.1665 35.4179 14.7376 35.6544C15.3086 35.8909 15.7966 36.2915 16.14 36.8054C16.4834 37.3193 16.6667 37.9235 16.6667 38.5415C16.6667 39.3703 16.3374 40.1652 15.7514 40.7513C15.1653 41.3373 14.3705 41.6665 13.5417 41.6665ZM36.4583 37.4999C35.8403 37.4999 35.2361 37.3166 34.7222 36.9732C34.2083 36.6298 33.8077 36.1418 33.5712 35.5708C33.3347 34.9997 33.2728 34.3714 33.3934 33.7652C33.514 33.159 33.8116 32.6022 34.2486 32.1652C34.6857 31.7281 35.2425 31.4305 35.8487 31.3099C36.4549 31.1893 37.0832 31.2512 37.6542 31.4878C38.2252 31.7243 38.7133 32.1248 39.0567 32.6387C39.4001 33.1526 39.5833 33.7568 39.5833 34.3749C39.5833 35.2037 39.2541 35.9985 38.668 36.5846C38.082 37.1706 37.2871 37.4999 36.4583 37.4999Z" fill="#0D45DF"/>
</svg>
