<svg width="50" height="50" viewBox="0 0 50 50" fill="none" xmlns="http://www.w3.org/2000/svg">
<path d="M12.3438 20.3124H41.5938V17.1874C41.5939 16.5639 41.4696 15.9466 41.2282 15.3717C40.9868 14.7968 40.6331 14.2758 40.1878 13.8393C39.7426 13.4028 39.2147 13.0594 38.6351 12.8295C38.0556 12.5995 37.4359 12.4875 36.8125 12.4999H26.6875C26.3083 12.5 25.9398 12.3736 25.6406 12.1406L19.3906 7.26555C18.5417 6.60593 17.4969 6.24851 16.4219 6.24993H7.90625C7.28283 6.23746 6.6632 6.34949 6.08362 6.57947C5.50404 6.80945 4.97617 7.15275 4.53092 7.58927C4.08566 8.0258 3.73198 8.54676 3.49057 9.12168C3.24916 9.69659 3.12488 10.3139 3.125 10.9374V38.5156L7.8125 23.6093C8.12276 22.6516 8.72832 21.8168 9.54235 21.2245C10.3564 20.6322 11.3371 20.3129 12.3438 20.3124Z" fill="#0D45DF"/>
<path d="M46.5942 23.4374H12.3442C11.9996 23.4216 11.6594 23.5203 11.3767 23.7182C11.0941 23.916 10.8849 24.2019 10.7817 24.5311L5.04736 42.7967L5.46924 43.078L5.89111 43.2967C6.08268 43.3858 6.28127 43.459 6.48486 43.5155L6.84424 43.6249C7.16263 43.6962 7.48692 43.738 7.81299 43.7499H37.6411C38.6505 43.7527 39.6347 43.4349 40.4518 42.8424C41.269 42.2499 41.8769 41.4132 42.188 40.453L46.6411 26.3905C46.9619 25.4294 46.9454 24.3877 46.5942 23.4374Z" fill="#0D45DF"/>
</svg>
