<svg width="50" height="50" viewBox="0 0 50 50" fill="none" xmlns="http://www.w3.org/2000/svg">
<path d="M42.5297 17.8876L27.9464 3.3043C27.165 2.52317 26.1054 2.08436 25.0006 2.08436C23.8957 2.08436 22.8361 2.52317 22.0547 3.3043L7.47139 17.8876C6.7124 18.6735 6.29242 19.726 6.30192 20.8185C6.31141 21.911 6.74961 22.956 7.52215 23.7285C8.29468 24.5011 9.33973 24.9393 10.4322 24.9488C11.5247 24.9583 12.5772 24.5383 13.3631 23.7793L20.8339 16.3085V43.7501C20.8339 44.8552 21.2729 45.915 22.0543 46.6964C22.8357 47.4778 23.8955 47.9168 25.0006 47.9168C26.1056 47.9168 27.1654 47.4778 27.9468 46.6964C28.7282 45.915 29.1672 44.8552 29.1672 43.7501V16.3085L36.6381 23.7793C37.4239 24.5383 38.4764 24.9583 39.5689 24.9488C40.6614 24.9393 41.7064 24.5011 42.479 23.7285C43.2515 22.956 43.6897 21.911 43.6992 20.8185C43.7087 19.726 43.2887 18.6735 42.5297 17.8876Z" fill="#0D45DF"/>
</svg>
