<svg width="50" height="50" viewBox="0 0 50 50" fill="none" xmlns="http://www.w3.org/2000/svg">
<path d="M42.5297 26.2207C41.7484 25.4396 40.6887 25.0007 39.5839 25.0007C38.479 25.0007 37.4194 25.4396 36.6381 26.2207L29.1672 33.6915V6.24985C29.1672 5.14478 28.7282 4.08497 27.9468 3.30357C27.1654 2.52217 26.1056 2.08318 25.0006 2.08318C23.8955 2.08318 22.8357 2.52217 22.0543 3.30357C21.2729 4.08497 20.8339 5.14478 20.8339 6.24985V33.6915L13.3631 26.2207C12.5772 25.4617 11.5247 25.0417 10.4322 25.0512C9.33973 25.0607 8.29468 25.4989 7.52215 26.2714C6.74961 27.044 6.31141 28.089 6.30192 29.1815C6.29242 30.274 6.7124 31.3265 7.47139 32.1123L22.0547 46.6957C22.8361 47.4768 23.8957 47.9156 25.0006 47.9156C26.1054 47.9156 27.165 47.4768 27.9464 46.6957L42.5297 32.1123C43.3109 31.331 43.7497 30.2714 43.7497 29.1665C43.7497 28.0617 43.3109 27.002 42.5297 26.2207Z" fill="#0D45DF"/>
</svg>
