<svg width="50" height="50" viewBox="0 0 50 50" fill="none" xmlns="http://www.w3.org/2000/svg">
<g clip-path="url(#clip0_12_1782)">
<path d="M38.3337 20C43.848 20 48.3337 15.5143 48.3337 9.99998C48.3337 4.48567 43.848 -1.52588e-05 38.3337 -1.52588e-05C32.8193 -1.52588e-05 28.3337 4.48567 28.3337 9.99998C28.3337 11.1853 28.5518 12.3179 28.9319 13.3738L19.4388 18.7202C17.6041 16.4538 14.8036 15 11.667 15C6.15268 15 1.66699 19.4857 1.66699 25C1.66699 30.5143 6.15268 35 11.667 35C14.8036 35 17.6041 33.5461 19.4388 31.2798L28.9319 36.6262C28.5518 37.6821 28.3337 38.8147 28.3337 40C28.3337 45.5143 32.8193 50 38.3337 50C43.848 50 48.3337 45.5143 48.3337 40C48.3337 34.4857 43.848 30 38.3337 30C35.1971 30 32.3966 31.4538 30.5618 33.7202L21.0687 28.3738C21.4489 27.3179 21.667 26.1853 21.667 25C21.667 23.8147 21.4489 22.6821 21.0687 21.6262L30.5618 16.2798C32.3966 18.5461 35.1971 20 38.3337 20ZM38.3337 33.3333C42.0104 33.3333 45.0003 36.3232 45.0003 40C45.0003 43.6767 42.0104 46.6666 38.3337 46.6666C34.6569 46.6666 31.667 43.6767 31.667 40C31.667 36.3232 34.6569 33.3333 38.3337 33.3333ZM11.667 31.6667C7.99024 31.6667 5.00033 28.6767 5.00033 25C5.00033 21.3232 7.99024 18.3333 11.667 18.3333C15.3437 18.3333 18.3337 21.3232 18.3337 25C18.3337 28.6767 15.3437 31.6667 11.667 31.6667ZM38.3337 3.33332C42.0104 3.33332 45.0003 6.32323 45.0003 9.99998C45.0003 13.6767 42.0104 16.6667 38.3337 16.6667C34.6569 16.6667 31.667 13.6767 31.667 9.99998C31.667 6.32323 34.6569 3.33332 38.3337 3.33332Z" fill="#0D45DF"/>
</g>
<defs>
<clipPath id="clip0_12_1782">
<rect width="50" height="50" fill="white"/>
</clipPath>
</defs>
</svg>
