<svg width="50" height="50" viewBox="0 0 50 50" fill="none" xmlns="http://www.w3.org/2000/svg">
<path d="M36.3959 23.527C36.1969 23.7192 36.0382 23.949 35.929 24.2032C35.8198 24.4574 35.7623 24.7308 35.7599 25.0074C35.7575 25.284 35.8103 25.5583 35.915 25.8144C36.0198 26.0704 36.1744 26.303 36.3701 26.4986C36.5657 26.6942 36.7983 26.8489 37.0543 26.9537C37.3103 27.0584 37.5847 27.1112 37.8613 27.1088C38.1379 27.1063 38.4113 27.0489 38.6655 26.9397C38.9196 26.8305 39.1495 26.6718 39.3417 26.4728L42.5584 23.2561C44.616 21.1508 45.7605 18.3192 45.7436 15.3754C45.7268 12.4316 44.5499 9.61324 42.4683 7.53166C40.3867 5.45007 37.5683 4.27318 34.6245 4.25632C31.6808 4.23945 28.8491 5.38397 26.7438 7.44156L23.5271 10.6582C23.3282 10.8504 23.1694 11.0803 23.0603 11.3345C22.9511 11.5886 22.8936 11.862 22.8912 12.1386C22.8888 12.4153 22.9415 12.6896 23.0463 12.9456C23.151 13.2017 23.3057 13.4343 23.5013 13.6299C23.6969 13.8255 23.9295 13.9802 24.1856 14.0849C24.4416 14.1897 24.7159 14.2424 24.9925 14.24C25.2692 14.2376 25.5425 14.1801 25.7967 14.0709C26.0509 13.9618 26.2808 13.803 26.473 13.6041L29.6896 10.3874C30.3399 9.72999 31.1137 9.20759 31.9665 8.85023C32.8193 8.49287 33.7344 8.3076 34.659 8.30507C35.5837 8.30254 36.4998 8.4828 37.3545 8.83549C38.2093 9.18818 38.9859 9.70634 39.6398 10.3602C40.2936 11.014 40.8118 11.7906 41.1645 12.6454C41.5171 13.5002 41.6974 14.4162 41.6949 15.3409C41.6923 16.2656 41.5071 17.1806 41.1497 18.0334C40.7924 18.8863 40.27 19.6601 39.6126 20.3103L36.3959 23.527Z" fill="#0D45DF"/>
<path d="M13.6043 26.4729C13.8033 26.2807 13.962 26.0508 14.0712 25.7966C14.1803 25.5425 14.2378 25.2691 14.2402 24.9925C14.2426 24.7158 14.1899 24.4415 14.0852 24.1855C13.9804 23.9294 13.8257 23.6968 13.6301 23.5012C13.4345 23.3056 13.2019 23.1509 12.9458 23.0462C12.6898 22.9414 12.4155 22.8887 12.1389 22.8911C11.8622 22.8935 11.5889 22.951 11.3347 23.0602C11.0805 23.1693 10.8506 23.3281 10.6584 23.527L7.44178 26.7437C5.38418 28.849 4.23967 31.6807 4.25653 34.6245C4.2734 37.5682 5.45028 40.3866 7.53187 42.4682C9.61346 44.5498 12.4318 45.7267 15.3756 45.7435C18.3194 45.7604 21.1511 44.6159 23.2564 42.5583L26.473 39.3416C26.8525 38.9487 27.0625 38.4224 27.0578 37.8762C27.053 37.33 26.8339 36.8074 26.4476 36.4212C26.0614 36.0349 25.5389 35.8158 24.9926 35.8111C24.4464 35.8063 23.9201 36.0163 23.5272 36.3958L20.3105 39.6125C18.9922 40.9164 17.2113 41.6456 15.357 41.6405C13.5027 41.6354 11.7259 40.8966 10.4147 39.5854C9.1035 38.2742 8.36464 36.4973 8.35957 34.643C8.3545 32.7888 9.08362 31.0079 10.3876 29.6895L13.6043 26.4729Z" fill="#0D45DF"/>
<path d="M17.0937 32.9167C17.4844 33.3073 18.0142 33.5267 18.5666 33.5267C19.1191 33.5267 19.6489 33.3073 20.0395 32.9167L32.9166 20.0397C33.1156 19.8475 33.2743 19.6176 33.3835 19.3634C33.4927 19.1093 33.5502 18.8359 33.5526 18.5593C33.555 18.2826 33.5023 18.0083 33.3975 17.7523C33.2928 17.4962 33.1381 17.2636 32.9425 17.068C32.7468 16.8724 32.5142 16.7177 32.2582 16.613C32.0022 16.5082 31.7278 16.4555 31.4512 16.4579C31.1746 16.4603 30.9012 16.5178 30.647 16.627C30.3929 16.7361 30.163 16.8949 29.9708 17.0938L17.0937 29.9605C16.8988 30.1541 16.744 30.3844 16.6385 30.6381C16.5329 30.8918 16.4785 31.1638 16.4785 31.4386C16.4785 31.7134 16.5329 31.9855 16.6385 32.2391C16.744 32.4928 16.8988 32.7231 17.0937 32.9167Z" fill="#0D45DF"/>
</svg>
