<svg width="28" height="28" viewBox="0 0 28 28" fill="none" xmlns="http://www.w3.org/2000/svg">
<path d="M14.0156 6C16.5144 6 19.0136 6 21.5125 6C21.889 6 21.9933 6.11451 21.9933 6.52539C21.9933 9.19467 21.9911 11.864 21.9981 14.5332C21.9986 14.7377 21.9462 14.7825 21.7689 14.7781C21.2516 14.7656 21.2511 14.7743 21.2511 14.2046C21.2511 12.4413 21.2481 10.6775 21.2551 8.91418C21.256 8.71788 21.2129 8.66062 21.0281 8.66062C16.338 8.6664 11.6479 8.66592 6.95737 8.66062C6.77744 8.66062 6.74093 8.72173 6.74137 8.906C6.74709 10.7819 6.74137 12.6573 6.74973 14.5332C6.75061 14.7368 6.7009 14.7834 6.52052 14.7786C6.00977 14.7651 6.00977 14.7748 6.00977 14.2152C6.00977 11.6662 6.00977 9.11721 6.00977 6.56821C6.01021 6.09863 6.09907 6 6.51876 6C9.01757 6 11.5168 6 14.0156 6ZM8.40518 7.74215C8.62471 7.73686 8.78484 7.54682 8.77472 7.30385C8.76593 7.08253 8.58511 6.89874 8.38363 6.90596C8.18302 6.91318 8.01321 7.10611 8.01321 7.32694C8.01321 7.56366 8.18654 7.74745 8.40474 7.74167L8.40518 7.74215ZM10.0351 7.31876C10.032 7.10659 9.84551 6.9074 9.64974 6.90692C9.4421 6.90644 9.25425 7.11284 9.25821 7.33753C9.26217 7.55163 9.44474 7.7436 9.6449 7.74408C9.86179 7.74408 10.0386 7.55163 10.0351 7.31925V7.31876ZM7.13027 7.74215C7.33351 7.74793 7.51696 7.56654 7.52708 7.34956C7.53764 7.12198 7.35991 6.91366 7.14962 6.90596C6.95034 6.89874 6.74577 7.11429 6.74709 7.33031C6.74841 7.54634 6.92526 7.73638 7.13071 7.74215H7.13027Z" fill="#464255"/>
<path d="M15.3219 19.9161C15.6127 20.2928 15.8894 20.6517 16.1661 21.0102C16.27 21.1449 16.3742 21.2791 16.4798 21.4119C16.5766 21.5337 16.5885 21.6703 16.5392 21.8156C16.4864 21.9705 16.3632 21.9955 16.2348 21.997C15.9638 21.9999 15.6928 21.9941 15.4218 21.9989C15.2731 22.0018 15.1794 21.9147 15.0918 21.7992C14.666 21.2392 14.234 20.6849 13.8116 20.1215C13.6911 19.9609 13.5631 19.8819 13.3647 19.8921C13.0066 19.9103 12.6471 19.8964 12.2882 19.8973C12.0317 19.8978 11.9529 19.983 11.9512 20.2712C11.9485 20.7278 11.9512 21.1844 11.9498 21.6409C11.949 21.9113 11.8847 21.9874 11.6406 21.9951C11.443 22.0013 11.2451 21.9994 11.0476 21.996C10.748 21.9912 10.6837 21.9238 10.6833 21.5967C10.6807 20.5069 10.682 19.4177 10.682 18.3279C10.682 17.5668 10.682 16.8056 10.682 16.0445C10.6824 15.6317 10.7317 15.5807 11.1175 15.5807C12.502 15.5807 13.886 15.5807 15.2704 15.5807C16.0434 15.5807 16.563 16.147 16.566 16.9947C16.5678 17.4835 16.5669 17.9719 16.566 18.4607C16.5643 19.231 16.1688 19.7434 15.4768 19.8747C15.435 19.8829 15.3941 19.8964 15.3223 19.9156L15.3219 19.9161ZM13.6181 16.9745C13.1715 16.9745 12.725 16.9798 12.2785 16.9721C12.0664 16.9683 11.9604 17.0794 11.9529 17.2969C11.9432 17.5846 11.9441 17.8733 11.9516 18.1614C11.9573 18.3683 12.0603 18.4876 12.2574 18.4876C13.1575 18.4886 14.058 18.491 14.9581 18.4876C15.1763 18.4867 15.2612 18.3866 15.2643 18.147C15.2678 17.867 15.2674 17.5865 15.2638 17.3065C15.2608 17.0659 15.1776 16.9769 14.9572 16.976C14.5107 16.974 14.0642 16.9755 13.6176 16.9755L13.6181 16.9745Z" fill="#464255"/>
<path d="M23.9997 18.7705C23.9997 19.7082 24.0001 20.6464 23.9988 21.5841C23.9988 21.9277 23.9403 21.9907 23.6253 21.996C23.4423 21.9994 23.2588 21.9998 23.0758 21.996C22.7943 21.9902 22.7111 21.8993 22.7111 21.5914C22.7102 20.5892 22.7111 19.5875 22.7111 18.5853C22.7111 18.4352 22.7335 18.2774 22.5585 18.2038C22.3728 18.1258 22.2914 18.2697 22.199 18.3895C21.7842 18.9288 21.372 19.4706 20.9571 20.0094C20.7728 20.2485 20.6452 20.2514 20.4587 20.0128C20.0306 19.4648 19.607 18.9125 19.1829 18.3606C19.1103 18.2663 19.0346 18.1677 18.9128 18.1879C18.7359 18.2172 18.6888 18.3515 18.6897 18.5377C18.695 19.5475 18.6924 20.5579 18.6919 21.5678C18.6919 21.9127 18.6198 21.9931 18.3061 21.9955C18.1011 21.9974 17.8956 21.9994 17.6906 21.9926C17.5072 21.9864 17.4126 21.8829 17.4126 21.6731C17.4139 19.7491 17.4126 17.8256 17.4144 15.9016C17.4144 15.6644 17.5032 15.5758 17.7258 15.5739C17.9898 15.5715 18.2537 15.5811 18.5173 15.5701C18.673 15.5638 18.7751 15.6297 18.8718 15.7577C19.3949 16.4486 19.9233 17.1347 20.4516 17.8203C20.6439 18.07 20.771 18.0671 20.9637 17.8155C21.4811 17.14 22.0002 16.4664 22.5114 15.7856C22.6231 15.637 22.7397 15.558 22.9214 15.5696C23.1625 15.585 23.4049 15.5725 23.6468 15.5734C23.9214 15.5744 23.9988 15.6557 23.9992 15.9555C24.0005 16.8932 23.9997 17.8314 23.9992 18.7691L23.9997 18.7705Z" fill="#464255"/>
<path d="M9.92559 14.4135C9.26657 14.4135 8.60756 14.4082 7.94898 14.4173C7.78445 14.4197 7.72374 14.3836 7.72462 14.1849C7.73254 12.7516 7.73166 11.3184 7.72506 9.8851C7.72418 9.70227 7.76069 9.64261 7.9393 9.64406C9.25689 9.6532 10.5749 9.65368 11.8925 9.64358C12.0777 9.64213 12.1028 9.70949 12.1019 9.88655C12.0958 11.3198 12.094 12.7531 12.1032 14.1864C12.1046 14.3884 12.0447 14.4202 11.8802 14.4178C11.2287 14.4082 10.5771 14.4139 9.92559 14.4139V14.4135Z" fill="#464255"/>
<path d="M7.3427 15.5749C8.0611 15.5749 8.77951 15.5744 9.49748 15.5749C9.78827 15.5749 9.85338 15.648 9.8547 15.9742C9.85558 16.1748 9.85558 16.375 9.8547 16.5756C9.85338 16.8965 9.78387 16.9745 9.49528 16.9745C8.21244 16.9745 6.93005 16.9745 5.64721 16.9745C5.33926 16.9745 5.27283 17.0462 5.27283 17.3825C5.27239 18.3125 5.27239 19.2425 5.27283 20.1725C5.27283 20.5285 5.3309 20.5911 5.65777 20.5911C6.92565 20.5911 8.19396 20.5911 9.46184 20.5911C9.78959 20.5911 9.8525 20.6618 9.85426 21.0289C9.85514 21.2055 9.85514 21.3816 9.8547 21.5581C9.85382 21.9397 9.79971 21.9974 9.44116 21.9979C8.84726 21.9979 8.25379 21.9998 7.65989 21.9979C6.80247 21.9945 5.94504 22.0056 5.08806 21.9782C4.49987 21.9594 4.01243 21.395 4.00759 20.7513C3.99791 19.4446 3.99703 18.1378 4.00759 16.8311C4.01287 16.1445 4.53771 15.5859 5.16549 15.5782C5.89093 15.5696 6.61682 15.5763 7.34226 15.5758L7.3427 15.5749Z" fill="#464255"/>
<path d="M16.5001 12.4557C17.4895 12.4557 18.4789 12.4567 19.4683 12.4543C19.61 12.4543 19.7534 12.4596 19.7521 12.6583C19.7507 12.8454 19.6196 12.8738 19.4714 12.8738C17.4851 12.8709 15.4993 12.8714 13.513 12.8724C13.3616 12.8724 13.2226 12.8594 13.2341 12.6386C13.2433 12.4601 13.3625 12.4552 13.4879 12.4552C14.4918 12.4572 15.4962 12.4562 16.5001 12.4562V12.4557Z" fill="#464255"/>
<path d="M16.4829 14.1324C15.5085 14.1324 14.534 14.1324 13.5596 14.1324C13.5011 14.1324 13.4413 14.1377 13.3841 14.1271C13.297 14.1112 13.2398 14.0574 13.2336 13.9515C13.2279 13.8534 13.2569 13.7831 13.3392 13.735C13.4162 13.6898 13.4967 13.7061 13.5759 13.7061C15.5173 13.7052 17.4591 13.7052 19.4005 13.7056C19.4665 13.7056 19.5343 13.7004 19.5976 13.7162C19.7023 13.7427 19.7622 13.825 19.7538 13.9428C19.7459 14.0501 19.6812 14.116 19.5822 14.129C19.5246 14.1367 19.4652 14.1324 19.4067 14.1324C18.4323 14.1324 17.4578 14.1324 16.4834 14.1324H16.4829Z" fill="#464255"/>
<path d="M16.478 10.3335C15.497 10.3335 14.5159 10.3335 13.5349 10.3335C13.4838 10.3335 13.4315 10.3388 13.3813 10.3306C13.2784 10.3133 13.2362 10.2407 13.234 10.1286C13.2318 10.0117 13.2828 9.94863 13.384 9.93179C13.4271 9.92458 13.4715 9.9265 13.5151 9.9265C15.4992 9.9265 17.4832 9.92746 19.4673 9.92746C19.4893 9.92746 19.5113 9.92554 19.5333 9.92554C19.6604 9.92698 19.7542 9.98568 19.7511 10.1339C19.748 10.2763 19.6648 10.3379 19.5307 10.3355C19.2452 10.3297 18.9596 10.334 18.6741 10.334C17.9421 10.334 17.21 10.334 16.4776 10.334L16.478 10.3335Z" fill="#464255"/>
<path d="M16.4846 11.595C15.5111 11.595 14.5371 11.595 13.5635 11.595C13.505 11.595 13.446 11.5974 13.388 11.5921C13.2819 11.582 13.2362 11.5103 13.2344 11.3987C13.2327 11.2871 13.2775 11.2125 13.38 11.1947C13.4372 11.1846 13.4971 11.1904 13.5556 11.1904C15.5247 11.1904 17.4943 11.1904 19.4634 11.1904C19.5074 11.1904 19.5523 11.1851 19.5949 11.1937C19.7045 11.2159 19.7625 11.2957 19.7533 11.4141C19.7449 11.5195 19.6882 11.5921 19.5817 11.5931C19.4062 11.595 19.2302 11.595 19.0547 11.595C18.1982 11.595 17.3416 11.595 16.4851 11.595H16.4846Z" fill="#464255"/>
</svg>
