<svg width="28" height="28" viewBox="0 0 28 28" fill="none" xmlns="http://www.w3.org/2000/svg">
<path d="M14 7C8.47708 7 4 11.2414 4 16.4737C4 18.2105 4.49479 19.8375 5.35625 21.2368C5.55104 21.5533 5.92222 21.7368 6.30903 21.7368H21.691C22.0778 21.7368 22.449 21.5533 22.6438 21.2368C23.5052 19.8375 24 18.2105 24 16.4737C24 11.2414 19.5229 7 14 7ZM14 9.10526C14.5108 9.10526 14.9229 9.43849 15.0528 9.88322C15.0142 9.95757 14.9611 10.0224 14.933 10.1026L14.6128 11.0128C14.4347 11.1276 14.2319 11.2105 14.0003 11.2105C13.3868 11.2105 12.8892 10.7391 12.8892 10.1579C12.8892 9.57664 13.3865 9.10526 14 9.10526ZM7.33333 18.5789C6.71979 18.5789 6.22222 18.1076 6.22222 17.5263C6.22222 16.9451 6.71979 16.4737 7.33333 16.4737C7.94688 16.4737 8.44444 16.9451 8.44444 17.5263C8.44444 18.1076 7.94688 18.5789 7.33333 18.5789ZM9 13.3158C8.38646 13.3158 7.88889 12.8444 7.88889 12.2632C7.88889 11.6819 8.38646 11.2105 9 11.2105C9.61354 11.2105 10.1111 11.6819 10.1111 12.2632C10.1111 12.8444 9.61354 13.3158 9 13.3158ZM17.5684 10.9339L15.4389 16.9865C15.9142 17.3727 16.2222 17.9388 16.2222 18.5789C16.2222 18.9645 16.1049 19.3207 15.9139 19.6316H12.0861C11.8951 19.3207 11.7778 18.9645 11.7778 18.5789C11.7778 17.4625 12.6979 16.5582 13.8576 16.4872L15.9875 10.4342C16.1323 10.0211 16.6031 9.79441 17.0417 9.9352C17.4781 10.073 17.7135 10.5204 17.5684 10.9339ZM18.0774 12.8155L18.6163 11.2842C18.7368 11.2418 18.8639 11.2109 19 11.2109C19.6135 11.2109 20.1111 11.6822 20.1111 12.2635C20.1111 12.8447 19.6135 13.3161 19 13.3161C18.6049 13.3158 18.2747 13.1095 18.0774 12.8155ZM20.6667 18.5789C20.0531 18.5789 19.5556 18.1076 19.5556 17.5263C19.5556 16.9451 20.0531 16.4737 20.6667 16.4737C21.2802 16.4737 21.7778 16.9451 21.7778 17.5263C21.7778 18.1076 21.2802 18.5789 20.6667 18.5789Z" fill="#464255"/>
</svg>
