<svg width="20" height="24" viewBox="0 0 20 24" fill="none" xmlns="http://www.w3.org/2000/svg">
<path d="M17.8714 22.8762H2.12855C1.82889 22.8762 1.58569 22.6851 1.58569 22.4497V17.9913C1.58569 15.843 4.07686 13.3654 6.01758 12.0001C4.07741 10.6348 1.58569 8.15722 1.58569 6.00887V1.55054C1.58569 1.3151 1.82889 1.12402 2.12855 1.12402H17.8714C18.1711 1.12402 18.4143 1.3151 18.4143 1.55054V6.00887C18.4143 8.15722 15.9231 10.6348 13.9824 12.0001C15.9225 13.3654 18.4143 15.843 18.4143 17.9913V22.4497C18.4143 22.6851 18.1711 22.8762 17.8714 22.8762ZM2.67141 22.0231H17.3285V17.9913C17.3285 16.1872 14.9981 13.7288 12.8049 12.3315C12.6779 12.2505 12.6041 12.1285 12.6041 12.0001C12.6041 11.8717 12.6779 11.7497 12.8049 11.6687C14.9981 10.2714 17.3285 7.81302 17.3285 6.00887V1.97705H2.67141V6.00887C2.67141 7.81302 5.00189 10.2714 7.19504 11.6687C7.32206 11.7497 7.39589 11.8717 7.39589 12.0001C7.39589 12.1285 7.32206 12.2505 7.19504 12.3315C5.00189 13.7288 2.67141 16.1872 2.67141 17.9913V22.0231Z" fill="white" stroke="white"/>
<path d="M18.5403 0.0566406H1.45965C0.929652 0.0566406 0.5 0.486292 0.5 1.01629C0.5 1.5463 0.929651 1.97595 1.45965 1.97595H18.5403C19.0703 1.97595 19.5 1.5463 19.5 1.01629C19.5 0.486292 19.0703 0.0566406 18.5403 0.0566406Z" fill="white"/>
<path d="M18.5403 22.0234H1.45965C0.929652 22.0234 0.5 22.4531 0.5 22.9831C0.5 23.5131 0.929651 23.9427 1.45965 23.9427H18.5403C19.0703 23.9427 19.5 23.5131 19.5 22.9831C19.5 22.4531 19.0703 22.0234 18.5403 22.0234Z" fill="white"/>
</svg>
