<svg width="28" height="28" viewBox="0 0 28 28" fill="none" xmlns="http://www.w3.org/2000/svg">
<path d="M22.2283 6H5.77165C4.79479 6 4 6.78677 4 7.75378V20.2462C4 21.2134 4.79479 22 5.77165 22H22.2283C23.2054 22 24 21.2132 24 20.2462V7.75378C24 6.78677 23.2052 6 22.2283 6ZM10.9544 9.22848C11.7344 9.22848 12.3692 9.8569 12.3692 10.6291C12.3692 11.4013 11.7344 12.0297 10.9544 12.0297C10.1743 12.0297 9.53947 11.4013 9.53947 10.6291C9.53947 9.8569 10.1743 9.22848 10.9544 9.22848ZM5.77165 20.8133C5.45579 20.8133 5.19901 20.5591 5.19901 20.2464V18.584L8.21115 14.7088C8.27932 14.6212 8.3845 14.5699 8.49635 14.5699C8.60803 14.5699 8.71338 14.6212 8.78155 14.7088L11.3621 18.0285L11.1349 18.3205L10.9081 18.6125L9.1971 20.8133L5.77165 20.8133ZM22.801 20.2464C22.801 20.5591 22.5443 20.8133 22.2284 20.8133H10.1055L11.3622 19.1965L11.589 18.9045L11.8161 18.6125L11.8247 18.6237L17.6358 11.1484C17.704 11.0607 17.8091 11.0095 17.921 11.0095C18.0327 11.0095 18.138 11.0607 18.2062 11.1484L22.8013 17.0593L22.801 20.2464Z" fill="#464255"/>
</svg>
