<svg width="28" height="28" viewBox="0 0 28 28" fill="none" xmlns="http://www.w3.org/2000/svg">
<path d="M24 6.43233V8.16211H4V6.43233C4 6.19358 4.18652 6 4.41671 6H23.5831C23.6936 6 23.7997 6.04546 23.8778 6.12655C23.9559 6.20777 23.9999 6.31766 23.9999 6.43234L24 6.43233ZM19.2082 14.2161C19.5398 14.2161 19.8578 14.0794 20.0921 13.8362C20.3265 13.5929 20.4582 13.263 20.4582 12.9188C20.4582 12.5748 20.3265 12.2448 20.0921 12.0016C19.8578 11.7582 19.5398 11.6215 19.2082 11.6215C18.8767 11.6215 18.5588 11.7582 18.3244 12.0016C18.0899 12.2448 17.9582 12.5748 17.9582 12.9188C17.9582 13.263 18.0899 13.5929 18.3244 13.8362C18.5588 14.0794 18.8767 14.2161 19.2082 14.2161ZM4 9.02692H24V21.5677C24 21.6823 23.9561 21.7922 23.8779 21.8735C23.7998 21.9545 23.6938 22 23.5833 22H4.41686C4.18667 22 4.00014 21.8064 4.00014 21.5677L4 9.02692ZM17.125 12.9188C17.125 13.4923 17.3444 14.0422 17.7352 14.4477C18.1259 14.8532 18.6558 15.0811 19.2083 15.0811C19.564 15.0795 19.9132 14.981 20.2209 14.7955L21.2043 15.8203L21.2041 15.8205C21.2824 15.9023 21.389 15.9483 21.5 15.9483C21.6111 15.9483 21.7176 15.9023 21.7959 15.8205C21.8747 15.7392 21.9191 15.6288 21.9191 15.5134C21.9191 15.3981 21.8747 15.2876 21.7959 15.2064L20.8542 14.2291C21.1268 13.856 21.2733 13.4001 21.2708 12.9318C21.2708 12.1594 20.8738 11.4456 20.2292 11.0593C19.5846 10.6731 18.7905 10.6731 18.1458 11.0593C17.5013 11.4456 17.1042 12.1594 17.1042 12.9318L17.125 12.9188ZM5.66679 14.2161H16.5793C16.1962 13.397 16.1962 12.4407 16.5793 11.6215H5.66679V14.2161Z" fill="#464255"/>
<rect x="6.39648" y="12.3815" width="1.07233" height="1.1129" fill="#464255"/>
<rect x="8.02295" y="12.3815" width="1.07233" height="1.1129" fill="#464255"/>
<rect x="9.6499" y="12.3815" width="1.07233" height="1.1129" fill="#464255"/>
<rect x="11.2769" y="12.3815" width="1.07233" height="1.1129" fill="#464255"/>
</svg>
