<svg width="28" height="28" viewBox="0 0 28 28" fill="none" xmlns="http://www.w3.org/2000/svg">
<path d="M4.01488 13.2595C4.01488 10.164 4.03308 7.06857 4.00088 3.97375C3.99388 3.30311 4.19126 3.09665 4.92968 3.06181C5.78218 3.0217 5.70519 3.45104 5.68069 3.95271C5.66949 4.1802 5.6576 4.41098 5.68349 4.6365C5.72549 5.00799 5.47842 5.4919 5.91587 5.71939C6.41141 5.97713 6.4849 5.42418 6.73548 5.20655C7.13023 4.86399 7.15473 5.33016 7.30101 5.47152C7.4704 5.63523 7.59778 5.87785 7.88125 5.77002C8.12622 5.67731 8.19902 5.44653 8.17452 5.19997C8.17102 5.16776 8.17312 5.13488 8.17452 5.10201C8.20042 4.45898 7.96174 3.55361 8.3166 3.2367C8.80655 2.80012 9.75844 3.10191 10.5102 3.09797C13.5611 3.08153 16.6121 3.11309 19.6624 3.07627C20.4232 3.06707 20.7304 3.24919 20.6702 4.00136C20.6051 4.81139 20.6065 5.6326 20.6702 6.44264C20.7276 7.17048 20.5401 7.42625 19.6847 7.41441C15.9066 7.36313 12.1277 7.39008 8.3488 7.39337C6.91116 7.39469 6.5129 7.7734 6.5108 9.1331C6.5073 11.4139 6.5031 13.6948 6.5129 15.975C6.5178 17.1394 6.95945 17.5536 8.20601 17.5562C12.0542 17.5635 15.9024 17.576 19.7505 17.5431C20.4484 17.5372 20.7122 17.6562 20.6765 18.3735C20.6086 19.7391 20.6205 21.1107 20.6716 22.4776C20.6975 23.1785 20.5149 23.4461 19.7022 23.4408C14.7797 23.4073 9.85643 23.4099 4.93388 23.4388C4.18916 23.4434 3.99318 23.2166 4.00018 22.544C4.03238 19.4492 4.01418 16.3537 4.01418 13.2582L4.01488 13.2595Z" fill="#464255"/>
<path d="M15.665 16.7784C13.2055 16.7784 10.7453 16.758 8.28575 16.7916C7.57953 16.8008 7.31286 16.6318 7.32616 15.921C7.37095 13.61 7.36535 11.2976 7.32895 8.98581C7.31846 8.32831 7.56623 8.16131 8.23116 8.1646C13.1852 8.1863 18.14 8.18564 23.094 8.1646C23.7561 8.16197 24.0095 8.32371 23.9997 8.98383C23.9633 11.3278 23.9675 13.6724 23.9983 16.0164C24.006 16.6298 23.7666 16.7949 23.1486 16.7883C20.6541 16.7633 18.1596 16.7778 15.665 16.7778V16.7784ZM16.9158 12.5133C16.9158 12.2542 16.9193 11.9952 16.9158 11.7354C16.8983 10.5559 16.4608 10.1312 15.2612 10.1279C14.0517 10.1246 13.5996 10.5487 13.5828 11.7111C13.5751 12.2621 13.5688 12.8131 13.5842 13.3634C13.6129 14.3924 14.0776 14.8105 15.1835 14.8263C16.3762 14.8434 16.8724 14.4331 16.9137 13.3884C16.9249 13.0971 16.9158 12.8052 16.9158 12.5139V12.5133ZM17.7417 12.4705C17.7417 12.6329 17.7417 12.7953 17.7417 12.9571C17.7445 14.441 18.1526 14.8664 19.537 14.8257C20.7248 14.7915 21.0761 14.2852 21.095 12.9097C21.1083 11.9583 20.4819 12.0806 19.8576 12.08C19.5888 12.08 19.3837 12.101 19.4012 12.4337C19.4138 12.6763 19.4033 12.9124 19.7659 12.8676C20.2327 12.8104 20.2292 13.0728 20.2467 13.3976C20.2754 13.94 19.9843 14.0663 19.4838 14.0419C19.0352 14.0202 18.5452 14.1182 18.5739 13.4423C18.6005 12.8269 18.6019 12.2082 18.5725 11.5928C18.548 11.0911 18.7468 10.8722 19.2906 10.9096C19.6616 10.9353 20.0256 10.8695 20.3055 11.2279C20.4462 11.4074 20.8123 11.3791 20.969 11.2364C21.1811 11.0438 20.9362 10.8005 20.8137 10.648C20.2663 9.96744 19.4705 10.0529 18.7286 10.1884C18.0833 10.3067 17.7662 10.7781 17.7452 11.3982C17.7333 11.7545 17.7431 12.1122 17.7403 12.4692L17.7417 12.4705ZM10.256 12.3114C10.256 12.9295 10.2609 13.5482 10.2539 14.1662C10.2497 14.5436 10.3813 14.8092 10.8286 14.8178C11.3479 14.8283 11.868 14.8105 12.3866 14.8257C12.7457 14.8362 12.7534 14.635 12.7548 14.3865C12.7562 14.1419 12.6575 14.0288 12.3936 14.04C12.2207 14.0472 12.0436 14.0183 11.875 14.0446C11.2457 14.1419 11.028 13.9328 11.0707 13.3128C11.133 12.4054 11.0763 11.4909 11.0917 10.5802C11.0973 10.2607 11.0154 10.1101 10.6333 10.1213C10.284 10.1312 10.2497 10.3001 10.2525 10.5533C10.2595 11.1391 10.2546 11.7249 10.2546 12.3108L10.256 12.3114Z" fill="#464255"/>
<path d="M13.9706 24.9898C11.5782 24.9898 9.18661 24.9898 6.79427 24.9898C6.58639 24.9898 6.37852 24.9885 6.17064 24.9866C5.82348 24.9826 5.68279 24.8031 5.68069 24.4908C5.67719 24.0996 5.99216 24.2147 6.20074 24.2127C7.48299 24.2028 8.76595 24.2074 10.0489 24.2074C13.0999 24.2074 16.1501 24.2074 19.2011 24.2074C21.2435 24.2074 21.4898 23.9707 21.4898 22.0075C21.4898 20.7365 21.4863 19.4662 21.4926 18.1953C21.494 17.8955 21.3625 17.5181 21.956 17.5523C22.5012 17.5838 22.3123 17.9481 22.3144 18.1907C22.3284 20.1783 22.2885 22.1659 22.3396 24.1522C22.3585 24.8925 22.0274 25.0069 21.3548 24.9997C18.8938 24.9727 16.4322 24.9892 13.9706 24.9892V24.9898Z" fill="#464255"/>
<path d="M21.4897 5.96917C21.4897 5.67922 21.4876 5.3886 21.4897 5.09865C21.4918 4.87642 21.4519 4.63249 21.8333 4.65747C22.1126 4.67588 22.3058 4.78042 22.3107 5.0546C22.3233 5.73182 22.3135 6.40903 22.3191 7.08625C22.3212 7.34728 22.1651 7.39067 21.9278 7.3979C21.6415 7.40645 21.4701 7.34859 21.4848 7.03365C21.5016 6.67992 21.489 6.32422 21.4883 5.96983L21.4897 5.96917Z" fill="#464255"/>
<path d="M6.88727 3.91657C6.32174 4.12697 6.55341 3.70288 6.51631 3.52996C6.44982 3.22357 6.57161 3.08747 6.94257 3.08024C7.46261 3.07037 7.31563 3.39386 7.34782 3.65423C7.40522 4.1125 7.10425 3.96194 6.88797 3.91657H6.88727Z" fill="#464255"/>
<path d="M16.0776 12.5225C16.0776 12.8137 16.0559 13.107 16.0818 13.3963C16.1385 14.0281 15.7178 14.0347 15.2251 14.0472C14.6827 14.0603 14.3649 13.9446 14.4118 13.3529C14.4503 12.8696 14.4293 12.3818 14.4167 11.8959C14.4034 11.3587 14.3376 10.9004 15.2188 10.8873C16.1567 10.8728 16.107 11.3626 16.079 11.9399C16.0699 12.1339 16.0776 12.3285 16.0776 12.5231V12.5225Z" fill="#464255"/>
</svg>
