<svg width="28" height="28" viewBox="0 0 28 28" fill="none" xmlns="http://www.w3.org/2000/svg">
<path d="M23.7647 17.5368C23.7356 17.3984 23.638 17.2845 23.5057 17.2343L14.3504 13.7413C14.1987 13.6826 14.0268 13.7181 13.9108 13.8319C13.7948 13.9457 13.756 14.1168 13.8117 14.2696L17.1473 23.4789C17.1954 23.6117 17.3079 23.7109 17.4457 23.742C17.4759 23.7462 17.5066 23.7462 17.5367 23.742C17.6451 23.7421 17.7493 23.6998 17.8268 23.6239L19.3806 22.0991L20.8827 23.5721C21.0438 23.7301 21.3017 23.7301 21.4628 23.5721L23.5988 21.4755C23.6786 21.3975 23.7237 21.2907 23.7237 21.1792C23.7237 21.0676 23.6787 20.9609 23.599 20.8828L22.1073 19.4222L23.6488 17.9078C23.7466 17.811 23.7898 17.672 23.7647 17.5368Z" fill="#464255"/>
<path d="M13.2398 15.8959C12.5762 15.6535 12.0822 15.0899 11.9285 14.4006C11.7747 13.7112 11.9828 12.991 12.4806 12.4899C12.9782 11.9888 13.6969 11.7757 14.3873 11.9246C15.0776 12.0733 15.6446 12.5635 15.8918 13.2252C15.9297 13.3309 16.0091 13.4163 16.1114 13.4626C16.2137 13.5086 16.3302 13.5112 16.4345 13.4698C16.6491 13.3902 16.7584 13.1518 16.6791 12.9372C16.581 12.6777 16.4464 12.4335 16.2791 12.2121L17.0561 11.4248C17.1968 11.2605 17.1874 11.0154 17.0344 10.8623C16.8812 10.7093 16.6361 10.6998 16.4719 10.8406L15.6824 11.6279C15.1827 11.2515 14.5739 11.0478 13.9483 11.0478C13.3227 11.0478 12.7139 11.2515 12.2143 11.6279L11.4248 10.8406C11.2605 10.6998 11.0154 10.7093 10.8622 10.8623C10.7092 11.0154 10.6998 11.2605 10.8406 11.4248L11.6299 12.2141V12.2143C11.2535 12.714 11.0498 13.3227 11.0498 13.9483C11.0498 14.574 11.2535 15.1827 11.6299 15.6824L10.8406 16.4719C10.7529 16.547 10.7005 16.6552 10.6961 16.7707C10.6917 16.8859 10.7355 16.998 10.8171 17.0796C10.8987 17.1611 11.0108 17.205 11.126 17.2006C11.2414 17.1961 11.3497 17.1438 11.4248 17.0561L12.2121 16.2688C12.4383 16.4427 12.6889 16.5823 12.9559 16.6832C13.0017 16.6994 13.0502 16.7078 13.0989 16.7079C13.2999 16.7078 13.4718 16.5633 13.5066 16.3652C13.5412 16.167 13.4287 15.9728 13.2398 15.9042L13.2398 15.8959Z" fill="#464255"/>
<path d="M7.31827 9.80494C7.80424 9.73446 8.26411 9.54133 8.65461 9.24353L9.42746 10.0121C9.59173 10.1529 9.83683 10.1435 9.99 9.99047C10.143 9.83731 10.1524 9.5922 10.0116 9.42793L9.23472 8.65101C9.52496 8.25995 9.71108 7.80154 9.77543 7.31874H18.1248C18.1934 7.79766 18.3815 8.25142 18.6718 8.63841L17.8845 9.42793C17.7968 9.50304 17.7445 9.61125 17.74 9.72668C17.7356 9.84193 17.7794 9.95403 17.861 10.0356C17.9426 10.1172 18.0547 10.161 18.1699 10.1566C18.2853 10.1521 18.3936 10.0998 18.4687 10.0121L19.258 9.22278C19.9411 9.73408 20.8152 9.91868 21.6469 9.72722C22.4787 9.53576 23.1839 8.98766 23.5746 8.22883C23.9655 7.47018 24.0024 6.57786 23.6754 5.78943C23.3485 5.00104 22.6909 4.39669 21.8779 4.13732C21.0647 3.87778 20.1786 3.9897 19.4556 4.44291C18.7324 4.89631 18.2456 5.64514 18.1248 6.48997H9.76689C9.65683 5.77854 9.28614 5.13364 8.72691 4.68026C8.16768 4.22705 7.45995 3.99786 6.74127 4.03745C6.02241 4.07704 5.34408 4.38245 4.83799 4.89431C4.33185 5.40618 4.03422 6.08801 4.00277 6.80706C3.97132 7.52631 4.20848 8.23144 4.66798 8.78545C5.12766 9.33947 5.77677 9.70279 6.48934 9.80489V18.1253C5.6447 18.2467 4.89624 18.734 4.44342 19.457C3.99058 20.1803 3.87922 21.0664 4.13893 21.8792C4.39865 22.692 5.00299 23.3493 5.79142 23.6759C6.5798 24.0026 7.47199 23.9656 8.23044 23.5747C8.98909 23.1839 9.537 22.4787 9.72846 21.6472C9.91992 20.8155 9.73549 19.9418 9.22421 19.2587L10.0115 18.4692C10.1523 18.3049 10.1428 18.0598 9.98986 17.9066C9.83669 17.7536 9.59159 17.7442 9.42732 17.885L8.6378 18.6723C8.25081 18.382 7.79704 18.1939 7.31813 18.1253L7.31827 9.80494Z" fill="#464255"/>
</svg>
