<svg width="24" height="24" viewBox="0 0 24 24" fill="none" xmlns="http://www.w3.org/2000/svg">
<path d="M16 4.5H17C18.1046 4.5 19 5.39543 19 6.5V19.5C19 20.6046 18.1046 21.5 17 21.5H7C5.89543 21.5 5 20.6046 5 19.5V6.5C5 5.39543 5.89543 4.5 7 4.5H8M16 4.5C16 5.60457 15.1046 6.5 14 6.5H10C8.89543 6.5 8 5.60457 8 4.5M16 4.5C16 3.39543 15.1046 2.5 14 2.5H10C8.89543 2.5 8 3.39543 8 4.5M8.00004 13.5H9.50004L11 16L13 11L14.5 14H16" stroke="#94A3B8" stroke-width="1.5" stroke-linecap="round" stroke-linejoin="round"/>
</svg>
