<svg width="16" height="16" viewBox="0 0 16 16" fill="none" xmlns="http://www.w3.org/2000/svg">
<path d="M8 2.00033C6.89543 2.00033 6 2.89576 6 4.00033V7.33366C6 8.43823 6.89543 9.33366 8 9.33366C9.10457 9.33366 10 8.43823 10 7.33366V4.00033C10 2.89576 9.10457 2.00033 8 2.00033ZM8.66667 13.297V14.3337C8.66667 14.7018 8.36819 15.0003 8 15.0003C7.63181 15.0003 7.33333 14.7018 7.33333 14.3337V13.297C4.33337 12.9654 2 10.422 2 7.33366C2 6.96547 2.29848 6.66699 2.66667 6.66699C3.03486 6.66699 3.33333 6.96547 3.33333 7.33366C3.33333 9.91099 5.42267 12.0003 8 12.0003C10.5773 12.0003 12.6667 9.91099 12.6667 7.33366C12.6667 6.96547 12.9651 6.66699 13.3333 6.66699C13.7015 6.66699 14 6.96547 14 7.33366C14 10.422 11.6666 12.9654 8.66667 13.297ZM8 0.666992C9.84095 0.666992 11.3333 2.15938 11.3333 4.00033V7.33366C11.3333 9.17461 9.84095 10.667 8 10.667C6.15905 10.667 4.66667 9.17461 4.66667 7.33366V4.00033C4.66667 2.15938 6.15905 0.666992 8 0.666992Z" fill="white"/>
</svg>
