<svg width="50" height="50" viewBox="0 0 50 50" fill="none" xmlns="http://www.w3.org/2000/svg">
<path d="M49.2225 11.8059H43.9094L42.8937 9.5411C42.6589 8.99423 42.1128 8.68213 41.4876 8.68213H40.6285V7.5884C40.6285 6.72943 39.925 6.02605 39.0658 6.02605H32.3466C31.4875 6.02605 30.784 6.72943 30.784 7.5884V8.68213H29.9248C29.3779 8.68213 28.9092 8.99423 28.5961 9.46284L28.5178 9.38459C23.9082 4.77581 16.8759 4.15068 11.5637 7.58748L4.76617 0.791227C3.67223 -0.224252 1.95306 -0.302507 0.781777 0.791227C0.312158 1.33901 0 2.04147 0 2.8231C0 3.60474 0.312158 4.30719 0.780856 4.77581L7.57836 11.5721C4.14093 16.9625 4.84352 23.9926 9.3758 28.6013C11.9541 31.1792 15.3133 32.585 18.9855 32.585C19.7663 32.585 20.5481 32.5068 21.329 32.3502V49.223C21.329 49.6916 21.6411 50.0037 22.1098 50.0037H49.2216C49.6903 50.0037 50.0024 49.6916 50.0024 49.223V12.5866C50.0024 12.1963 49.6903 11.8059 49.2216 11.8059H49.2225ZM25.5491 30.8671C30.8622 27.8989 33.4405 21.8843 32.1901 16.1035H45.7851V45.8654H25.5491V30.8671ZM30.784 10.2445C31.6431 10.2445 32.3466 9.5411 32.3466 8.68213V7.5884H39.0658V8.68213C39.0658 9.5411 39.7693 10.2445 40.6285 10.2445H41.4876L42.7371 12.9006V14.4629H31.7987C31.33 13.1344 30.6265 11.8851 29.7674 10.7131L30.0022 10.2445H30.784ZM1.95398 1.96322C2.42268 1.4946 3.20354 1.4946 3.67316 1.96322L10.3141 8.60295C9.68888 9.14982 9.14191 9.69669 8.59494 10.3218L1.95398 3.68207C1.40701 3.21346 1.40701 2.43275 1.95398 1.96322ZM10.4707 27.5076C2.81403 19.7741 8.51759 6.96327 18.9864 6.96327C29.4552 6.96327 35.0032 19.8524 27.4248 27.4294C27.2683 27.5076 24.2995 30.9444 18.9091 30.9444C15.7838 31.0217 12.7368 29.7724 10.4707 27.5067V27.5076ZM48.4416 48.4423H22.8925V31.9599C23.283 31.8816 23.596 31.7251 23.9865 31.5695V46.5679C23.9865 47.0365 24.2986 47.3486 24.7673 47.3486H46.5659C47.0346 47.3486 47.3468 47.0365 47.3468 46.5679V15.2427C47.3468 14.7741 47.0346 14.462 46.5659 14.462H44.2224V13.3682H48.4416V48.4432V48.4423Z" fill="black"/>
<path d="M43.2069 19.2264H35.6285C35.1598 19.2264 34.8477 19.5385 34.8477 20.0071C34.8477 20.4757 35.1598 20.7878 35.6285 20.7878H43.2069C43.6756 20.7878 43.9877 20.4757 43.9877 20.0071C43.9877 19.6167 43.5973 19.2264 43.2069 19.2264Z" fill="black"/>
<path d="M29.689 35.5532H28.2047C27.736 35.5532 27.4238 35.8653 27.4238 36.3339C27.4238 36.8026 27.736 37.1147 28.2047 37.1147H29.689C30.1577 37.1147 30.4699 36.8026 30.4699 36.3339C30.4699 35.8653 30.1577 35.5532 29.689 35.5532Z" fill="black"/>
<path d="M43.2067 35.5532H32.5814C32.1127 35.5532 31.8005 35.8653 31.8005 36.3339C31.8005 36.8026 32.1127 37.1147 32.5814 37.1147H43.2067C43.6754 37.1147 43.9876 36.8026 43.9876 36.3339C43.9876 35.8653 43.5963 35.5532 43.2058 35.5532H43.2067Z" fill="black"/>
<path d="M43.2069 24.695H35.6285C35.1598 24.695 34.8477 25.0071 34.8477 25.4758C34.8477 25.9444 35.1598 26.2565 35.6285 26.2565H43.2069C43.6756 26.2565 43.9877 25.9444 43.9877 25.4758C43.9877 25.0071 43.5973 24.695 43.2069 24.695Z" fill="black"/>
<path d="M29.6892 30.1628C28.9857 30.2411 27.4231 29.7725 27.4231 30.9435C27.4231 31.4121 27.7353 31.7242 28.204 31.7242H29.6883C30.157 31.7242 30.4692 31.4121 30.4692 30.9435C30.4692 30.4749 30.157 30.1628 29.6883 30.1628H29.6892Z" fill="black"/>
<path d="M43.2067 30.1628H32.5814C32.1127 30.1628 31.8005 30.4749 31.8005 30.9435C31.8005 31.4121 32.1127 31.7242 32.5814 31.7242H43.2067C43.6754 31.7242 43.9876 31.4121 43.9876 30.9435C43.9876 30.4749 43.5963 30.1628 43.2058 30.1628H43.2067Z" fill="black"/>
<path d="M29.689 41.021H28.2047C27.736 41.021 27.4238 41.3331 27.4238 41.8017C27.4238 42.2703 27.736 42.5824 28.2047 42.5824H29.689C30.1577 42.5824 30.4699 42.2703 30.4699 41.8017C30.4699 41.4113 30.1577 41.02 29.689 41.02V41.021Z" fill="black"/>
<path d="M43.2067 41.021H32.5814C32.1127 41.021 31.8005 41.3331 31.8005 41.8017C31.8005 42.2703 32.1127 42.5824 32.5814 42.5824H43.2067C43.6754 42.5824 43.9876 42.2703 43.9876 41.8017C43.9876 41.4113 43.5963 41.021 43.2058 41.021H43.2067Z" fill="black"/>
<path d="M26.4073 11.5712C22.1881 7.35275 15.5471 7.50926 11.4845 11.5712C4.68699 18.4457 9.84358 29.5377 18.9072 29.5377C28.283 29.5377 33.0492 18.2109 26.4082 11.5712H26.4073ZM24.4543 26.1009C20.9386 28.8352 15.782 28.5222 12.6567 25.3202C6.95313 19.6177 11.0941 10.0098 18.9855 10.0098C27.5795 10.0098 31.2518 21.1018 24.4543 26.1018V26.1009Z" fill="black"/>
<path d="M22.3447 15.9452H15.5472C15.0785 15.9452 14.7664 16.2573 14.7664 16.7259C14.7664 17.1945 15.0785 17.5066 15.5472 17.5066H22.3447C22.8134 17.5066 23.1256 17.1945 23.1256 16.7259C23.1256 16.3355 22.8134 15.9452 22.3447 15.9452Z" fill="black"/>
<path d="M22.3447 20.4766H15.5472C15.0785 20.4766 14.7664 20.7887 14.7664 21.2573C14.7664 21.726 15.0785 22.0381 15.5472 22.0381H22.3447C22.8134 22.0381 23.1256 21.726 23.1256 21.2573C23.1256 20.7887 22.8134 20.4766 22.3447 20.4766Z" fill="black"/>
</svg>
