<svg width="28" height="28" viewBox="0 0 28 28" fill="none" xmlns="http://www.w3.org/2000/svg">
<path d="M4.00523 6.75672C4.00523 6.56441 3.99811 6.36974 4.00048 6.17742C4.01236 5.37972 4.64863 4.74581 5.44634 4.73157C5.49145 4.73157 5.53655 4.73632 5.58166 4.73632H22.4995C22.8818 4.73632 23.2165 4.85265 23.5109 5.09481C23.8433 5.36783 23.9976 5.79518 24 6.21537C24 6.46466 23.9953 6.70919 23.9953 6.95847V23.1214C23.9953 23.176 24 23.2306 24 23.2852C23.9881 24.0663 23.3827 24.6883 22.6135 24.7358C22.6111 24.7358 22.6135 24.731 22.6111 24.731C22.5921 24.7334 22.5755 24.7287 22.5565 24.7287H5.80448C5.40325 24.7287 5.00916 24.7429 4.65778 24.5008C4.23756 24.2111 4.00251 23.7672 4.00017 23.2543C4.00017 23.1689 4.00492 23.0881 4.00492 23.0027L4.00523 6.75672ZM9.20475 18.0553C9.19288 18.3117 9.43029 18.5301 9.6796 18.5301H12.2199C12.4858 18.5301 12.6829 18.3117 12.6948 18.0553C12.7067 17.7988 12.4692 17.5804 12.2199 17.5804H9.6796C9.4137 17.5804 9.21665 17.7988 9.20475 18.0553ZM15.0689 20.9755H19.9646C19.9954 20.9755 20.0453 20.9778 20.0666 20.9707C20.0928 20.9612 20.0975 20.947 20.1023 20.9161C20.1046 20.8947 20.1023 20.8686 20.1023 20.8473V17.8321C20.1023 17.7728 20.1094 17.7087 20.1023 17.6493C20.0951 17.6042 20.0785 17.6042 20.0287 17.6018C19.9646 17.5995 19.8981 17.6042 19.834 17.6042H15.6104C15.4371 17.6042 15.2614 17.59 15.0881 17.6018C15.0406 17.6042 15.0264 17.609 15.0216 17.6541C15.0145 17.7205 15.0216 17.7894 15.0216 17.8559V20.8591C15.0216 20.9232 15.0169 20.9755 15.0691 20.9755L15.0689 20.9755ZM13.8059 10.1353C13.9365 10.0997 14.1074 10.2184 14.2213 10.2778C14.6938 10.5176 15.1639 10.7598 15.6363 10.9995C15.8904 11.1301 16.1397 11.2607 16.4008 11.3889V6.16114H11.4626V11.3793C12.1511 11.0185 12.8135 10.66 13.4877 10.2991C13.5851 10.2445 13.6943 10.1638 13.8058 10.1353L13.8059 10.1353ZM7.6617 20.738H12.22C12.4859 20.738 12.683 20.5196 12.6949 20.2631C12.7068 20.0067 12.4693 19.7883 12.22 19.7883H7.6617C7.3958 19.7883 7.19874 20.0067 7.18685 20.2631C7.17496 20.5196 7.41239 20.738 7.6617 20.738Z" fill="#464255"/>
</svg>
