<svg width="28" height="28" viewBox="0 0 28 28" fill="none" xmlns="http://www.w3.org/2000/svg">
<path d="M10.398 7.11824C10.398 8.84031 9.00167 10.2368 7.27916 10.2368C5.55648 10.2368 4.16031 8.84031 4.16031 7.11824C4.16031 5.39599 5.55648 4 7.27916 4C9.00167 4.00017 10.398 5.39613 10.398 7.11824ZM23.9998 17.4728V23.1563C23.9998 23.6226 23.6216 24 23.1556 24H13.2369C12.7705 24 12.3926 23.6225 12.3926 23.1563V17.4728C12.3926 17.0063 12.7705 16.6286 13.2369 16.6286H15.1748L15.3358 16.2987C15.6599 15.5746 15.6599 15.5746 16.0601 15.5746H19.3364C19.7366 15.5746 19.7366 15.5746 20.0607 16.2987L20.222 16.6286H21.446V16.081C21.446 15.9708 21.5355 15.8815 21.6455 15.8815H22.5194C22.63 15.8815 22.7192 15.9704 22.7192 16.081V16.6286H23.1559C23.6219 16.6284 24 17.0063 24 17.4728H23.9998ZM20.1752 20.2203C20.1752 19.1275 19.2893 18.2422 18.1958 18.2422C17.1028 18.2422 16.2167 19.1274 16.2167 20.2203C16.2167 21.3133 17.1026 22.1992 18.1958 22.1992C19.2891 22.1992 20.1752 21.3133 20.1752 20.2203ZM11.1121 11.9015H4V23.9712H10.4401L10.4399 16.1417C10.4399 15.4035 10.929 14.8057 11.5322 14.8057H13.3024V14.0912C13.3025 12.8818 12.3217 11.9011 11.1122 11.9011L11.1121 11.9015ZM20.0301 9.43023C20.0301 9.09348 19.6511 8.82076 19.1834 8.82076H16.2142C15.7466 8.82076 15.3675 9.09368 15.3675 9.43023V13.6848C15.3675 14.0215 15.7466 14.2942 16.2142 14.2942H19.1836C19.6512 14.2942 20.0303 14.0215 20.0303 13.6848L20.0301 9.43023Z" fill="#464255"/>
</svg>
