<svg width="28" height="28" viewBox="0 0 28 28" fill="none" xmlns="http://www.w3.org/2000/svg">
<path d="M19.4765 7.1001H23.4001L18.3867 2.50024V6.10024C18.3867 6.65019 18.8772 7.10019 19.4766 7.10019L19.4765 7.1001Z" fill="#464255"/>
<path d="M19.4768 8.09994C18.2778 8.09994 17.2969 7.19994 17.2969 6.09989L17.2971 2H5.63486C4.7085 2 4 2.65006 4 3.5V24.5C4 25.3001 4.7085 26 5.63486 26H22.3651C23.2915 26 24 25.3001 24 24.5V8.09986L19.4768 8.09994ZM9.06827 14.2499C9.28632 14.2499 9.4498 14.3 9.61329 14.3499L11.3027 12.6999C11.1938 12.5499 11.1392 12.3498 11.1392 12.1499C11.1392 11.4999 11.6842 11 12.3926 11C13.1011 11 13.6459 11.5001 13.6459 12.1499C13.6459 12.2499 13.6459 12.2999 13.5913 12.3999L14.8447 13.1999C15.0627 12.9999 15.3351 12.8999 15.6621 12.8999C15.8801 12.8999 16.1526 12.95 16.316 13.1L17.7874 11.5499C17.6785 11.3999 17.6239 11.1999 17.6239 10.9499C17.6239 10.2999 18.169 9.8 18.8773 9.8C19.5858 9.8 20.1306 10.3001 20.1306 10.9499C20.1306 11.6 19.5856 12.0999 18.8773 12.0999C18.7138 12.0999 18.4957 12.0498 18.3323 11.9999L16.8063 13.5999C16.8609 13.7499 16.9152 13.8999 16.9152 14.0499C16.9152 14.6999 16.3702 15.1998 15.6619 15.1998C14.9534 15.1998 14.4086 14.6998 14.4086 14.0499C14.4086 13.9499 14.4086 13.8498 14.4631 13.7999L13.21 13.0001C12.9919 13.2001 12.665 13.3001 12.338 13.3001C12.12 13.3001 11.9565 13.25 11.793 13.1501L10.1036 14.8001C10.2125 14.9501 10.267 15.1501 10.267 15.4001C10.267 16.0501 9.72203 16.55 9.01371 16.55C8.30521 16.55 7.76038 16.0499 7.76038 15.4001C7.81494 14.8001 8.35977 14.2499 9.06827 14.2499ZM16.3163 23.9001H6.23435V22.9001H16.3159L16.3163 23.9001ZM21.7656 21.7001H6.23435V20.7002H21.7656V21.7001ZM21.7656 19.4501H6.23435V18.4502H21.7656V19.4501Z" fill="#464255"/>
</svg>
