<svg width="50" height="50" viewBox="0 0 50 50" fill="none" xmlns="http://www.w3.org/2000/svg">
<path d="M20.3829 50.0001C19.9709 49.9577 19.5894 49.7636 19.3125 49.4556C19.0357 49.1476 18.8832 48.7476 18.8849 48.3334V43.9972C17.8528 43.6654 16.848 43.2541 15.8795 42.767L12.8245 45.8232C12.6699 45.9786 12.4859 46.1017 12.2832 46.1851C12.0805 46.2686 11.8632 46.3108 11.644 46.3093C11.2017 46.3096 10.7772 46.1349 10.4634 45.8232L4.18496 39.5421C4.0296 39.3875 3.9066 39.2035 3.82314 39.0008C3.73967 38.7981 3.69742 38.5808 3.69884 38.3616C3.70055 37.9197 3.87501 37.496 4.18496 37.181L7.23992 34.1249C6.74449 33.1598 6.33292 32.1539 6.00976 31.1183H1.6667C1.22478 31.1168 0.801037 30.9423 0.486146 30.6322C0.330788 30.4776 0.207788 30.2935 0.124326 30.0909C0.0408638 29.8882 -0.00138845 29.6709 3.47949e-05 29.4517V20.561C0.00173994 20.1191 0.176204 19.6954 0.486146 19.3804C0.799966 19.0688 1.22441 18.894 1.6667 18.8943H6.01105C6.34284 17.8619 6.75413 16.8567 7.24121 15.8878L4.18624 12.8316C4.03089 12.677 3.90789 12.493 3.82443 12.2903C3.74096 12.0876 3.69871 11.8703 3.70013 11.6511C3.69995 11.2088 3.8747 10.7844 4.18624 10.4705L10.4647 4.18947C10.6193 4.03405 10.8033 3.911 11.006 3.82754C11.2088 3.74407 11.4261 3.70185 11.6453 3.70335C12.0872 3.70492 12.5109 3.87941 12.8258 4.18947L15.8808 7.24562C16.8455 6.75018 17.851 6.33861 18.8861 6.01546V1.66675C18.8879 1.22486 19.0623 0.801163 19.3723 0.486195C19.5269 0.330772 19.7109 0.207733 19.9136 0.124264C20.1163 0.0407982 20.3336 -0.00141907 20.5528 8.01086e-05H29.4399C29.659 -0.000835419 29.8762 0.0416451 30.0788 0.125076C30.2814 0.208508 30.4655 0.331242 30.6205 0.486191C30.7754 0.641136 30.8982 0.825233 30.9816 1.02786C31.065 1.23048 31.1075 1.44762 31.1066 1.66675V6.01318C32.1386 6.34497 33.1434 6.75625 34.1119 7.24334L37.1669 4.18718C37.3215 4.03176 37.5055 3.90872 37.7082 3.82526C37.9109 3.74179 38.1282 3.69958 38.3475 3.70108C38.7897 3.70074 39.2142 3.87551 39.528 4.18718L45.8065 10.4682C45.9618 10.6229 46.0848 10.8069 46.1683 11.0096C46.2518 11.2123 46.294 11.4296 46.2926 11.6488C46.2909 12.0907 46.1164 12.5144 45.8065 12.8293L42.7614 15.8756C43.2569 16.8407 43.6684 17.8465 43.9916 18.8821H48.3334C48.7753 18.8837 49.199 19.0582 49.5139 19.3682C49.6693 19.5229 49.7923 19.7069 49.8757 19.9096C49.9592 20.1123 50.0015 20.3296 50 20.5488V29.4405C49.9983 29.8824 49.8239 30.306 49.5139 30.621C49.2001 30.9327 48.7757 31.1075 48.3334 31.1071H43.9893C43.6575 32.1396 43.2462 33.1448 42.7592 34.1137L45.8141 37.1698C45.9695 37.3245 46.0925 37.5085 46.1759 37.7112C46.2594 37.9139 46.3017 38.1312 46.3002 38.3504C46.3004 38.7926 46.1257 39.217 45.8141 39.5309L39.5356 45.812C39.3811 45.9674 39.197 46.0904 38.9943 46.1739C38.7916 46.2574 38.5743 46.2996 38.3551 46.2981C37.9132 46.2965 37.4894 46.122 37.1745 45.812L34.1196 42.7558C33.1549 43.2513 32.1494 43.6628 31.1142 43.986V48.3334C31.1125 48.7753 30.938 49.199 30.6281 49.514C30.4735 49.6694 30.2895 49.7924 30.0868 49.8759C29.8841 49.9594 29.6668 50.0016 29.4476 50.0001H20.3829ZM22.2281 46.6661H27.7826V42.7962C27.7827 42.425 27.9086 42.0648 28.1397 41.7744C28.3719 41.4849 28.6924 41.2793 29.0524 41.1891C30.6529 40.7882 32.1865 40.1566 33.6051 39.3141C33.9248 39.1248 34.2974 39.0447 34.6666 39.0859C35.0341 39.1268 35.3769 39.2912 35.6388 39.5522L38.3665 42.2808L42.2943 38.3515L39.5666 35.6228C39.3075 35.3595 39.1434 35.0175 39.1003 34.6506C39.0603 34.2814 39.1403 33.9092 39.3285 33.5891C40.1744 32.1715 40.8062 30.6368 41.2035 29.0346C41.2938 28.6747 41.4994 28.3541 41.7888 28.1219C42.08 27.8921 42.4397 27.7664 42.8107 27.7648H46.6789V22.2081H42.809C42.4378 22.2081 42.0775 22.0822 41.7871 21.851C41.4977 21.6187 41.2921 21.2982 41.2018 20.9383C40.8009 19.3373 40.1693 17.803 39.3268 16.3838C39.1377 16.0641 39.0576 15.6915 39.0986 15.3223C39.1396 14.9548 39.304 14.6121 39.5649 14.3501L42.2926 11.6214L38.3648 7.69204L35.6371 10.4207C35.3739 10.6799 35.0318 10.844 34.6649 10.887C34.2957 10.9271 33.9235 10.8471 33.6034 10.6588C32.1865 9.81291 30.6524 9.18108 29.0507 8.78381C28.6908 8.69356 28.3702 8.488 28.138 8.1985C27.9083 7.90726 27.7826 7.54758 27.7809 7.17667V3.30682H22.2278V7.17409C22.2277 7.54528 22.1018 7.90548 21.8707 8.19592C21.6385 8.48542 21.3179 8.69098 20.958 8.78123C19.3575 9.18211 17.8239 9.81373 16.4053 10.6562C16.0856 10.8455 15.713 10.9256 15.3438 10.8844C14.9763 10.8435 14.6335 10.6791 14.3716 10.4181L11.6439 7.68946L7.71611 11.6188L10.4438 14.3475C10.7029 14.6108 10.867 14.9528 10.9101 15.3197C10.9501 15.6889 10.87 16.0611 10.6819 16.3812C9.836 17.7988 9.20418 19.3335 8.80688 20.9357C8.71657 21.2956 8.51101 21.6162 8.22156 21.8484C7.93038 22.0782 7.57067 22.2039 7.19974 22.2055H3.33267V27.7636H7.20093C7.57214 27.7636 7.93237 27.8895 8.22275 28.1207C8.51221 28.3529 8.71777 28.6735 8.80807 29.0334C9.20898 30.6344 9.84059 32.1686 10.6831 33.5879C10.8722 33.9076 10.9523 34.2802 10.9112 34.6494C10.8702 35.0169 10.7059 35.3596 10.445 35.6216L7.7173 38.3503L11.6451 42.2796L14.3728 39.551C14.636 39.2918 14.9781 39.1277 15.345 39.0847C15.7141 39.0446 16.0864 39.1246 16.4065 39.3129C17.8234 40.1588 19.3575 40.7906 20.9592 41.1879C21.3191 41.2781 21.6397 41.4837 21.8719 41.7732C22.1015 42.0644 22.2273 42.4241 22.229 42.795L22.2281 46.6661ZM25.0053 37.2197C18.2804 37.2197 12.7854 31.7226 12.7854 24.9951C12.7854 18.2676 18.2801 12.7705 25.005 12.7705C31.7299 12.7705 37.2248 18.2577 37.2248 24.9951C37.2248 31.7325 31.7299 37.2197 25.005 37.2197H25.0053ZM25.0053 33.8857C26.7639 33.8864 28.4831 33.3656 29.9457 32.3891C31.4082 31.4126 32.5483 30.0243 33.2218 28.3998C33.8952 26.7753 34.0718 24.9876 33.7291 23.2627C33.3865 21.5379 32.54 19.9534 31.2968 18.7096C30.0535 17.4659 28.4694 16.6188 26.7447 16.2754C25.0199 15.9321 23.2321 16.108 21.6074 16.7808C19.9826 17.4536 18.5939 18.5931 17.6168 20.0553C16.6397 21.5174 16.1182 23.2365 16.1182 24.995C16.1144 26.1633 16.3416 27.3208 16.7868 28.401C17.232 29.4811 17.8863 30.4626 18.7123 31.2889C19.5382 32.1152 20.5194 32.77 21.5993 33.2157C22.6793 33.6614 23.8367 33.8891 25.005 33.8858L25.0053 33.8857Z" fill="black"/>
</svg>
