<svg width="28" height="28" viewBox="0 0 28 28" fill="none" xmlns="http://www.w3.org/2000/svg">
<path fill-rule="evenodd" clip-rule="evenodd" d="M23 20C23 18.8635 22.5688 17.7731 21.8021 16.9692C21.0347 16.166 19.9939 15.7143 18.9091 15.7143H9.09091C8.00609 15.7143 6.96527 16.166 6.19787 16.9692C5.43121 17.7731 5 18.8635 5 20V21.7143C5 22.8508 5.43119 23.9411 6.19787 24.7451C6.96527 25.5483 8.00609 26 9.09091 26H18.9091C19.9939 26 21.0347 25.5483 21.8021 24.7451C22.5688 23.9411 23 22.8508 23 21.7143V20ZM14 2C10.8394 2 8.27273 4.68888 8.27273 8C8.27273 11.3111 10.8394 14 14 14C17.1606 14 19.7273 11.3111 19.7273 8C19.7273 4.68888 17.1606 2 14 2Z" fill="#464255"/>
</svg>
